<svg id="Calque_1" data-name="Calque 1" xmlns="http://www.w3.org/2000/svg" viewBox="0 0 271.97 371.64"><defs><style>.cls-1{fill:#202020;}</style></defs><title>next</title><path class="cls-1" d="M152.33,421.65c-1.6,1.67-3.24,2.88-2.73,2.16-3.06,3.6-3.43,3.36-3.35,4.31-1.88,2.39-4.51,4.32-2.29,1.68l-5.84,6.48,3.76-3.61a19.13,19.13,0,0,1-3.31,3.63l-.56.55-.14.14-.07.06-.31.28-.3.24-.29.24-.14.12-.27.18c-.4.26-.8.48-1.19.69a6.71,6.71,0,0,1-1,.39,8.12,8.12,0,0,1-.89.28c-.56.12-1,.22-1.38.33l.68-.06a6.49,6.49,0,0,0,1.76-.34,5.23,5.23,0,0,0,1.2-.47l.7-.39.35-.21a1.82,1.82,0,0,0,.27-.19l.66-.55,0,0,.3-.27.08-.08.15-.15.31-.32c1.66-1.67,3.31-3.35,3.31-3.35l-.19.47a68.26,68.26,0,0,1,5.47-5.52c-.09.23.13.24-1,1.43,8.09-8,1.42-2.91,8-9.74C153.61,420.46,153.09,421,152.33,421.65Z" transform="translate(-119.22 -68.16)"/><path class="cls-1" d="M160.22,415.86l2.27-3.35,4.85-4.57c-.13-.24,3.15-3.82.66-1.66-.42.48-1.27,1.43-2,2.14.13-.93,6.07-6.46,4.28-5.49-3.62,3.84-4.28,4.32-6.25,6.94-3.46,3.38-6,5.77-7.78,7.22-1,1.08-.85,1.47-2.09,2.8L155,419l.75.47a41.3,41.3,0,0,1,3.2-3.36l-4.81,6.22c2.34-1.22,7.43-7,9.83-8.9C160.79,415.61,165.87,411,160.22,415.86Z" transform="translate(-119.22 -68.16)"/><path class="cls-1" d="M154.15,419.89,154,420Z" transform="translate(-119.22 -68.16)"/><path class="cls-1" d="M191.7,144a5.84,5.84,0,0,0,1.91,1.46L180.4,132.26c.25.57,3.86,4.57,1.22,2.12a29.47,29.47,0,0,0,5.28,4.9l-1.2-.72c3.35,2.74,4.82,5.42,2.65,3.62l.26.26,9.62,7.23C195.21,146.51,195.44,147.7,191.7,144Z" transform="translate(-119.22 -68.16)"/><path class="cls-1" d="M140.55,418c1.65-1.76,1.81-2,1.55-1.9C141.53,416.71,141,417.34,140.55,418Z" transform="translate(-119.22 -68.16)"/><path class="cls-1" d="M200.48,151.36l3,2.27A36.43,36.43,0,0,0,200.48,151.36Z" transform="translate(-119.22 -68.16)"/><path class="cls-1" d="M176.52,138.75s-.07,0,0,.1l1.37,1,0,0Z" transform="translate(-119.22 -68.16)"/><path class="cls-1" d="M261.79,209.87l.89.84C262.36,210.39,262.07,210.12,261.79,209.87Z" transform="translate(-119.22 -68.16)"/><path class="cls-1" d="M138.63,105.11l6.23,5.51c-1-.61,1.93,2.17.49,1.13.48.42,2.64,2.45,2.16,1.79l-1.21-1.19c3.59,2.61,1.9.54,7.41,5.3a31.82,31.82,0,0,0-6.47-6.07l-1.6-1.47-5.58-4.19Z" transform="translate(-119.22 -68.16)"/><path class="cls-1" d="M219.53,333.35l0-.11C219.51,333.32,219.52,333.34,219.53,333.35Z" transform="translate(-119.22 -68.16)"/><path class="cls-1" d="M219.66,332.83l-.1.41C219.8,332.85,220.93,331.57,219.66,332.83Z" transform="translate(-119.22 -68.16)"/><path class="cls-1" d="M199.19,150.71a3.72,3.72,0,0,1,1.29.65l-2.25-1.69Z" transform="translate(-119.22 -68.16)"/><path class="cls-1" d="M193.63,147.31l-5-4.88-2.08-1.56C188.52,142.66,190.8,144.81,193.63,147.31Z" transform="translate(-119.22 -68.16)"/><path class="cls-1" d="M254.27,201.76c10.32,10.17-3.1-1.93,1.47,2.92,2.91,2.77,4.19,3.5,6.05,5.19-8.36-7.89,2,.19-6.33-7.86,1.66.67,6.45,5.36,9.1,8.28,2.66,3.63-3.11-2.4-4.29-2.64,3.37,3.21,2.88,2.54,4.54,3.67,5.05,5.28,11.27,10.09,13.69,13.84,3.84,3.63,3.83,3.16,6.23,5.05.94-.09-5.29-5.83-6.27-7.62.24.33.72,1,.48.89l-3.12-3.34c2.89,3.25-.94.09-2.62-1.51-1.2-1.18-3.6-3.53-3.13-3.35L272,217c-2.16-2.49-5.51-4.75-7.68-7.48,0-.25,1,.63,1.18.69-3.1-2.39-5.73-5.07-10.05-8.89l2.87,1.85c-3.82-2.69-11-10.22-15.84-15.63.48.65,1.44,1.74.73,1.22-3.13-2.88-5-5.49-3.38-4.37-3.36-2.51-10.81-11.53-15.36-15l-21-15.77c.75.62,1.54,1.3,2.32,2,1.23,2.12,2.18,3-1.17.46,3.11,2.63,2.37,1.18,6.71,5.47-1.92-1.46-2.86-1.38,1.22,2.81,10.78,9.89,18.91,15.46,29.21,24.46,0,.7,7.69,8.19,11.29,11.95-1.77-1-4.61-3.66-7.53-6.42l7.07,7.17Z" transform="translate(-119.22 -68.16)"/><path class="cls-1" d="M229.1,178.93c.23.29.48.57.74.86A8,8,0,0,0,229.1,178.93Z" transform="translate(-119.22 -68.16)"/><path class="cls-1" d="M244.69,193.52c-.05,0-.05,0-.07,0l.92.88Z" transform="translate(-119.22 -68.16)"/><path class="cls-1" d="M200.83,153.91c-.71-.51-1.19-.94-1.91-1.45l1.4,1.22C200.8,154.06,201.06,154.22,200.83,153.91Z" transform="translate(-119.22 -68.16)"/><path class="cls-1" d="M199.37,151.24l.47.18-.65-.71C199,150.71,199.05,150.86,199.37,151.24Z" transform="translate(-119.22 -68.16)"/><path class="cls-1" d="M290.28,244l1.06.91A5.87,5.87,0,0,0,290.28,244Z" transform="translate(-119.22 -68.16)"/><path class="cls-1" d="M265.09,213.76c-3.6-3.53-.94.09-6-4.95l1.44,1.52c-3.83-3.4-10.09-9.86-14.4-14.13.69.28-2.36-2.86-1.53-2.68a73.58,73.58,0,0,0-7.84-6.88c-1.71-1.92-4.76-4.4-6.94-6.85.78,1.17-4-2.64,1.92,2.76-.48-.43-.24-.1-.72-.53,3.36,3.9,5.27,4.9,8.4,8,1.68,2.05-3.36-2.75-1.67-.91,4.07,3.72,12,12.47,12.47,11.49a22.5,22.5,0,0,1,3.83,4.32c5.26,3.72,16.34,17,17.28,16-1.68-1.6-4.33-4.29-7-6.49Z" transform="translate(-119.22 -68.16)"/><path class="cls-1" d="M206.86,159.84l.69.71Z" transform="translate(-119.22 -68.16)"/><path class="cls-1" d="M164.74,112.06l2.13.85c8.63,8.33,11.52,11.58,19,19,.48.65-.47-.19-1-.62,5.29,5.14,13,13.08,17,16.58,1.65,1.66,5.8,6.22,4,4.76.86.75,1.84,1.62,2.75,2.57,0,.47-2.15-2-2.39-1.88.72.75,1,1.08,1.21,1.18-1.44-1,.5,2.06-5.26-3.73-1.7-2.77,4.07,3.95,3.34,2-1.91-1.92-1.92-1.47-2.15-1.56-2.43-2.46-2.22-2.54-1.95-2.55-1.12-.75-3.94-4.08-5.51-5.09-4.79-4.7.7-.18-2.4-3.28l-2.39-1.19-5-5.27c-7.68-7.25,0,2.11-8.84-6.08,1.43.8-1.46-3.14-5.31-7.24,2.4,2.36,7.18,6.36,10.07,9.6-3.85-4.79,6,5.89,4.3,3.11a84.17,84.17,0,0,1-8.63-8.32l1,.85c-2.89-3-5.76-4.63-9.59-8.94-2-2-1.5-1.8-1-1.58C166.26,113.61,164.61,112.2,164.74,112.06Zm4.54,4.29,2.65,2.77A23.76,23.76,0,0,0,169.28,116.35Z" transform="translate(-119.22 -68.16)"/><path class="cls-1" d="M198.05,377.87l-.87.77C197.38,378.49,197.71,378.19,198.05,377.87Z" transform="translate(-119.22 -68.16)"/><path class="cls-1" d="M194.44,130.06l1.55,1.59C195.4,131,194.9,130.51,194.44,130.06Z" transform="translate(-119.22 -68.16)"/><path class="cls-1" d="M231.66,163.32l2.43,2.15A31.42,31.42,0,0,0,231.66,163.32Z" transform="translate(-119.22 -68.16)"/><path class="cls-1" d="M216.81,359.19l.08-.07.33-.4Z" transform="translate(-119.22 -68.16)"/><path class="cls-1" d="M300.92,235.39c.3.4.65.84,1.15,1.41A6.73,6.73,0,0,0,300.92,235.39Z" transform="translate(-119.22 -68.16)"/><path class="cls-1" d="M231.21,162.92a1,1,0,0,0,.13.15l.32.25Z" transform="translate(-119.22 -68.16)"/><path class="cls-1" d="M180.67,112.79l-1.07-.94C180.09,112.31,180.4,112.58,180.67,112.79Z" transform="translate(-119.22 -68.16)"/><path class="cls-1" d="M181.18,116.71c-.37-.35-.74-.68-1-.92Z" transform="translate(-119.22 -68.16)"/><path class="cls-1" d="M124.86,88.93l2.2,2C126,89.93,125.36,89.34,124.86,88.93Z" transform="translate(-119.22 -68.16)"/><path class="cls-1" d="M176,110.72l-.41-.25C175.88,110.75,176.06,110.85,176,110.72Z" transform="translate(-119.22 -68.16)"/><path class="cls-1" d="M182.83,389.51l.13-.13,0-.12Z" transform="translate(-119.22 -68.16)"/><path class="cls-1" d="M178.57,395.53l-1.81,1.9C177.45,396.75,178.1,396.06,178.57,395.53Z" transform="translate(-119.22 -68.16)"/><path class="cls-1" d="M301.85,273.75c-.64.47-2.06,1.68-1.55,1C299.36,275.92,299.73,276.15,301.85,273.75Z" transform="translate(-119.22 -68.16)"/><path class="cls-1" d="M189.38,375.46c-.25.42-.61.9-1,1.38C189.11,376,189.72,375.21,189.38,375.46Z" transform="translate(-119.22 -68.16)"/><path class="cls-1" d="M188.41,376.84l-1,1.28C187.76,377.68,188.11,377.25,188.41,376.84Z" transform="translate(-119.22 -68.16)"/><path class="cls-1" d="M308.42,256.14a.83.83,0,0,0,.12-.55C308.4,255.68,308.43,255.87,308.42,256.14Z" transform="translate(-119.22 -68.16)"/><path class="cls-1" d="M175.16,398.84c-.19.47-7.95,8.86-1.09,2.14.18.71-4.15,4.56-5.85,6.48,1.42-1.21-.37.94.19.7.84-1,1.78-2.14,3.3-3.6.88-.48-1.23,1.91-3.07,3.6,2.41-1.94-2.39,3.1.85.21,6.4-6.71,10.88-11.51,14.84-16.77-3.63,3.85-7.68,8.16-10.93,11l.91-1.68c3.8-3.12,5.69-5.51,9.13-8.88l-7.86,7.45c-3.9,3.26-1.58.79,1.18-2.11A10.34,10.34,0,0,1,175.16,398.84Z" transform="translate(-119.22 -68.16)"/><path class="cls-1" d="M176.94,390.3l-.14.12c-.1.13-.23.27-.28.36Z" transform="translate(-119.22 -68.16)"/><path class="cls-1" d="M132.26,80.76l.8.51C132.45,80.79,132.23,80.66,132.26,80.76Z" transform="translate(-119.22 -68.16)"/><path class="cls-1" d="M183.37,387.6h0C183.41,387.55,183.43,387.54,183.37,387.6Z" transform="translate(-119.22 -68.16)"/><path class="cls-1" d="M137,85.81l-.12,0A.21.21,0,0,0,137,85.81Z" transform="translate(-119.22 -68.16)"/><path class="cls-1" d="M149.66,81.89a.46.46,0,0,0-.06-.16C149.23,81.4,149.38,81.59,149.66,81.89Z" transform="translate(-119.22 -68.16)"/><path class="cls-1" d="M137,85.79s0,0,0,0S137.06,85.83,137,85.79Z" transform="translate(-119.22 -68.16)"/><path class="cls-1" d="M218,163.92s-.18-.32-.51-.78C217.29,163,217.4,163.22,218,163.92Z" transform="translate(-119.22 -68.16)"/><path class="cls-1" d="M202.86,147.65l-.24-.33Z" transform="translate(-119.22 -68.16)"/><path class="cls-1" d="M307.3,271.77c.78-.77,1.35-1.37,1.83-1.87C308.55,270.45,307.94,271.07,307.3,271.77Z" transform="translate(-119.22 -68.16)"/><path class="cls-1" d="M136.87,85.76c-.2-.12-.48-.32-.92-.65A9.41,9.41,0,0,0,136.87,85.76Z" transform="translate(-119.22 -68.16)"/><path class="cls-1" d="M243.88,185.92l-.53-.44.27.3Z" transform="translate(-119.22 -68.16)"/><path class="cls-1" d="M251.79,194.39a6.42,6.42,0,0,0-.7-.43c3.09,2.76,8.29,8.31,9.33,8.53-1-1-5.91-6.36-4.79-5.73-2.14-1.93-4.87-5.23-6-6.26,3.12,3.57,0,.7-2.38-1.42-1.94-2.17.71.06-1-1.79l-4.8-4.7,4.09,4.19-1.65-.86.46.38C251.53,193.13,244.36,187.47,251.79,194.39Z" transform="translate(-119.22 -68.16)"/><path class="cls-1" d="M251.09,194c-.46-.42-.87-.77-1.22-1A7,7,0,0,0,251.09,194Z" transform="translate(-119.22 -68.16)"/><path class="cls-1" d="M279.07,223.23l1.3,1.18Z" transform="translate(-119.22 -68.16)"/><path class="cls-1" d="M183.09,137.29c0-.24-3.86-4.56-4.09-4.19l3.57,3.76Z" transform="translate(-119.22 -68.16)"/><path class="cls-1" d="M269.46,301.9c.46-.45.92-.9,1.37-1.36l.22-.31A17.68,17.68,0,0,0,269.46,301.9Z" transform="translate(-119.22 -68.16)"/><path class="cls-1" d="M257,197.88a11.48,11.48,0,0,0-1.41-1.12A9.76,9.76,0,0,0,257,197.88Z" transform="translate(-119.22 -68.16)"/><path class="cls-1" d="M268.48,301.43a8.67,8.67,0,0,1-1.88,1.22c-1.19,1.19-1.87,2.18-3,3.44A65.78,65.78,0,0,1,268.48,301.43Z" transform="translate(-119.22 -68.16)"/><path class="cls-1" d="M263.49,306.19l.09-.1Z" transform="translate(-119.22 -68.16)"/><path class="cls-1" d="M185.38,139.85l1.15,1-.64-.49,2.71,2.9c.36.32.75.67,1.21,1.11a1.89,1.89,0,0,0-.49-.33l.87.93c2.55,1.93,8.34,7.26,10.13,8.68,2.26,2,4.94,4.52,6.54,6.17-1.5-1.52-3.57-3.46-3.14-2.68,2.89,3.25,3.86,5.26,9.6,10.11l-3.11-3.1,7.65,6.31c2.17,2.73-3.82-3.15-5-3.88,5.76,5.1,9.4,10.51,12.5,12.44,0,.7,0,1.87,3.62,5.4-2.17-3,2.39,1.88.71-.64,1.42,1,3.85,4.1,4.31,4l-.48-.19c5.54,6.64,8.39,7.77,11.28,10.09,7.42,7.15,10.55,10.72,16.55,16.6,0,.47,1,2.72,3.39,5.08,1.42.8,6.94,6,7.9,6.18-4.1-4.43-3.83-3.15-6.47-5.61-1.71-2.54.22-.61-2.43-3.76,2.18,2.5,10.8,10.36,13,13.32l-1-.85c3.85,4.33,3.64,6.11,11.06,12.33l3.5,3a1.69,1.69,0,0,0-.38-.13c2.64,2.68,3.48,3.78,4.45,4.89.24.28.48.55.78.86s.67.7,1.1,1.12c.86.85,2,1.92,3.81,3.55-.55-.5-.31-.17-.87-.67.71.8,1.45,1.58,2.23,2.35-1.42,1.43-2.69,2.86-3.94,4.28-.63.72-1.24,1.42-1.83,2.08l-1.54,1.72c-1.88,1.21,0-.7.76-1.9A181.41,181.41,0,0,0,279.78,279l-4,3.61c2.12-2.39,4.52-5.5,3.63-5a60.35,60.35,0,0,1-4.48,4.81,34.44,34.44,0,0,1,2.45-3.82c-6.47,5.76-.61,2.13-5.54,5.75-1.93,1.91-2.73,3.34-2.68,3.81l-3.82,3.14c-.06.72-4.34,5-7.1,7.9-.21.49,2.61-1.91,3.56-3.11,0,.47-2.83,3.59-4.76,5.51-1.4,0-12.52,12.71-11.05,9.62-8.43,8.88-20.52,21.1-25.94,27.1-2.07,1.7-5.92,5.53-4,2.9-7,7-9.85,11.27-16.95,18-.66.49,3.12-3.13,2.64-3.12-4.24,4.8-8.51,7.94-15.34,15.13a5.71,5.71,0,0,0,1.46-1.91c.24,0-2.64,3.11-4.34,5-1.08,1,1.28-1.44.62-.95-13.88,13.21-23.27,24.46-36.77,37.91,3.86-3.84,4.86-5.75,4.71-6L148.35,409c-1.22,1.68-4,4.51-6.25,7-.37.21-1.62,1.27-.55,0A93.63,93.63,0,0,0,132,426c-.73.83-1.46,1.68-2.22,2.57l-.28.32-.17.27a1.89,1.89,0,0,0-.31.53,3.33,3.33,0,0,0-.31,1.2,3.43,3.43,0,0,0,.14,1.27,2.24,2.24,0,0,0,.22.55,1.47,1.47,0,0,1,.1.22l0,.06.09.1.17.2.34.42,0,.05h0l-.12-.13h0l.07.06.14.1.27.23.32.16a3.46,3.46,0,0,0,.55.25,1.31,1.31,0,0,0,.46.1l.6.07h-.68a3.11,3.11,0,0,1-.32,0l-.2-.05a1.9,1.9,0,0,0-.25,0l-.33-.13a2.47,2.47,0,0,1-.73-.39l-.1-.06,0,0h0l.1.1h0l-.23-.24-.46-.48a4.32,4.32,0,0,1-.76-1.88,4.44,4.44,0,0,1,.41-2.24,8.92,8.92,0,0,1,.65-.95l.77-.9,1.58-1.88-3.05,2.42,4.43-5.28c-3.14,2.69-5.12,5.63-5.74,6a2.72,2.72,0,0,1,.48-.81l.34-.45.32-.36c.43-.48.77-.9.7-1a13.21,13.21,0,0,0-1.75,1.78,3.53,3.53,0,0,0-.54.89,3.44,3.44,0,0,0-.31.82c-.05.28-.11.54-.16.81s0,.55,0,.85a4.58,4.58,0,0,0,.09.94,4.68,4.68,0,0,0,.29,1.11,5.31,5.31,0,0,1-.27-3.75,5.55,5.55,0,0,1,1-2l.35-.45.33-.36c.21-.25.43-.49.65-.74,1.78-2,3.76-4.1,5.77-6.22l11-11.42c.86-1-.61.95-.7,1.18,2.35-2.39,4-3.6,6.86-6.71,1.56-2.16-1.64,1.19-3.14,2.64-.06-.46.7-1.19,2.3-2.87.7,0,9.13-8.89,11.67-10.58,8.66-8.88-2.3.51,6.42-7.9l3-2.17c4.66-5.27,10.82-12,16.53-17.51l-1.17,1.2c-.63,1,.78-.24,1.45-.73,4.42-4.08,7.76-8.38,10.73-10.56,4.42-5.27,12.19-13.66,17.52-19.42,2-1-6.79,7.67-8.77,10.3l5-5.05a46,46,0,0,0-5.71,6.73c4.51-4.33,5.51-6.24,9.57-10.56-.18.47.46,0,2.4-1.94l.2-.89a4.64,4.64,0,0,0,.93-.77l7.24-7.67c-1.73,1.43-2.1,1.21-4,3.13.89-.49-.7,1.19-2.63,3.11,1.46-1.91-2.07,1.69-2.22,1.46,3.88-3.85,8.58-8.65,11-11.28l1.14-.5c3.76-3.6,7.48-7.67,10.07-10.08l-.62,1c4.52-4.32,8.66-8.88,12.9-12.49,3.57-4.31,8.23-9.57,11.08-13.18,1.31-2.13,12.08-11.05,15.94-16.07.35-.26-2.74,3.36-4.1,5,3-2.89,4.86-5.75,6.22-6.25-6.78,6.49.7,0-2.17,3.1,3.1-3.11,6.3-6.46,7.67-8.14-5,5,1.19-2.39-3.71,2.89,1.7-2.05,3.78-4.37,6-6.74l2.17-2.28c.52-.53,1.07-1.06,1.65-1.58l-.29-.32c.37,0,.26-.29-.55-1.25,0,0-1.1-.56-1.08-.54-.5-.55.1-.11.62.24s1,.61-.2-.65a11.51,11.51,0,0,1-1.47-1.23c-.72-.66-1.47-1.39-2.24-2.15l-4.7-4.74c-3.09-3.12-5.91-5.88-7.34-6.45-3.13-3.81,6.95,6.26,2.13.62,3.36,2.73,7.2,7.28,8.63,7.86-3.11-2.86-.73-1.45-2.65-3.38L281.35,241l.72.75c-6-5.18-14.64-14.22-21.84-21.28-6.47-5.61-11.25-9.14-18.44-16.43,2.39,1.88-5.78-6.26-.75-2.17-3.13-3.57-6.7-6.62-7-6.5,2.89,3,1,1.1,3.37,3.68a64.23,64.23,0,0,1-7.2-7.07c.72.76.49.43.72.52-3.37-3.67-1.91-1.46-4.55-3.91-.49-1.12-5.54-5.7-7.7-8.19l-3.82-2.92c2.15,1.56-3.12-3.33-3.37-4.14a84,84,0,0,1-8.62-7.62c1.67,1.36-3.14-3.59-2.9-3.95-6-6.59-11.26-9.61-16.79-16,.25.11,1.66,1.12,0-.7-1.46-1.29-3.83-3.73-5.34-5.17l.06,0-.09-.07c-.73-.7-1.22-1.12-1.31-1.06-2.81-2.23-4.41-3.22-9.61-7.92,0,.71,4.33,4.75,6.25,6.45l1.9,1.23c1,2,4.56,4.37,5.52,5.68-3.58-2.36-12-11.06-17.49-15.82,2.65,3.61,9.38,10.49,15.38,16.38l-2.41-2.83,3.11,3.1-2.64-3.37c2.88,3,5.52,5.46,8.16,8.14-3.12-3.11-3.86-4.8-2.17-3,3.13,3.81,3.84,3.4,6.47,6.07-1.45-1.51-3.36-3.44-1.93-2.39,4.82,5.64,6.5,6.79,10.82,12,0-1.17,6,5.88,7.19,6.12l-2.16-2.25,5,4.33c3.85,4.79-4.31-3.34,1.94,3.56,6,6.13,6.46,5.37,11.27,10.09a77.15,77.15,0,0,1-9.83-8.58l2.17,2.5c-1.43-1-6.72-6.4-9.35-9.08,4.78,4-1.94-2.18-3.63-4.48-.69,0,2.18,2.73-1.42-.34,3.13,3.12,3.61,3.55,7.45,7.64-8.42-8.73-8.85-6.57-16.06-14.33,3.6,3.3-.73-1.68-1-2.26-1.66-1.58-5-4.79-6.47-6.07l.75,1.71c-4.57-4.16-5.07-6.68-10.6-11.22-.94-.37,4.33,4.52,3.37,3.67-7.18-6.59-8.9-9.83-14.65-16.31-.49-.2-.72.17-3.11-1.71,1,.38-.48-1.35,2.14.85a81.53,81.53,0,0,0-6.47-6.07c4.08,4.43-2.16-1.33-3.11-1.94-2.16-2.25,1,.39,2.4,1.66-1.7-1.85-3.38-4.37-4.81-4.95.23-.37,5.74,4.16,9.1,7.36l-2.17-2.26a35.37,35.37,0,0,1,4.07,3.94c-1.92-2.38-1.45-2.43-.73-2.14.24.32-.23-.09,0,.22,1.69,1.85,3.13,3.12,2.88,2.55,2,1.19-2.2-2.7-3.2-4.1L156.12,118l-10.48-7.88a91,91,0,0,1-8.28-9l-1.16-.46c-3.37-3.45-6.49-6.78-3.86-5,0,.24.49.66,1.21,1.42a2.54,2.54,0,0,1,.6.38,1.46,1.46,0,0,0,.23.1c-3.78-3.53-6.14-5.74-6.35-6,6.71,5.71.94-.32,2.59.11l-3.23-3-1.19-1.11-.55-.52-.71-.8c-.07-.08-.13-.16-.2-.23a1.13,1.13,0,0,1-.14-.19c0-.08-.1-.16-.16-.24-.2-.31-.37-.6-.5-.84a5,5,0,0,1-.36-.74,12,12,0,0,0,.88,1.76l.2.3.1.14.17.25.25.38,0,0h0l.29.32h0v0l0,.06a.24.24,0,0,1,.06.09c.07.1,0,.12,0,.08a.77.77,0,0,1-.15-.1l0,0h0l-.3-.33h0l0,0a1.14,1.14,0,0,0-.11-.11l-.57-.6a14.24,14.24,0,0,1-1.18-2c-.22-.6-.43-1.23-.58-1.82s-.16-1.15-.2-1.61a6.3,6.3,0,0,0,.19-.87,9.67,9.67,0,0,1,.36-1.7c.1-.34.22-.7.35-1.07s.36-.75.57-1.13a5.9,5.9,0,0,1,.75-1.14l.46-.56.24-.28,0,0,.35-.32,0,0,.07-.07.61-.52a11.89,11.89,0,0,1,1.6-1l.43-.21.37-.13.74-.24a6.63,6.63,0,0,1,1.51-.3,9.6,9.6,0,0,1,2.9.11,9.07,9.07,0,0,1,2.36.84l-.44-.1a9.09,9.09,0,0,1,1.86,1.19c.3.25.63.53.91.79s.31.33.47.5l2.1,2.12c1.47,1.46,3,3,4.34,4.18,0-.23,3.83,2.46,5.73,3.68-4.22-4.48-1.5-2-1.63-2.6A11,11,0,0,0,151,83.22c.72.53-.71-1-.72-1.21-2.4-2.23-4.8-4.53-6.9-6.45-1-1-2-1.81-2.88-2.52l-.76-.62c-.45-.36-.89-.67-1.31-1a11,11,0,0,0-2.42-1.06A16,16,0,0,1,138.69,72c.37.29.8.64,1.09.89l.51.43a13.94,13.94,0,0,1,2.13,2c-.65-.5-1.33-1.05-2-1.67l-.53-.48-.32-.29-.61-.52a11.51,11.51,0,0,0-2.85-1.7,11,11,0,0,0-7.16-.31c-.31.09-.62.2-.93.3s-.76.36-1.13.57-.75.44-1.1.68a.82.82,0,0,0-.16.12l-.1.08-.18.15-.38.3,0,0,0,0-.44.4,0,0-.17.2-.35.4a9.23,9.23,0,0,0-1.23,1.76l-.33.51a6.13,6.13,0,0,0-.64,1.18c-.2.45-.38.91-.5,1.27A2.92,2.92,0,0,0,121,79s0,.19,0,.52a10.75,10.75,0,0,0,0,1.38,17.21,17.21,0,0,0,.25,1.92,15.51,15.51,0,0,0,.71,2.16c.21.43.44.86.69,1.27l.39.59.2.28a.42.42,0,0,0,.1.13c.22.24.41.47.59.66l.43.48,0,0,.07.06.12.11.2.19.17.16a6.48,6.48,0,0,0-.56-.44l-.06,0,0,0h0l-.41-.45h0l-.1-.08-.18-.14-.34-.24-.18-.13c-.07-.07-.25-.3-.39-.47a11.68,11.68,0,0,1-.95-1.48l-.26-.49c-.06-.15-.11-.29-.18-.45-.12-.31-.24-.67-.36-1.06a11,11,0,0,1,.37-7.15,8,8,0,0,0-.88,2.8,10.05,10.05,0,0,0-.06,2.48c0,.46.1.93.19,1.41s.27,1,.43,1.47a12.17,12.17,0,0,0,1.81,3.29l.47.55.57.63.13.13.27.25c.7.67,1.39,1.35,2,2l1.66.89c-.71-.28,4.57,5.09.5,1.6l-3.24-2.92-1.18-1.07-.28-.26-.14-.12-.06-.06,0,0h0l-.49-.55,0,0-.44-.49-.2-.22s-.14-.19-.21-.28l-.23-.34c-.3-.44-.54-.85-.73-1.19a8.18,8.18,0,0,1-.51-1,7.76,7.76,0,0,0,.45,1.1c.16.34.36.73.59,1.13s.36.59.54.9l.43.72.53.59h0v0l0,0,0,.06.07.1.06.09-.22-.22,0,0-.55-.61-.06-.07a1,1,0,0,1-.12-.15l-.31-.36-.08-.1,0-.05-.09-.11c-.18-.25-.36-.52-.54-.8a16.8,16.8,0,0,1-1-1.84,16.79,16.79,0,0,1-.55-1.65c-.07-.28-.15-.56-.22-.84s-.09-.58-.13-.87a13,13,0,0,1,.78-6.36,18.53,18.53,0,0,1,1-1.92,3.5,3.5,0,0,1,.44-.68l-.11.16a3.23,3.23,0,0,0-.24.44c-.19.37-.43.88-.64,1.39a7.71,7.71,0,0,0-.47,1.44l-.16.67c.12-.45.26-.88.4-1.3s.35-.79.53-1.17.39-.73.59-1.07a9.7,9.7,0,0,1,.68-.93q.35-.43.69-.84l.17-.19.09-.1,0,0h0l.58-.52,0,0,.15-.13.57-.47A12.18,12.18,0,0,1,130,68.25a9.9,9.9,0,0,1,3,0,8.45,8.45,0,0,1,1.77.44c.5.2,1,.4,1.67.69A17.68,17.68,0,0,1,139,70.93c.25.2.52.41.8.65l.44.38.22.21.11.1.88.86c.68.65,1.54,1.44,2.65,2.44,3.1,2.16,6,5,11,10.22-3.83-3.63-.71-.06-2.38-1.19a48.36,48.36,0,0,0,7.43,6.69c.73,1.22,1.22,2.11-2.15-1.33-.94.09,4.56,4.39,4.34,5.23,11.28,11.25,10.74,7.31,23.25,21.14l-.71-.28c8.63,8.09,13.2,13.17,21.11,20.75l5.55,6.64c-1.45-1.28-5.52-4.54-4.07-2.57-2.42-3.51-5.76-6.47-8.66-10-.46-.18.73,1.22,1.21,1.88-1.92-1.93-2.64-3.15-5.28-5.6,0,.24,2.65,3.15.49,1.13l-3.13-3.81c-4.8-4.47-3.09-1.47-8.38-7.07a32.15,32.15,0,0,1,6,4.38c-2.42-2.56,3.5,3.13,1.41.68-4-3.14-5.41-5.22-10.46-9.71a16.58,16.58,0,0,1,2.06,1.71L176,107.39c1.45,2-6-5.42-5.75-4.39,7.21,7.53,5.28,5.13,13.46,13.75a57.82,57.82,0,0,0-7.73-6,4.66,4.66,0,0,0-.42-.49c-1.67-.89-.46.52-1.16,1.17,4.31,3.35,6.48,6.31,11.27,10.55,1.22.48-2.15-3.09-4.49-5.24l4.23,3.73-1-.61,10,10.23a25,25,0,0,0-4-3.17c1.29,1.32,2.48,2.71,3.75,4.19.06-.64.49-.71,1.76.57,6.42,6.59,9.72,10.52,11.72,13.32.25.25.54.52.78.74-.73-1.45,5.27,4,7.65,5.61-.47.28,3.13,3.58,4.81,5.64,1.43.57.69-1.35-1.24-4-4.79-4-2.86-2.07-5.5-3.59l-7.42-6.69,1.92,1.24c-3.37-3.67-7.21-6.61-6.5-6.79,2.15,1.56,5,4.81,7.19,6.36L207.24,141c4.55,3.67,1.69,2.53,7,7.2-1.46-2.21.47.42,2.86,2.3-1.45-2-8.87-8.65-6.73-7.8,2.87,2.31,7.95,9.46,12,12.24l-.24-.09a67.35,67.35,0,0,0,9.23,8.2c1.94,2.36,5.2,5,7.55,7.34l-.24.13,3.36,3.21c-1.9-1.23-3.84-3.86-6.71-6.64v.7c-2.84-3.67-5.63-5.21-8.46-7.43,4,3.37,10.29,10.45,11.83,10.64l1.92,2.62,1.22,1c1.43,2-.71.64-4.08-2.57-.48-.65-.72-1-.47-.88a56.11,56.11,0,0,1-7-6.27l2.15,1.79c-4.56-4.62-8.87-8.66-10.78-9.89,6.48,6.77,13,13.32,19.2,19.53,2.62,1.05,5.24,2.79,6.91,3,4.31,4,10.07,9.61,13.43,13.51l-.47-.19a66.88,66.88,0,0,0,4.8,4.71c1.68,2.06-1.66-.9-.46.51l6.22,5.74c-.69,0-5.73-5.07-8.14-7.44.48.42,1.44,1.28,1.19.94-2.64-2.91-8.38-7.53-9.12-9.22-1.44-1.27,3.1,2.4-1.46-2.21-2.89-3.25-4.32-3.83-4.78-4-.24.13,4.56,5.07,2.65,3.61a89.62,89.62,0,0,1,6.48,6.31c-2.39-2.35-6-5.18-7-6.74-5-4.33-5.23-2.78-3.07-.53-.25-.8,8.88,8.21,3.09,1.71,3.12,2.41,8.16,7.44,12,10.83l-.24-.09,4.57,4.39c-.73-.53-2.17-1.8-2.39-1.66l6.7,5.7c-3.83-3.15,1.93,2.4,3.37,4.14.95.38,3.59,2.59,1.43.1-2.41-2.82-1.68-1.36-4.08-3.72l3.82,2.92.24.33,2.4,1.66c4.56,4.61-2.86-1.15,3.37,4.36l-.26-1.26c6.73,6.87,14.9,16.17,19.94,20.75-1.62-1-2.66-1.17-1.11.93-2-2.16-6.17-6.31-9.19-9.23-.48-.66,4.31,3.12,7.43,6.46-.74-2.39-8.62-7.63-8.16-8.84-7.94-8.52-6.94-5.34-13.44-12.81-.47.27-2.17-1.8-2.86-1.84,1.46,2.67,9.35,9.31,13.67,14.06a14.84,14.84,0,0,0-1.66-1.36,83.75,83.75,0,0,0,6.95,6.73l-.24-.33c4.32,3.59,2.17,2.72,4.33,5.21,1,.85,4.09,4.19,3.84,3.4l3.86,4.57.22-.62c2.4,2.35,2.64,3.15,5.05,5.05l.47-.27-5.77-6c3.11,2.87,1.19.48,4.56,3.69-2-1.63-1.45-.93-.34.27.56.6,1.24,1.32,1.79,1.94.27.3.51.59.68.81a2,2,0,0,1,.2.31.77.77,0,0,1,.15.28l2,1.93,1.37,1.36a4.39,4.39,0,0,1,.5.68l-.41-.55-.54-.5c.16.21.33.4.47.6l.31.58a6.39,6.39,0,0,1,.53,1c.15.34.28.65.41,1s.18.63.28.95a9.21,9.21,0,0,1,.38,2.14c0,.42,0,.87-.08,1.36s-.23,1-.36,1.62a10.27,10.27,0,0,0-.29-7.76,13.67,13.67,0,0,0-2.64-3.41c-.53-.56-1.15-1.24-1.68-1.78-.39-.35-.81-.72-1.26-1.1l1.09.93a3.58,3.58,0,0,1,.33.3l.48.48q.48.51,1,1l2.1,2.16a9.65,9.65,0,0,1,1.4,2.53,11,11,0,0,1,.69,5.18,16.14,16.14,0,0,1-.44,2c-.21.54-.34,1-.5,1.31a12.81,12.81,0,0,1-2.56,3.43c-.89,1-2,2.19-2.41,2.49-1.12,1-2.24,2-3.45,3.13,2.21-2.36,1.53-2.24,1.47-2.64,0-.2.1-.54.82-1.37l2.07-2.3,1.84-2c.3-.4.53-.84.83-1.3a16.33,16.33,0,0,0,.65-1.61,5.6,5.6,0,0,1-1,2.32,5.63,5.63,0,0,0,1.4-2.7,8,8,0,0,0,0-4.39,10.08,10.08,0,0,0-.86-2.23,7.84,7.84,0,0,0-1.46-1.84L312,247c.22.54-.43,0-.47.12-.15,0,.34.62,2.7,3.32-.35-.47-.22-.45.25-.06a5.19,5.19,0,0,1,.41.35l.41.54a8,8,0,0,1,.48.68c.12.27.26.56.41.86a8.62,8.62,0,0,1,.61,4.64,8,8,0,0,1-2.42,4.66l.05-.64a2.56,2.56,0,0,0,0-.63,11.47,11.47,0,0,1-1,1.12l-2.28,2.4-2.47,2.4.43-.48c-2.21,1.45-5.13,5.27-8.71,8.41-2.21,2.63-11.68,11.76-7.06,8.37-3.38,2.65-5.56,5.76-8.77,9.13l4.34-3.86c-4.43,5.27-3.3,3.6-6.51,8.14-.56.24-1.55,1-.93,0-6.54,6.48-16,15.61-19.34,19.91-4.62,4.56-6,4.59-12.2,11.3-1.27,1.44,1.61-.51-2.82,3.59-.33.24,3.67-4.54-1,.25-2.93,3.83-8.19,7.69-12.2,12.48-2.49,2.16-6.45,6.25-6,5.06,3.76-3.6,8.89-8.88,9.51-9.84-.29.72,2.83-2.41.28.47,5.83-5.29,3.39-3.83,8.56-8.64.2-.48-3,2.17-3.9,3.37-.51-.47,9.6-10.07,4.58-6.22-5.37,5.28-5.94,7.88-11.07,12,1.56-2.15,4.7-4.79,6.54-7.66l-4,3.6-2.4,3.11L236,339c-7.15,6.26-5.7,6.71-11.45,12.95,3.81-3.14,0,1.65,2.86-.76-4,4.07-7,7-7.47,6.49,7.1-7.9-.09-.94,6.36-8.36-1.31,1,.94-2.37-3.25,1.71-4.31,5,1.8-1-2.69,3.82-.31.23-.64.48-.55.24-1.89,2.39-2.59,2.4-4.89,5.27l.51-.71c-3.48,2.89-3.15,3.82-6.22,6.24,1.46-.73-1.54,2.14-3,4.07,2.92-2.65,4.95-3.63,10.4-9.15.38-1-.18-.71,1.94-3.1l-3.54,3.6c.73-.81,1.24-1.47,1.89-2.24l3.57-3.27c-4.14,4.55-1.84,2.86-3.39,5-4.1,3.85-3.2,3.36-5.79,5.77-.17-.67-8.39,6.95-13.23,11.26l2.14-2.11c3.06-3.59-2.64,1.94-2.88,1.95l-2.21,2.63c.42-.49,1-1.22-.14-.24-3.2,3.36-2.59,3.58-5.79,6.94-.48,0,1.94-3.11-.21-1.19-.91.5-3.68,2.2-7.83,6.75a28,28,0,0,1-2.57,2.92c.17-.19.39-.43.46-.52l-3.15,2.63c2.07-2.85,5.17-4.79,7.25-7.66l-.16-.59a65.94,65.94,0,0,0,5.38-6.1c-3,2.87-3.52,3.59-6.72,7-.7.22,1.44-2.27,1.74-2.62l-.27.7c4.22-3.61,5.49-6.22,10.44-11,.75-.72.33-.25.24,0,3.58-4.31,7.95-7.69,11.31-12L204,366.73c2.44-2.79,7.19-8.26,11.94-13.71l-.1-.19c-.66.48,1.26-1.43,2.35-2.4h0c2.39-2.73,4.69-5.35,6.56-7.5a29.65,29.65,0,0,0-2.59,2.23c-.63,1-5.46,5.52-4.43,5.26-2.4,1.94-5.56,5.77-7.3,7.21,3.15-2.65-1.65,2.39-1.94,3.11-1.22.73-4.28,4.31-4.23,3.6a19.39,19.39,0,0,0,2.68-2.63c2.73-3.35-5.83,5.28-2.34,1.21-4.58,5-11,11.28-15.68,16.55l2.91-2.64c-2.25,2.15-7.4,7.45-8,7.68,1.6-1.68,3.52-3.59,5.55-5.75-.27-.48-5,5-5.5,5l-5.47,6.71,2.69-2.65c-1.46,1.91-7.31,7.21-11.5,11.3,1.87-2.89,6.23-6.25,10.37-10.81,3-3.35-2.44,1.46.43-1.65a25.81,25.81,0,0,0-3.67,3.71l-1.27,1.09c2.2-3.13,8.29-9,11.87-13.39a5.73,5.73,0,0,0-.61.92c3.25-2.89,6.35-6,9.22-9.12a22.19,22.19,0,0,0-3.11,3.12c-.22,0,2.55-2.87,3.49-4.07-2.92,2.65-.79.25-2.63,1.93,1.7-1.92,3.2-3.36,5.46-5.51,1.31-1-.71,1.18-.25,1.18,2.14-2.41,3.73-2.9,6.79-6.49-4.52,4.33.66-1.66,2-3.34l-.76.72a11.83,11.83,0,0,1,3.53-3.59c-1.7,1.92-3.53,3.59-2.74,3.35,1.19-1.21,2.37-2.41,3.64-3.85l-1,1.43,5.89-6a39.91,39.91,0,0,0,2.4-4.27,36.19,36.19,0,0,0,4.71-4.81l-.53.73c2.83-2.42,8.49-8.43,8.77-9.13,2.06-1.68-11.88,14.6,1.16,1.16,5-5,2.45-3.81,5.09-6.92,0,0-.09.23.24,0,2.25-2.16,2.21-2.64,3.91-4.56a35.54,35.54,0,0,0-3.86,3.84c.38-.94,4.61-4.56,6.08-6.47-1.75,2.63,4.42-4.09,3-2.16a87.94,87.94,0,0,0,11-11.76c3.53-2.42,5.14-5.28,10.22-9.85-.76.73-2,2.15-3.12,3.13-2.39,3.1,5.19-4.81,1.28-.26.85-1-.13-.25-1,.73-1.58,1.66-3,3.35-2.39,3.1l4.24-3.62-1.29,1.45,6.4-5.53c.09-.24-.56.24-.89.48,7.11-6.73,14.78-14.88,20.9-20.89.08-1.06,3.7-4.9,7.84-9.16l3.16-3.23,1.56-1.61.59-.62.34-.37a3.15,3.15,0,0,0,.94-1.47,1.67,1.67,0,0,0-.27-1.33,9.59,9.59,0,0,0,.94.86c.29.19.57.22.77-.11a3.14,3.14,0,0,1-.4,1.92,9.84,9.84,0,0,1-.87,1.13c-.18.2-.35.39-.56.6s-.6.61-.92.91c-.56.24-3.8,3.12-2,1-6.73,7,1.36-.5-.29,1.89,1.82-1.87,3.74-3.9,4.47-4.77a3.22,3.22,0,0,0,.87-3.59c-.44-1.16-1.56-1.73-2.3-2.37l-.15-.11-.19-.16-.48-.42-1-.83-1.89-1.68v-.24l-3.83-3.4c2.88,3,2.18,3.44-1.43-.57l.49.44c-1.94-2.41-6.74-6.65-10.09-10.08l-2.63-2c-3.36-3.43-2.9-4.18-3.65-5.65-5.28-5.37-8.85-8-12.93-11.44-1.44-2-9.36-10-4.81-6.1-5-4.57-5.48-2.2-12.94-11.22l2.39,1.89c-7.93-7.83-19.67-18.56-23-22.46,3.82,2-8.91-10.76-9.42-13.06.18.6-2.84-2.3-3.38-2.62a13.4,13.4,0,0,0-2.86-2.89c2.9,3.25-3.08-1.24,3.15,4.28-3.58-2.36-7.89-5.71-14.37-12.25l.47-.28,5,5.27c-.25-.8,2.38,1.87,3.6,2.83-9.38-9.79,2.12.38-7.72-9.36-1.19-.71-.48-.2-3.12-2.65,1.21,1.19,1.68,1.15-.24-.79l-2.15-1.55c-2.8-4.05,6.06,5.25,3.58,1.9,4.08,3.49,10.79,9.89,10,8.19-6-6.35-6.45-4.67-12.69-11.34l-.49-.89a29.66,29.66,0,0,0-4.54-3.22c0-.23-.49-.89-1.92-2.39-4.31-3.35-7-5.81-11-8.82,9.82,9,7.69,8.41,17.76,17.79-1.67-1.37-8.63-8.1-9.57-8l.47-.28c-3.36-3-6.71-5.94-10.56-10l2.64,2.21c-5.53-5-8.19-9.31-13-12.84,1.43,1.5,2.64,2.68,3.6,3.53-2.88-2.55-6.24-6-9.12-9l-6.71-5.47c.24-.14-3.61-4-1.45-2.44-4.1-4.67-6.72-6.18-9.35-8.62-4.09-4.89,4.07,3.71,5,3.64a219.62,219.62,0,0,0-16.56-15.92c1.19,1.34,1.73,2,1.58,2a52.5,52.5,0,0,0-4-4.16l-1.2-.71-.05-.06h0l.13-.13h0l0,0s0,0,0-.07,0,0,0,0,0,0,0,0a.35.35,0,0,1,.07-.15s.06-.07.08-.07h.08s0-.06.08,0-.05-.06-.05,0h0s0,0,0,0-.05,0-.1,0-.12.12-.14.12,0,.05,0,.05h0l.15-.05.13-.1.05-.06s.06-.08,0,0l-.5.41-.25.2h0l.36-.33h0l-.06,0s-.07,0-.13,0,0,0,0-.09,0,0,0-.09h0l-.34.31h0l.1-.09.2-.18.4-.35,0,0,0,0,0,0a.3.3,0,0,1-.08.08.32.32,0,0,1-.17.06.41.41,0,0,1,.39,0s.07,0,.08.06l0,0s.05,0,.11.1l.17.17,1.26,1.26c.8.78,1.48,1.43,2,1.88-1-1-1.89-1.81-2.66-2.59-.2-.2-.38-.39-.57-.57l-.26-.28s0,0-.06,0,0-.06,0-.08a.06.06,0,0,1-.06,0s0,0-.07,0,0-.07-.07-.07-.11-.09-.17-.07l-.11-.06h-.09c-.16,0,.05-.06.05-.2V79.6s-.07,0-.11.06l-.25.18-.25.17-.12.09-.07,0,0,0h0l.3-.27h0l-.11.08a.2.2,0,0,0-.12.1.86.86,0,0,0-.27.63c0,.12,0,.33,0,.38a.07.07,0,0,0,0,0h-.07s0,.06.06.08l.31.38.16.2.08.1,0,0-.24-.27h0l.05,0c1,1,2.09,2,3.38,3.27,0,.23-1.91-1.23,0,.7,4.56,4.37,1.67.66,3.33,1.79-1.79-1.64-3.05-2.9-4.08-4-.51-.57-1-1.1-1.39-1.64l-.63-.82h0c.14.16-.32-.35.31.35h0v0l0,0,0-.06L132,81l-.14-.22a4,4,0,0,1-.24-.44l.49.39.19.16.09.07h0L132,80.6h0l0,0,.17.11c0,.24,2.19,2.41,2.73,3.14l1,.16c-.7.18,2.42,4,5.3,6.53-2.43-3.07-1.7-2.31-1.94-3.56,4.3,3.34,3.84,4.78,8.62,8.55-.46-.18-4.3-3.81-1.18-.47,2.65,2.69,2.64,2,4.54,3.67-2.39-1.65-2.14-.85-4.77-2.6-4.79-4.71-1.91-1.92-6.71-6.4L143.41,94c-4.08-4-3.34-2.51-3.82-2.7,6.5,7.25,5.74,4.62,10.07,9.14,2.38,1.88-4.09-4.2-.49-1.13,4.08,4.19,1.18.7,6,5.18l-.94-.6c1.19,1.64,2.87,2.77,4.55,4.37,1.91,1.69-.76-3.33,6.68,4.07-.46-.26-.66-.33-.7-.29l-10.35-4.13c7.53,7.51,16.11,16.26,24.61,25.18,1.44,2.66-6.72-5.72-6.46-4.91l-3.85-4.1c.48,0,8.41,8.25,5.27,4.2-7.2-6.82-10.08-10.3-17.27-16.43,1.46,2.68,8.88,8.66,12.73,13.46-1.77-1.86-3.38-3.33-4.95-4.73l12.78,13.3,1.19.89c-3.05-3.19-5.16-5.4-5.41-5.7,4.08,4.19,7.9,7.34,8.62,7.17l-.72-.75,1.63,1.35C183.51,137.86,184.45,138.85,185.38,139.85Zm-36.93,269a3.74,3.74,0,0,0,.44-.75C148.8,408.34,149,408.22,148.45,408.88ZM150,89.78l-8.14-8.39-4-4.15-1-1a7.59,7.59,0,0,0-.62-.57,5.54,5.54,0,0,0-.74-.56,6.85,6.85,0,0,0-3.52-1,6.54,6.54,0,0,1,3,1,5.36,5.36,0,0,1,1.16.94,8.82,8.82,0,0,1,.82.92l2.62,3.21A39.32,39.32,0,0,1,142.47,84c.3.58-.17.33-1.7-1.06-.77-.69-1.81-1.68-3.15-3l-2.25-2.21a6,6,0,0,0-.63-.54l-.32-.26-.37-.2-.38-.2-.42-.12c-.15,0-.29-.1-.44-.13l-.46,0a4.92,4.92,0,0,0-1.27.17,4.48,4.48,0,0,1,2.17.18,4.68,4.68,0,0,1,1.14.57l.51.43c.18.16.38.38.58.57,1.57,1.59,3.33,3.32,5.05,5,1.53,1.22,4.78,3.74,7.66,6L152,92a11.19,11.19,0,0,0,1.61,1.13c-.73-1.22-2.41-2.36-4.1-4.2Zm2.45,5.39c3,3.22,2.51,2.31,3.17,2.62-1.13-1.07-2.25-2.15-3.35-3.21C152.6,95,152.74,95.3,152.41,95.17Zm3.16,2.26a11.12,11.12,0,0,1-.78-.84Zm2.32,16.3-.33-.31,2.21,2.29C159.5,115.39,159,114.79,157.89,113.73ZM152,107l-1.06-.42,2.07,2.15A3.86,3.86,0,0,0,152,107ZM132.66,85.53A12.48,12.48,0,0,1,131,84.34l-1-.84-.26-.22-.13-.11-.06,0h0l.1.11h0l0,0-.48-.49a1.34,1.34,0,0,1-.29-.39c-.07-.1-.16-.19-.23-.31-.1-.28-.28-.52-.34-.77a3.82,3.82,0,0,0-.22-.61.56.56,0,0,0-.17-.33c-.06-.17-.15,0-.21.41,0,.2,0,.44,0,.72s.14.58.2.89c.07.16.16.3.23.46a2.15,2.15,0,0,0,.28.47l.39.49.1.12.08.08.22.23L131,86c.11,0,.43.17.91.54-1.21-1.32-1.95-2.28-1.16-2,2.66,3.86,3.34,2.5,6.71,6.17C138.89,91.51,133.85,86.47,132.66,85.53ZM234.74,335.18c-.14.06-.58.31-1.19.67l2.26-2.7c4.52-4.33,8.71-7.23,12.14-11.77a25.83,25.83,0,0,1,4.49-3.14c-.93.89-1.81,1.72-2.56,2.4C239.52,332.61,243.21,325.61,234.74,335.18Zm51.66-50.09a2.89,2.89,0,0,0-.52.73c9.07-10.71,17-19.08,22.33-24.38-1.35.71-6.39,5.24-8.79,7.37l1.64-2.38,1.55-1,3.16-3.83c-1.23.73-4,3.6-6.07,5.29-.1.24-5.7,6.71-7.16,8.62l5.07-4.57c-1.4,1.2-7.72,7.69-10.16,10.32.14.23,4.8-3.86,4.94-4.81.8-.25-4.24,4.8-.76,1.91A172.23,172.23,0,0,1,279,290.89H278c-3.24,2.88-1.51,2.62-5.41,6,4.38-4.56-1.26.25,2.26-3.34-1.31,1-.51-.47-4,3.13-2.35,3.58-4.14,3.37-6.4,6.71-2.06,1.69,1.65-2.38-2.12,1.23-3.91,4.54-3.43,4.53-3.25,5.24,4.08-3.83,3.86-5,7.2-8.15l-5.66,7.19a28.8,28.8,0,0,0,2.88-2.71,38.17,38.17,0,0,0-3,3.64l-1.25,1.71c3.64-3.64,6.89-6.86,7.65-7.25l-.29.72a24.72,24.72,0,0,0,4.25-4.47c3.24-3.29,6.2-6.85,7.19-7.28l-1,1.43C280.93,290.62,281.35,290.14,286.4,285.09ZM211,150.51c1.64,3.22,3.62,6.6,15.1,17.81l-1-.84c5.23,6.21,11.81,10.49,18.21,18a67.86,67.86,0,0,0-7.87-6l3.84,3.4c-1.43-.58,2.41,2.81,5,5.49l-2.85-1.83a57.32,57.32,0,0,0-5.53-5.69c1,.84-4.81-6.11-8.42-9.42,0,.71,7.45,7.86,3.63,5.17,3.11,2.64,3.12,3.34,6.24,6.22-3.11-2.64-1.18-.24-3.58-2.13l5,4.8c0,.25-7.42-6.91-3.81-2.45,2.15,1.79,7.19,7.29,7.66,7v.23c3.61,3.77,2.15,1.1,6.47,5.84.24-.13-.49-1.13-2.15-2.71a53.32,53.32,0,0,1-4.8-4c-1-1.56,3.37,3.45,1.9,1-.73-1.22-7.67-7.25-5-5.73l3.6,3.76c.47-.28,3.12,2.41,3.34,2,2.39,2.11,4.1,4.66,6.72,6.63,1.2.72,0-1.4,3.59,2.6,2.42,3.53,11.3,12.18,14.66,15.39l3.11,2.63c0-.47-5.52-5.46-3.38-3.91l4.57,4.39-.49-.2c1.45,1.52,3.13,2.88,4.56,4.15-1.66-1.12-4.78-4.46-4.53-3.43,2,2.18,2.2,2.64,4.21,4.5-.45-.39-.85-.72-.85-.61,4.09,4.43,4.55,3.68,5.74,4.62,4.78,3.77-3.85-4.78-2.9-4.64l12.71,12.29c-1.19-.95-2.39-1.89-2.15-1.33,2.89,3.24-.23.37,4.09,4.65.23-.83,5.75,5.09,9.1,7.82,1.2,1.64,1.45,2-1.66-1.12,0,.68,4.35,4.77,5.73,6.21.45.37,1,.9,1.65,1.44a7.65,7.65,0,0,1,.81.91,5.42,5.42,0,0,1,.53.95c-.15-.83-.22-1.08.14-.72a2.27,2.27,0,0,1,.31.41c.09.19.19.43.31.71a6.07,6.07,0,0,1,.22,1,5.79,5.79,0,0,1-.06,1.35l0,.24a5.68,5.68,0,0,0,.14-2.64,6,6,0,0,0-1.22-2.6c-.65-.75-1.37-1.5-2.07-2.26l-2-2.09a72.52,72.52,0,0,0-6.51-6.29l.95.61c-4.81-5.41-11.73-10.5-13.44-13.51.48,0-1-1.08-.5-1.37l-4.06-3.47,1,.62-6.48-6.32.24.1-8.17-6.49c-.17.16,0,.4-1.15-.49a33.75,33.75,0,0,1-2.55-2.4h0c-1.52-1.62-2.33-2.9-4.17-4.93l6,5.91c.76.21.54-.58-2.18-3.69,1.2,1.18,1.92,1.47.47,0-.23-.09-4.07-3.72-2.87-2.08-5.75-5.55-14.18-15.43-23.28-23.48,6.48,5.85-4.57-5.32,2.38,1.42-4.33-5.22-4.54-3.68-9.34-8.62-.26-.57,2.63,2.67,4.06,3.48-7.92-8.28-14.38-12.95-22.08-20.92v-.68Zm-15.93-15.06L190.35,131l.44.46-4.8-4.25c2.64,2.92,4.1,5.13,0,1.41.47.19-.5-1.12.94.15-2.4-2.82-7.93-8.75-7-6.73,5.51,4.52.51,1.83,4.82,5.4-2.46-1.77-4.4-4-6.55-5.87,2.36,1.8.16-1.12-2.83-4.38-1.44-1.28-5-5-7.44-7.16.49,1.12-1.66-.66,1.94,3.1a62.78,62.78,0,0,1-5.77-5.8c1,.88,2.65,2.46,2.65,2.23-1.22-1.8-3-3.56-3.85-4.66l-2.38-2.28a4.13,4.13,0,0,1,.45.68L158.17,101c3.6,3.3,1.45,1.74,1.22,1.89.47-.28-2.17-2.27-3.36-3.44l2.17,3c-1.44-1-4.09-4.66-3.84-3.62,5.29,5.59,7.44,7.61,12.48,12.41l-1.69-2.3c5.76,5.33,2.89,4,9.13,10.16,2.87,2.3,9.38,9.34,10.07,8.91-.95-.61,3.38,4.37,5.77,6.25,2.86,1.84,10.06,8.91,8.14,6.51-1.92-1.93-4.8-4.24-6-6.12l3.84,3.63-2.17-2.73C195.08,136.84,195.23,136.44,195.06,135.45Zm-56.69-33.92.14.15-.16-.17Z" transform="translate(-119.22 -68.16)"/><path class="cls-1" d="M180.59,391.66c-1,1.2-3.63,3.84-2.83,3.59C177.39,395,182.46,390.46,180.59,391.66Z" transform="translate(-119.22 -68.16)"/><path class="cls-1" d="M177.12,394.54c-.12.26.13.25-1.06,1.45l3.21-3.36Z" transform="translate(-119.22 -68.16)"/><path class="cls-1" d="M171.73,395.81a45.32,45.32,0,0,1-5.1,5.76c-1.73.26,4.15-4.56,4.67-6.45-4.94,4.8-5.79,6.94-9.74,11C163.85,404.45,172.14,396.52,171.73,395.81Z" transform="translate(-119.22 -68.16)"/><polygon class="cls-1" points="53.74 324.56 51.19 327.44 51.51 327.21 54.05 324.34 53.74 324.56"/><path class="cls-1" d="M238,340.45c.47,0,1.93-1.93,2.78-2.89A27.19,27.19,0,0,0,238,340.45Z" transform="translate(-119.22 -68.16)"/><path class="cls-1" d="M204.59,343.22,184.15,364.1Z" transform="translate(-119.22 -68.16)"/><path class="cls-1" d="M305.06,270.39c-5.33,5.76-7.39,8.62-12.95,14.37,7.9-7,9.1-10.54,15.81-16.3Z" transform="translate(-119.22 -68.16)"/><path class="cls-1" d="M304.94,274.17c-1.35.49,3.77-4.78,2.65-4.29-3.63,3.84-1.33,2.15-4.76,5.5Z" transform="translate(-119.22 -68.16)"/><polygon class="cls-1" points="153.43 224 154.88 222.09 153.61 223.53 153.43 224"/><polygon class="cls-1" points="186.2 170.91 186.91 171.43 184.26 168.51 186.2 170.91"/><path class="cls-1" d="M306.84,240.1l-.71-.51Z" transform="translate(-119.22 -68.16)"/><polygon class="cls-1" points="154.66 220.91 152.07 223.32 151.03 224.75 154.66 220.91"/><path class="cls-1" d="M298.27,269.33l-2.1,2.37C296.59,271.23,299.83,268.35,298.27,269.33Z" transform="translate(-119.22 -68.16)"/><polygon class="cls-1" points="169.39 153.74 166.51 151.19 166.74 151.51 169.62 154.06 169.39 153.74"/><path class="cls-1" d="M306.86,253.65c.2.53-.43-.05-.91-.5l-.5-.47a3.44,3.44,0,0,0-.36-.31c-.06,0,0,0,.08.18l.26.34.2.24.13.18C307.18,254.63,306.89,254,306.86,253.65Z" transform="translate(-119.22 -68.16)"/><path class="cls-1" d="M277,219.24a15.11,15.11,0,0,0-1.17-1.08Z" transform="translate(-119.22 -68.16)"/><path class="cls-1" d="M277,219.24c1.19,1.19,2.25,2.5,3.15,3.21A21.9,21.9,0,0,0,277,219.24Z" transform="translate(-119.22 -68.16)"/><path class="cls-1" d="M263.31,205.74l1.05,1.1c-1.26-.94-.72-.44.39.41,1.15,1.13,1.2,1,1.4,1l.83.57-1.05-.81C264.17,206.26,263.07,205.2,263.31,205.74Z" transform="translate(-119.22 -68.16)"/><path class="cls-1" d="M218.48,149.7c3.84,4.09,4.81,5.18,4.33,5.22,3.69,3.85,3.55,2.82,5.92,5C224.42,155.7,223.67,154.71,218.48,149.7Z" transform="translate(-119.22 -68.16)"/><path class="cls-1" d="M228.73,159.91l1.51,1.47C229.63,160.75,229.16,160.3,228.73,159.91Z" transform="translate(-119.22 -68.16)"/><polygon class="cls-1" points="157.13 156.27 154.27 154.2 155.23 155.05 157.13 156.27"/><path class="cls-1" d="M212.72,143.68c.72.75,1.91,1.92,2.4,2.59C215.59,146.22,212,142.93,212.72,143.68Z" transform="translate(-119.22 -68.16)"/><path class="cls-1" d="M223,164.05c.25.56,2.88,3,3.85,4.1C225.36,166.63,224.63,165,223,164.05Z" transform="translate(-119.22 -68.16)"/><path class="cls-1" d="M200.27,133.36c.72.75,1.67,2.06,1,1.78C202.43,136.08,204.34,137.07,200.27,133.36Z" transform="translate(-119.22 -68.16)"/><polygon class="cls-1" points="96.53 88.59 97.01 89.24 99.89 91.79 96.53 88.59"/><path class="cls-1" d="M221.63,170.25c3.36,2.74-4.1-5.59,1.42-.59-6.47-7.11.08,1-4.87-4.1C221,168.6,222.05,170.42,221.63,170.25Z" transform="translate(-119.22 -68.16)"/><path class="cls-1" d="M218.18,165.56c-.41-.44-.87-.91-1.36-1.41Z" transform="translate(-119.22 -68.16)"/><path class="cls-1" d="M177.14,120.62c.47.41.81.68,1.13.92C177.89,121.22,177.53,120.92,177.14,120.62Z" transform="translate(-119.22 -68.16)"/><path class="cls-1" d="M201.93,149.83l5,4.11c-3.37-2.75-11-10.46-11-9.52a61.1,61.1,0,0,0,6.94,6.49Z" transform="translate(-119.22 -68.16)"/><path class="cls-1" d="M157.74,88.93l2.16,1.79-2.42-2.52C158.12,89,156.5,88,157.74,88.93Z" transform="translate(-119.22 -68.16)"/><path class="cls-1" d="M157,87.71l.47.49A4.67,4.67,0,0,0,157,87.71Z" transform="translate(-119.22 -68.16)"/><path class="cls-1" d="M186,129.06c1.45,1.51,2.64,2.68,4.07,3.95C189.62,132.36,186,128.59,186,129.06Z" transform="translate(-119.22 -68.16)"/><polygon class="cls-1" points="23.92 7.51 27.26 10.7 23.66 7.17 23.92 7.51"/><polygon class="cls-1" points="5.01 22.37 5.49 23.02 8.36 25.56 7.88 24.91 5.01 22.37"/><path class="cls-1" d="M139.55,88.64c2.16,2.26,4.31,3.58,3.81,2.91l-4.31-4.27c.73,1.45,1.21,1.18,3.6,3.76Z" transform="translate(-119.22 -68.16)"/><path class="cls-1" d="M238,202.93c-1.2-.72-5.75-5.55-5.77-6,.73.53,3.37,3,1.92,1.24L229.82,195c-4.57-5.31,4.54,3,7.19,5.2-5-5.11-6.84-6.21-12.19-11.57a36.73,36.73,0,0,1,3.08,3.75c-.23.6-5-4.58-8.64-8.11,2.09,2.45.63,1.29-1.19-.2a6.06,6.06,0,0,0-.7-.57l-.62-.5.43.42c-.08,0,0,.17.19.56,3.11,2.87,5,5.5,7,7.44-1.22-2.59,6.72,6.4,9.35,8.61l2.86,2.73,1,1c.13.29-.26.08-2-1.37,1.47,1.19,5.86,5.68,5.67,5.05l10.14,10.12a8.88,8.88,0,0,1,.75,1c.4.3.49.33.48.25L289.86,256l-.15.18L290,256a1.76,1.76,0,0,0-.25-.69c.56.11.46,0,.22-.3l-.08-.1-.21-.22c-.3-.32-.58-.61-.79-.87-.44-.5-.64-.81-.29-.67.42.34.87.74,1.33,1.16a4.09,4.09,0,0,0,.35.32l.18.18a2.48,2.48,0,0,1,.47.66.32.32,0,0,0,.37-.26c.05-.16.07-.37.29-.41a6.17,6.17,0,0,0-.62-.7c-.05-.06-.81-.77-1.26-1.17-1-.89-1.9-1.59-2.8-2.28a46.58,46.58,0,0,1-6.22-5.54c.47,0,2.38,1.41-1.22-2.12l1,.85c-6-5.41-3.86-5-8.16-7.91l.47-.28c-2.87-2.3-7.91-7.33-10.79-10.12l.24.1c-8.39-7.53-4.56-4.38-13.68-13.14l4.55,3.68c-2.9-3.26-4.07-3.48-6.23-5.75.23.09,0-.7,2.14,1.33l-11.5-10.18C234.62,199.26,237.74,202.37,238,202.93Z" transform="translate(-119.22 -68.16)"/><path class="cls-1" d="M224.82,188.65c-.56-.59-1.2-1.25-2-2Z" transform="translate(-119.22 -68.16)"/><path class="cls-1" d="M289.4,256.5l.31-.32A.8.8,0,0,0,289.4,256.5Z" transform="translate(-119.22 -68.16)"/><path class="cls-1" d="M208.46,173.93c1.69,2.07-1.67-1.14-2.15-1.33l6.74,6.73c.12-.17.95.33.94.07Z" transform="translate(-119.22 -68.16)"/><path class="cls-1" d="M214.73,181.55a13.32,13.32,0,0,1,2,1.47l-3.69-3.69C213,179.46,213.29,180,214.73,181.55Z" transform="translate(-119.22 -68.16)"/><polygon class="cls-1" points="102.47 105.01 103.67 106.19 105.58 107.89 102.47 105.01"/><path class="cls-1" d="M239.7,192.45a44,44,0,0,0-5-5C237.79,190.53,236.36,189.26,239.7,192.45Z" transform="translate(-119.22 -68.16)"/><polygon class="cls-1" points="118.96 118.11 122.09 120.99 121.85 120.66 118.96 118.11"/><path class="cls-1" d="M268.81,280l-1.44,1.49C268,280.84,268.47,280.39,268.81,280Z" transform="translate(-119.22 -68.16)"/><path class="cls-1" d="M291.53,256.59c-1,.72-1.06.57-1,.31s.42-.7.39-.9a.69.69,0,0,0-.67-.06l.09.06a4.76,4.76,0,0,1-.27.6l-.15-.14-.33.38-2.1,2.15c1.22-.73,2-1.45,2-1-6.44,6.24-2.31,1.69-7.28,6l-7.05,7.14.5-.65a7.63,7.63,0,0,0-1,1.14l-23.73,24c-4.14,4.56,2.87-1.93,0,1.65,5-5,12.8-12.25,12.71-13.19-.1.24-.29.71.79-.25l2.49-3.33-2.91,2.64c2.5-3.35,12.06-12.72,14-14.17-5.23,5.53-2,3.33-9.8,10.55.47-.2,2.07-1.35.46.41,4.31-4.46,8.5-8.6,12.68-12.82,2.1-2.11,4.19-4.24,6.3-6.44l1.59-1.66.8-.84.39-.41.11-.14C291,257.32,291.28,257,291.53,256.59Z" transform="translate(-119.22 -68.16)"/><path class="cls-1" d="M206.36,342.26l0-.12C206.25,342.32,206.22,342.39,206.36,342.26Z" transform="translate(-119.22 -68.16)"/><path class="cls-1" d="M209.37,339.37l3.78-4.78-6.64,6.71-.13.84a28.87,28.87,0,0,1,3.71-4Z" transform="translate(-119.22 -68.16)"/><path class="cls-1" d="M217.81,329.31c-3.3,3.6-2.69,3.83-.62,2.14-3,3.36-2.12,1.22-3.86,3.84.37.23,4.1-3.85,4.94-4.8Z" transform="translate(-119.22 -68.16)"/><polygon class="cls-1" points="124.24 235.94 123.44 237.08 125.88 234.74 124.24 235.94"/><path class="cls-1" d="M242.66,305.24l-2.41,2.33a2.2,2.2,0,0,0,1.05-.37Z" transform="translate(-119.22 -68.16)"/><path class="cls-1" d="M233.91,313.67c-1,1-2.17,2.05-3.53,3.39Z" transform="translate(-119.22 -68.16)"/><path class="cls-1" d="M236.72,311.06l-.13,0-2.68,2.58C234.91,312.73,235.82,311.9,236.72,311.06Z" transform="translate(-119.22 -68.16)"/><path class="cls-1" d="M240.25,307.57c-.68.09-1.44.23-4.78,3.74l1.12-.22Z" transform="translate(-119.22 -68.16)"/><polygon class="cls-1" points="140.35 140.38 143.23 142.92 142.98 142.59 140.11 140.04 140.35 140.38"/><path class="cls-1" d="M275,224.44c.72.62,1.28,1.07,1.79,1.48A15.39,15.39,0,0,0,275,224.44Z" transform="translate(-119.22 -68.16)"/><path class="cls-1" d="M288.57,234.07c2.89,3.48-4.79-4,1,2,.25.79-2.87-1.63-5.51-4.54.47,0,2.87,2.54,1.42.57-2.14-1.55-2.64-2.45-2.39-1.42-3.34-2.86-4-2.94-6.33-4.79,3.93,3.58,11.41,11.87,16.68,16.13,3.09,2.16,2.14-.07,2.82-.73C296,240.76,289.27,233.88,288.57,234.07Z" transform="translate(-119.22 -68.16)"/><path class="cls-1" d="M284.22,228.38a36.92,36.92,0,0,0-2.88-2.78C281.36,226.07,283,227.2,284.22,228.38Z" transform="translate(-119.22 -68.16)"/><path class="cls-1" d="M288.93,268.76c-.18.38-2.73,3.16-2,2.75l3.92-4.16A6.45,6.45,0,0,1,288.93,268.76Z" transform="translate(-119.22 -68.16)"/><path class="cls-1" d="M292.59,265.52l-1.73,1.83C291.32,266.91,291.85,266.35,292.59,265.52Z" transform="translate(-119.22 -68.16)"/><path class="cls-1" d="M288.68,268.89l.25-.13C289,268.68,288.94,268.67,288.68,268.89Z" transform="translate(-119.22 -68.16)"/><path class="cls-1" d="M223.92,323.32c-.13-.24-1.82,1.67-2.67,2.63C222,325.23,223.09,324.26,223.92,323.32Z" transform="translate(-119.22 -68.16)"/><path class="cls-1" d="M156.76,391.94,155,393.38A13.82,13.82,0,0,0,156.76,391.94Z" transform="translate(-119.22 -68.16)"/><path class="cls-1" d="M137.26,421.54a1.38,1.38,0,0,1-.23.42A1.28,1.28,0,0,0,137.26,421.54Z" transform="translate(-119.22 -68.16)"/><path class="cls-1" d="M137,422c-.94,1.24-4.54,4.36-5.51,5.8l.08-.22s-.52.6-1,1.19l-.39.44-.17.2-.07.12-.15.23a19.75,19.75,0,0,1,1.64-1.73l2.26-2.31A42,42,0,0,0,137,422Z" transform="translate(-119.22 -68.16)"/><path class="cls-1" d="M225,421.65c-1.59,1.67-3.24,2.88-2.72,2.16-3.06,3.6-3.44,3.36-3.35,4.31-1.89,2.39-4.52,4.32-2.3,1.68l-5.84,6.48,3.76-3.61c-.28.72-1.79,2.16-3.3,3.63l-.57.55-.14.14-.07.06-.3.28-.3.24-.3.24-.14.12a1.79,1.79,0,0,1-.27.18c-.4.26-.8.48-1.19.69a6.71,6.71,0,0,1-1,.39,7,7,0,0,1-.89.28c-.56.12-1,.22-1.38.33l.68-.06a6.42,6.42,0,0,0,1.76-.34,5.46,5.46,0,0,0,1.21-.47l.69-.39.35-.21.28-.19.65-.55.05,0,.29-.27.08-.08.15-.15.31-.32,3.32-3.35-.19.47a66.67,66.67,0,0,1,5.46-5.52c-.09.23.13.24-1,1.43,8.08-8,1.42-2.91,7.95-9.74C226.24,420.46,225.71,421,225,421.65Z" transform="translate(-119.22 -68.16)"/><path class="cls-1" d="M232.84,415.86l2.27-3.35,4.85-4.57c-.13-.24,3.15-3.82.67-1.66-.43.48-1.27,1.43-2,2.14.12-.93,6.06-6.46,4.27-5.49-3.62,3.84-4.28,4.32-6.25,6.94-3.45,3.38-6,5.77-7.77,7.22-1,1.08-.85,1.47-2.09,2.8l.86-.89.74.47a43.09,43.09,0,0,1,3.2-3.36l-4.81,6.22c2.34-1.22,7.43-7,9.83-8.9C233.41,415.61,238.49,411,232.84,415.86Z" transform="translate(-119.22 -68.16)"/><path class="cls-1" d="M226.78,419.89l-.13.14Z" transform="translate(-119.22 -68.16)"/><path class="cls-1" d="M264.32,144a5.81,5.81,0,0,0,1.92,1.46L253,132.26c.26.57,3.86,4.57,1.23,2.12a29.79,29.79,0,0,0,5.27,4.9l-1.2-.72c3.36,2.74,4.82,5.42,2.66,3.62l.26.26,9.62,7.23C267.83,146.51,268.06,147.7,264.32,144Z" transform="translate(-119.22 -68.16)"/><path class="cls-1" d="M213.17,418c1.66-1.76,1.81-2,1.56-1.9C214.16,416.71,213.63,417.34,213.17,418Z" transform="translate(-119.22 -68.16)"/><path class="cls-1" d="M273.1,151.36l3,2.27A34.82,34.82,0,0,0,273.1,151.36Z" transform="translate(-119.22 -68.16)"/><path class="cls-1" d="M249.15,138.75s-.07,0,0,.1l1.38,1,0,0Z" transform="translate(-119.22 -68.16)"/><path class="cls-1" d="M334.41,209.87l.89.84C335,210.39,334.69,210.12,334.41,209.87Z" transform="translate(-119.22 -68.16)"/><path class="cls-1" d="M211.25,105.11l6.23,5.51c-.95-.61,1.93,2.17.5,1.13.47.42,2.64,2.45,2.15,1.79l-1.21-1.19c3.59,2.61,1.91.54,7.42,5.3a32.08,32.08,0,0,0-6.47-6.07l-1.61-1.47-5.57-4.19Z" transform="translate(-119.22 -68.16)"/><path class="cls-1" d="M292.16,333.35l0-.11C292.14,333.32,292.14,333.34,292.16,333.35Z" transform="translate(-119.22 -68.16)"/><path class="cls-1" d="M292.28,332.83l-.1.41C292.42,332.85,293.55,331.57,292.28,332.83Z" transform="translate(-119.22 -68.16)"/><path class="cls-1" d="M271.81,150.71a3.56,3.56,0,0,1,1.29.65l-2.24-1.69Z" transform="translate(-119.22 -68.16)"/><path class="cls-1" d="M266.25,147.31l-5-4.88-2.08-1.56C261.15,142.66,263.43,144.81,266.25,147.31Z" transform="translate(-119.22 -68.16)"/><path class="cls-1" d="M326.89,201.76c10.32,10.17-3.1-1.93,1.47,2.92,2.91,2.77,4.19,3.5,6.05,5.19-8.36-7.89,2,.19-6.33-7.86,1.67.67,6.46,5.36,9.1,8.28,2.67,3.63-3.1-2.4-4.29-2.64,3.37,3.21,2.88,2.54,4.54,3.67,5.05,5.28,11.28,10.09,13.69,13.84,3.85,3.63,3.83,3.16,6.23,5.05.95-.09-5.28-5.83-6.26-7.62.24.33.71,1,.48.89l-3.13-3.34c2.89,3.25-.94.09-2.62-1.51-1.2-1.18-3.59-3.53-3.12-3.35l1.91,1.7c-2.16-2.49-5.5-4.75-7.68-7.48,0-.25,1,.63,1.19.69-3.1-2.39-5.73-5.07-10.05-8.89l2.87,1.85c-3.83-2.69-11-10.22-15.85-15.63.48.65,1.44,1.74.73,1.22-3.12-2.88-5-5.49-3.38-4.37-3.35-2.51-10.81-11.53-15.36-15l-21-15.77c.75.62,1.54,1.3,2.32,2,1.22,2.12,2.17,3-1.18.46,3.11,2.63,2.38,1.18,6.71,5.47-1.92-1.46-2.86-1.38,1.22,2.81,10.79,9.89,18.91,15.46,29.22,24.46,0,.7,7.68,8.19,11.29,11.95-1.78-1-4.62-3.66-7.53-6.42l7.07,7.17Z" transform="translate(-119.22 -68.16)"/><path class="cls-1" d="M301.73,178.93c.23.29.48.57.73.86A7.51,7.51,0,0,0,301.73,178.93Z" transform="translate(-119.22 -68.16)"/><path class="cls-1" d="M317.31,193.52c-.05,0,0,0-.07,0l.93.88Z" transform="translate(-119.22 -68.16)"/><path class="cls-1" d="M273.45,153.91c-.71-.51-1.19-.94-1.9-1.45l1.4,1.22C273.43,154.06,273.68,154.22,273.45,153.91Z" transform="translate(-119.22 -68.16)"/><path class="cls-1" d="M272,151.24l.47.18c-.25-.27-.42-.47-.65-.71C271.67,150.71,271.68,150.86,272,151.24Z" transform="translate(-119.22 -68.16)"/><path class="cls-1" d="M362.91,244l1,.91A6.4,6.4,0,0,0,362.91,244Z" transform="translate(-119.22 -68.16)"/><path class="cls-1" d="M337.71,213.76c-3.59-3.53-.94.09-6-4.95l1.45,1.52c-3.84-3.4-10.09-9.86-14.41-14.13.69.28-2.35-2.86-1.53-2.68a73.66,73.66,0,0,0-7.83-6.88c-1.71-1.92-4.77-4.4-7-6.85.79,1.17-3.94-2.64,1.92,2.76-.48-.43-.24-.1-.71-.53,3.35,3.9,5.27,4.9,8.4,8,1.67,2.05-3.37-2.75-1.68-.91,4.08,3.72,12,12.47,12.47,11.49a23.16,23.16,0,0,1,3.84,4.32c5.25,3.72,16.34,17,17.27,16-1.68-1.6-4.33-4.29-6.94-6.49Z" transform="translate(-119.22 -68.16)"/><path class="cls-1" d="M279.49,159.84l.68.71Z" transform="translate(-119.22 -68.16)"/><path class="cls-1" d="M237.37,112.06l2.12.85c8.64,8.33,11.53,11.58,19,19,.48.65-.48-.19-1-.62,5.29,5.14,12.95,13.08,17,16.58,1.66,1.66,5.81,6.22,4,4.76.87.75,1.84,1.62,2.75,2.57,0,.47-2.14-2-2.38-1.88.72.75,1,1.08,1.2,1.18-1.43-1,.51,2.06-5.25-3.73-1.7-2.77,4.06,3.95,3.34,2-1.92-1.92-1.92-1.47-2.16-1.56-2.43-2.46-2.21-2.54-1.95-2.55-1.12-.75-3.93-4.08-5.5-5.09-4.8-4.7.7-.18-2.41-3.28l-2.38-1.19-5-5.27c-7.67-7.25,0,2.11-8.83-6.08,1.43.8-1.47-3.14-5.31-7.24,2.4,2.36,7.18,6.36,10.07,9.6-3.86-4.79,6,5.89,4.3,3.11a84.17,84.17,0,0,1-8.63-8.32l1,.85c-2.9-3-5.76-4.63-9.6-8.94-2-2-1.49-1.8-1-1.58C238.89,113.61,237.24,112.2,237.37,112.06Zm4.53,4.29,2.66,2.77A24,24,0,0,0,241.9,116.35Z" transform="translate(-119.22 -68.16)"/><path class="cls-1" d="M270.67,377.87l-.87.77A10.74,10.74,0,0,0,270.67,377.87Z" transform="translate(-119.22 -68.16)"/><path class="cls-1" d="M267.07,130.06l1.55,1.59C268,131,267.52,130.51,267.07,130.06Z" transform="translate(-119.22 -68.16)"/><path class="cls-1" d="M304.28,163.32l2.43,2.15A29.66,29.66,0,0,0,304.28,163.32Z" transform="translate(-119.22 -68.16)"/><path class="cls-1" d="M289.43,359.19l.08-.07.33-.4Z" transform="translate(-119.22 -68.16)"/><path class="cls-1" d="M373.55,235.39c.3.4.65.84,1.15,1.41A7.14,7.14,0,0,0,373.55,235.39Z" transform="translate(-119.22 -68.16)"/><path class="cls-1" d="M303.83,162.92l.13.15.32.25Z" transform="translate(-119.22 -68.16)"/><path class="cls-1" d="M253.29,112.79l-1.06-.94C252.71,112.31,253,112.58,253.29,112.79Z" transform="translate(-119.22 -68.16)"/><path class="cls-1" d="M253.81,116.71c-.38-.35-.74-.68-1-.92Z" transform="translate(-119.22 -68.16)"/><path class="cls-1" d="M197.49,88.93l2.2,2C198.64,89.93,198,89.34,197.49,88.93Z" transform="translate(-119.22 -68.16)"/><path class="cls-1" d="M248.6,110.72l-.4-.25C248.51,110.75,248.68,110.85,248.6,110.72Z" transform="translate(-119.22 -68.16)"/><path class="cls-1" d="M255.46,389.51l.12-.13v-.12Z" transform="translate(-119.22 -68.16)"/><path class="cls-1" d="M251.19,395.53c-.59.62-1.2,1.27-1.81,1.9C250.07,396.75,250.73,396.06,251.19,395.53Z" transform="translate(-119.22 -68.16)"/><path class="cls-1" d="M374.48,273.75c-.65.47-2.06,1.68-1.55,1C372,275.92,372.36,276.15,374.48,273.75Z" transform="translate(-119.22 -68.16)"/><path class="cls-1" d="M262,375.46c-.26.42-.62.9-1,1.38C261.73,376,262.34,375.21,262,375.46Z" transform="translate(-119.22 -68.16)"/><path class="cls-1" d="M261,376.84l-1,1.28C260.39,377.68,260.73,377.25,261,376.84Z" transform="translate(-119.22 -68.16)"/><path class="cls-1" d="M381.05,256.14a.84.84,0,0,0,.11-.55C381,255.68,381.06,255.87,381.05,256.14Z" transform="translate(-119.22 -68.16)"/><path class="cls-1" d="M247.79,398.84c-.19.47-8,8.86-1.09,2.14.18.71-4.16,4.56-5.86,6.48,1.42-1.21-.37.94.19.7.85-1,1.79-2.14,3.3-3.6.89-.48-1.23,1.91-3.06,3.6,2.4-1.94-2.4,3.1.85.21,6.4-6.71,10.87-11.51,14.83-16.77-3.63,3.85-7.68,8.16-10.92,11l.9-1.68c3.8-3.12,5.69-5.51,9.13-8.88l-7.86,7.45c-3.9,3.26-1.58.79,1.18-2.11A11,11,0,0,1,247.79,398.84Z" transform="translate(-119.22 -68.16)"/><path class="cls-1" d="M249.57,390.3l-.14.12c-.1.13-.23.27-.29.36Z" transform="translate(-119.22 -68.16)"/><path class="cls-1" d="M204.88,80.76l.81.51C205.07,80.79,204.86,80.66,204.88,80.76Z" transform="translate(-119.22 -68.16)"/><path class="cls-1" d="M256,387.6h0C256,387.55,256.05,387.54,256,387.6Z" transform="translate(-119.22 -68.16)"/><path class="cls-1" d="M209.62,85.81l-.12,0A.21.21,0,0,0,209.62,85.81Z" transform="translate(-119.22 -68.16)"/><path class="cls-1" d="M222.28,81.89a.31.31,0,0,0-.06-.16C221.85,81.4,222,81.59,222.28,81.89Z" transform="translate(-119.22 -68.16)"/><path class="cls-1" d="M209.66,85.79s0,0,0,0S209.68,85.83,209.66,85.79Z" transform="translate(-119.22 -68.16)"/><path class="cls-1" d="M290.62,163.92s-.19-.32-.52-.78C289.91,163,290,163.22,290.62,163.92Z" transform="translate(-119.22 -68.16)"/><path class="cls-1" d="M275.49,147.65l-.25-.33Z" transform="translate(-119.22 -68.16)"/><path class="cls-1" d="M379.92,271.77c.79-.77,1.36-1.37,1.83-1.87C381.18,270.45,380.57,271.07,379.92,271.77Z" transform="translate(-119.22 -68.16)"/><path class="cls-1" d="M209.49,85.76a10.73,10.73,0,0,1-.91-.65A9.76,9.76,0,0,0,209.49,85.76Z" transform="translate(-119.22 -68.16)"/><path class="cls-1" d="M316.5,185.92l-.52-.44.26.3Z" transform="translate(-119.22 -68.16)"/><path class="cls-1" d="M324.41,194.39a6.49,6.49,0,0,0-.69-.43c3.08,2.76,8.28,8.31,9.33,8.53-1-1-5.91-6.36-4.79-5.73-2.14-1.93-4.87-5.23-6-6.26,3.13,3.57,0,.7-2.38-1.42-1.93-2.17.72.06-1-1.79l-4.8-4.7,4.09,4.19-1.65-.86.46.38C324.15,193.13,317,187.47,324.41,194.39Z" transform="translate(-119.22 -68.16)"/><path class="cls-1" d="M323.72,194c-.47-.42-.88-.77-1.22-1A6.61,6.61,0,0,0,323.72,194Z" transform="translate(-119.22 -68.16)"/><path class="cls-1" d="M351.7,223.23l1.3,1.18Z" transform="translate(-119.22 -68.16)"/><path class="cls-1" d="M255.71,137.29c0-.24-3.85-4.56-4.08-4.19l3.56,3.76Z" transform="translate(-119.22 -68.16)"/><path class="cls-1" d="M342.08,301.9c.47-.45.93-.9,1.38-1.36a3.2,3.2,0,0,1,.22-.31A16.47,16.47,0,0,0,342.08,301.9Z" transform="translate(-119.22 -68.16)"/><path class="cls-1" d="M329.66,197.88a12.7,12.7,0,0,0-1.4-1.12A9.74,9.74,0,0,0,329.66,197.88Z" transform="translate(-119.22 -68.16)"/><path class="cls-1" d="M341.11,301.43a8.66,8.66,0,0,1-1.89,1.22c-1.19,1.19-1.86,2.18-3,3.44A63.87,63.87,0,0,1,341.11,301.43Z" transform="translate(-119.22 -68.16)"/><path class="cls-1" d="M336.11,306.19l.1-.1Z" transform="translate(-119.22 -68.16)"/><path class="cls-1" d="M258,139.85l1.15,1-.65-.49c.91,1,1.81,1.94,2.72,2.9.36.32.74.67,1.2,1.11a1.87,1.87,0,0,0-.48-.33l.86.93c2.55,1.93,8.35,7.26,10.14,8.68,2.25,2,4.93,4.52,6.54,6.17-1.51-1.52-3.58-3.46-3.15-2.68,2.89,3.25,3.86,5.26,9.6,10.11l-3.11-3.1,7.66,6.31c2.17,2.73-3.82-3.15-5-3.88,5.77,5.1,9.4,10.51,12.5,12.44,0,.7,0,1.87,3.63,5.4-2.18-3,2.39,1.88.7-.64,1.43,1,3.85,4.1,4.31,4l-.47-.19c5.54,6.64,8.39,7.77,11.27,10.09,7.43,7.15,10.55,10.72,16.55,16.6,0,.47,1,2.72,3.39,5.08,1.43.8,6.95,6,7.9,6.18-4.1-4.43-3.82-3.15-6.47-5.61-1.7-2.54.22-.61-2.43-3.76,2.18,2.5,10.8,10.36,13,13.32l-1-.85C352.2,233,352,234.81,359.4,241l3.5,3a1.54,1.54,0,0,0-.38-.13c2.65,2.68,3.49,3.78,4.45,4.89.24.28.49.55.78.86s.67.7,1.1,1.12c.86.85,2,1.92,3.82,3.55-.56-.5-.32-.17-.87-.67.71.8,1.45,1.58,2.23,2.35-1.42,1.43-2.7,2.86-3.94,4.28l-1.84,2.08-1.53,1.72c-1.88,1.21,0-.7.75-1.9A184.39,184.39,0,0,0,352.4,279l-4,3.61c2.12-2.39,4.52-5.5,3.63-5a60.35,60.35,0,0,1-4.48,4.81,34.44,34.44,0,0,1,2.45-3.82c-6.47,5.76-.6,2.13-5.54,5.75-1.92,1.91-2.73,3.34-2.68,3.81L338,291.23c-.06.72-4.33,5-7.1,7.9-.2.49,2.62-1.91,3.56-3.11.05.47-2.83,3.59-4.76,5.51-1.39,0-12.51,12.71-11.05,9.62-8.43,8.88-20.51,21.1-25.94,27.1-2.07,1.7-5.92,5.53-3.94,2.9-7,7-9.86,11.27-17,18-.66.49,3.12-3.13,2.65-3.12-4.25,4.8-8.52,7.94-15.35,15.13a5.71,5.71,0,0,0,1.46-1.91c.24,0-2.63,3.11-4.33,5-1.08,1,1.27-1.44.61-.95-13.88,13.21-23.26,24.46-36.76,37.91,3.85-3.84,4.85-5.75,4.71-6L221,409c-1.23,1.68-4.06,4.51-6.25,7-.38.21-1.62,1.27-.55,0a92.79,92.79,0,0,0-9.54,10l-2.21,2.57-.29.32-.17.27a1.86,1.86,0,0,0-.3.53,3.34,3.34,0,0,0-.32,1.2,3.24,3.24,0,0,0,.15,1.27,1.9,1.9,0,0,0,.22.55,1.47,1.47,0,0,1,.1.22l0,.06.08.1.17.2.35.42,0,.05h0c-.24-.26-.06-.07-.11-.13h0l.08.06.13.1.27.23.32.16a3.15,3.15,0,0,0,.56.25,1.24,1.24,0,0,0,.45.1l.6.07h-.67a3,3,0,0,1-.32,0l-.21-.05a1.56,1.56,0,0,0-.25,0l-.33-.13a2.6,2.6,0,0,1-.73-.39l-.1-.06-.05,0h0l.09.1h0l-.23-.24-.47-.48a3.89,3.89,0,0,1-.34-4.12,7.65,7.65,0,0,1,.65-.95l.76-.9,1.59-1.88-3.06,2.42,4.44-5.28c-3.14,2.69-5.13,5.63-5.74,6a2.67,2.67,0,0,1,.47-.81l.34-.45.33-.36c.42-.48.77-.9.69-1a13.84,13.84,0,0,0-1.75,1.78,3.48,3.48,0,0,0-.53.89,3.06,3.06,0,0,0-.31.82c-.06.28-.11.54-.17.81s0,.55,0,.85a4,4,0,0,0,.1.94,4.63,4.63,0,0,0,.28,1.11,5.36,5.36,0,0,1-.27-3.75,5.74,5.74,0,0,1,1-2c.11-.15.24-.33.35-.45l.32-.36.66-.74c1.78-2,3.76-4.1,5.77-6.22,4-4.21,8.11-8.45,11-11.42.86-1-.62.95-.71,1.18,2.35-2.39,4-3.6,6.87-6.71,1.55-2.16-1.64,1.19-3.15,2.64-.05-.46.71-1.19,2.31-2.87.7,0,9.13-8.89,11.67-10.58,8.66-8.88-2.3.51,6.41-7.9l3-2.17c4.67-5.27,10.83-12,16.53-17.51l-1.17,1.2c-.62,1,.79-.24,1.45-.73,4.42-4.08,7.76-8.38,10.73-10.56,4.43-5.27,12.2-13.66,17.53-19.42,2-1-6.79,7.67-8.77,10.3l5-5.05a46.22,46.22,0,0,0-5.72,6.73c4.52-4.33,5.52-6.24,9.58-10.56-.19.47.46,0,2.4-1.94l.2-.89a5.21,5.21,0,0,0,.92-.77l7.25-7.67c-1.73,1.43-2.11,1.21-4,3.13.89-.49-.7,1.19-2.64,3.11,1.46-1.91-2.07,1.69-2.22,1.46,3.88-3.85,8.58-8.65,11-11.28l1.14-.5c3.77-3.6,7.48-7.67,10.07-10.08l-.62,1c4.52-4.32,8.67-8.88,12.9-12.49,3.58-4.31,8.24-9.57,11.08-13.18,1.31-2.13,12.08-11.05,16-16.07.34-.26-2.75,3.36-4.11,5,3-2.89,4.86-5.75,6.22-6.25-6.78,6.49.7,0-2.16,3.1,3.1-3.11,6.29-6.46,7.66-8.14-5,5,1.19-2.39-3.71,2.89,1.7-2.05,3.78-4.37,6-6.74l2.17-2.28c.53-.53,1.07-1.06,1.65-1.58-.1-.11-.19-.22-.29-.32.38,0,.27-.29-.54-1.25,0,0-1.1-.56-1.08-.54-.5-.55.09-.11.62.24s1,.61-.2-.65a10.71,10.71,0,0,1-1.48-1.23c-.71-.66-1.47-1.39-2.24-2.15l-4.7-4.74c-3.09-3.12-5.91-5.88-7.34-6.45-3.13-3.81,6.95,6.26,2.14.62,3.35,2.73,7.19,7.28,8.62,7.86-3.1-2.86-.72-1.45-2.64-3.38L354,241l.72.75c-6-5.18-14.63-14.22-21.83-21.28-6.47-5.61-11.25-9.14-18.45-16.43,2.39,1.88-5.77-6.26-.75-2.17-3.13-3.57-6.7-6.62-7-6.5,2.88,3,1,1.1,3.37,3.68a63.39,63.39,0,0,1-7.2-7.07c.72.76.48.43.71.52-3.36-3.67-1.91-1.46-4.55-3.91-.49-1.12-5.53-5.7-7.69-8.19l-3.82-2.92c2.15,1.56-3.12-3.33-3.38-4.14a84,84,0,0,1-8.62-7.62c1.68,1.36-3.13-3.59-2.9-3.95-6-6.59-11.25-9.61-16.79-16,.26.11,1.66,1.12,0-.7-1.46-1.29-3.83-3.73-5.33-5.17l.05,0-.08-.07c-.74-.7-1.23-1.12-1.32-1.06-2.81-2.23-4.41-3.22-9.61-7.92,0,.71,4.33,4.75,6.25,6.45l1.91,1.23c1,2,4.55,4.37,5.52,5.68-3.58-2.36-12-11.06-17.5-15.82,2.65,3.61,9.39,10.49,15.38,16.38l-2.41-2.83,3.12,3.1-2.64-3.37c2.88,3,5.51,5.46,8.15,8.14-3.12-3.11-3.85-4.8-2.17-3,3.14,3.81,3.84,3.4,6.47,6.07-1.44-1.51-3.36-3.44-1.92-2.39,4.82,5.64,6.5,6.79,10.81,12,0-1.17,6,5.88,7.19,6.12l-2.16-2.25,5,4.33c3.85,4.79-4.3-3.34,1.94,3.56,6,6.13,6.46,5.37,11.27,10.09a77.23,77.23,0,0,1-9.82-8.58l2.16,2.5c-1.43-1-6.71-6.4-9.35-9.08,4.78,4-1.93-2.18-3.62-4.48-.7,0,2.17,2.73-1.42-.34,3.12,3.12,3.6,3.55,7.45,7.64-8.43-8.73-8.86-6.57-16.07-14.33,3.6,3.3-.72-1.68-1-2.26-1.66-1.58-5-4.79-6.47-6.07l.75,1.71c-4.57-4.16-5.07-6.68-10.6-11.22-.93-.37,4.33,4.52,3.37,3.67-7.18-6.59-8.89-9.83-14.65-16.31-.49-.2-.72.17-3.11-1.71,1,.38-.48-1.35,2.14.85a81.53,81.53,0,0,0-6.47-6.07c4.09,4.43-2.15-1.33-3.11-1.94-2.15-2.25,1,.39,2.4,1.66-1.7-1.85-3.38-4.37-4.81-4.95.23-.37,5.74,4.16,9.1,7.36l-2.17-2.26a35.37,35.37,0,0,1,4.07,3.94c-1.91-2.38-1.44-2.43-.73-2.14.24.32-.23-.09,0,.22,1.69,1.85,3.13,3.12,2.88,2.55,2,1.19-2.2-2.7-3.2-4.1L228.75,118l-10.49-7.88a91,91,0,0,1-8.28-9l-1.15-.46c-3.38-3.45-6.49-6.78-3.87-5,0,.24.49.66,1.21,1.42a2.54,2.54,0,0,1,.6.38,1.46,1.46,0,0,0,.23.1c-3.78-3.53-6.13-5.74-6.35-6,6.71,5.71.94-.32,2.6.11l-3.24-3-1.19-1.11-.55-.52-.71-.8-.19-.23a.56.56,0,0,1-.14-.19l-.16-.24a9.62,9.62,0,0,1-.5-.84,4.64,4.64,0,0,1-.37-.74,12,12,0,0,0,.89,1.76c.06.1.17.28.19.3l.1.14.17.25.25.38,0,0h0l.28.32h0v0l0,.06.07.09c.06.1,0,.12,0,.08a.77.77,0,0,1-.15-.1l-.05,0h0l-.3-.33h0l0,0,0,0-.11-.11-.57-.6a12.11,12.11,0,0,1-1.18-2,17.19,17.19,0,0,1-.58-1.81c-.1-.6-.16-1.16-.2-1.61a7,7,0,0,0,.19-.88,9.86,9.86,0,0,1,.36-1.7c.1-.34.21-.7.35-1.07s.36-.74.57-1.13a5.75,5.75,0,0,1,.75-1.14l.46-.56.23-.28,0,0,.36-.32,0,0,.08-.07L199,73a12.29,12.29,0,0,1,1.6-1l.43-.21.37-.13.74-.24a6.63,6.63,0,0,1,1.51-.3,9.6,9.6,0,0,1,2.9.11,8.86,8.86,0,0,1,2.35.85l-.43-.11a9.09,9.09,0,0,1,1.86,1.19c.3.25.63.53.91.8l.47.49,2.1,2.13c1.47,1.46,3,3,4.34,4.17,0-.23,3.83,2.46,5.73,3.69-4.23-4.49-1.5-2-1.64-2.61a12.85,12.85,0,0,0,1.38,1.34c.72.52-.71-1-.72-1.22-2.4-2.23-4.8-4.53-6.9-6.44-1-1-2-1.82-2.88-2.53l-.76-.62c-.45-.35-.89-.67-1.31-1a11.45,11.45,0,0,0-2.42-1.06A16,16,0,0,1,211.31,72c.37.29.8.64,1.09.89l.51.43a13.94,13.94,0,0,1,2.13,2c-.66-.49-1.33-1.05-2-1.67l-.53-.48-.32-.29-.61-.51a11.42,11.42,0,0,0-2.85-1.71,11,11,0,0,0-7.16-.31l-.93.31c-.38.16-.76.36-1.14.56s-.74.44-1.09.68l-.17.12-.09.08-.19.15-.37.3-.05,0,0,0-.45.4,0,0-.17.19-.35.4a8.59,8.59,0,0,0-1.23,1.77l-.34.5a7.12,7.12,0,0,0-.63,1.18c-.2.45-.38.92-.51,1.27s-.16.6-.16.6,0,.18,0,.52a13.11,13.11,0,0,0,0,1.37c.05.57.11,1.23.24,1.93A17,17,0,0,0,194.5,85c.21.43.44.86.69,1.27l.39.59.19.28a.58.58,0,0,0,.11.13l.58.66.44.48,0,0,.07.06.12.12.2.18.17.16-.56-.44-.06,0,0,0h0l-.41-.45h0l-.1-.08-.19-.14-.33-.24-.18-.13c-.07-.07-.25-.3-.39-.47a12,12,0,0,1-1-1.48l-.25-.49q-.09-.21-.18-.45c-.12-.31-.24-.67-.36-1.06a11,11,0,0,1,.37-7.15,7.8,7.8,0,0,0-.88,2.8,10.05,10.05,0,0,0-.06,2.48,11.89,11.89,0,0,0,.19,1.41c.12.48.26,1,.43,1.47a12.37,12.37,0,0,0,1.81,3.3l.47.54.57.64.13.12.27.25c.7.68,1.39,1.36,2,2l1.65.89c-.7-.28,4.58,5.09.51,1.6l-3.24-2.92-1.19-1.07-.27-.25-.14-.13-.07-.06,0,0h0l-.49-.55,0,0-.44-.49-.2-.21-.21-.29-.23-.33c-.3-.45-.54-.86-.73-1.19a7.78,7.78,0,0,1-.51-1.06,7.22,7.22,0,0,0,.45,1.1c.16.34.36.73.59,1.13l.54.9c.16.26.31.53.43.73l.52.58h0l0,0,0,.06.07.09.06.09-.22-.22,0,0-.55-.61L195,89l-.12-.15-.31-.36-.08-.1-.05-.06-.08-.11c-.18-.25-.36-.51-.54-.8a15.93,15.93,0,0,1-1-1.84c-.23-.57-.38-1.07-.55-1.64-.08-.28-.15-.57-.22-.85s-.09-.58-.13-.87a13,13,0,0,1,.78-6.36,21.13,21.13,0,0,1,1-1.92,3.77,3.77,0,0,1,.45-.68l-.11.16a3.23,3.23,0,0,0-.24.44c-.19.38-.43.88-.65,1.4a7.89,7.89,0,0,0-.46,1.44c-.1.4-.16.67-.16.67.12-.45.26-.89.4-1.31s.35-.79.53-1.17.39-.73.59-1.07.45-.63.67-.93.47-.57.7-.83l.17-.2.09-.09,0,0h0l.57-.52,0,0,.16-.12.57-.47a12.65,12.65,0,0,1,3.33-1.79,12.19,12.19,0,0,1,2.27-.54,10,10,0,0,1,3,0,7.61,7.61,0,0,1,1.76.45c.51.19,1,.4,1.68.68a17.68,17.68,0,0,1,2.52,1.51l.8.66.44.38.22.2.11.1.88.86c.68.65,1.54,1.44,2.65,2.44,3.1,2.17,6,5,11,10.22-3.83-3.63-.71-.06-2.38-1.19a48.36,48.36,0,0,0,7.43,6.69c.73,1.22,1.22,2.11-2.15-1.33-.94.09,4.56,4.39,4.34,5.23,11.28,11.25,10.74,7.31,23.25,21.14l-.71-.28c8.63,8.1,13.2,13.18,21.11,20.75l5.55,6.64c-1.45-1.28-5.52-4.54-4.07-2.56-2.42-3.52-5.76-6.47-8.66-10-.47-.19.73,1.22,1.21,1.87-1.92-1.93-2.64-3.15-5.29-5.6,0,.24,2.66,3.15.49,1.13l-3.12-3.81c-4.8-4.47-3.1-1.47-8.38-7.07a32.15,32.15,0,0,1,6,4.38c-2.43-2.55,3.5,3.13,1.41.68-4-3.13-5.41-5.22-10.46-9.7a15.34,15.34,0,0,1,2.06,1.7l-6.72-7.11c1.45,2-6-5.42-5.75-4.39,7.21,7.53,5.28,5.13,13.45,13.75a57.17,57.17,0,0,0-7.72-6,4.66,4.66,0,0,0-.42-.49c-1.67-.89-.47.52-1.16,1.17,4.31,3.35,6.48,6.31,11.27,10.55,1.22.48-2.15-3.09-4.49-5.24l4.22,3.74-.95-.62,10,10.23a25,25,0,0,0-4-3.17c1.29,1.32,2.48,2.71,3.75,4.19.06-.64.49-.71,1.76.57,6.42,6.59,9.72,10.52,11.71,13.33l.79.73c-.73-1.45,5.27,4,7.65,5.62-.47.27,3.13,3.57,4.81,5.64,1.43.57.69-1.36-1.25-4-4.78-4-2.85-2.07-5.49-3.59l-7.42-6.69,1.92,1.24c-3.38-3.67-7.21-6.6-6.51-6.79,2.16,1.56,5.05,4.82,7.2,6.36L279.86,141c4.54,3.68,1.69,2.53,7,7.2-1.46-2.21.47.42,2.86,2.3-1.45-2-8.87-8.65-6.73-7.8,2.87,2.31,8,9.46,12,12.25l-.24-.1a67.35,67.35,0,0,0,9.23,8.2c1.94,2.36,5.2,5,7.56,7.34l-.25.13,3.37,3.21c-1.91-1.23-3.85-3.86-6.72-6.64v.7c-2.85-3.66-5.64-5.21-8.47-7.43,4,3.37,10.29,10.45,11.83,10.64l1.92,2.62,1.22,1c1.43,2-.71.64-4.08-2.56-.48-.66-.72-1-.47-.89a56.62,56.62,0,0,1-7-6.26l2.15,1.78c-4.56-4.62-8.87-8.66-10.78-9.89,6.48,6.78,13,13.32,19.2,19.53,2.62,1.05,5.24,2.79,6.9,3,4.32,4,10.08,9.6,13.44,13.5l-.47-.19a66.88,66.88,0,0,0,4.8,4.71c1.68,2.06-1.66-.9-.46.51l6.22,5.74c-.7,0-5.73-5.07-8.14-7.44.48.42,1.44,1.28,1.19.94-2.64-2.91-8.38-7.53-9.12-9.22-1.44-1.27,3.1,2.4-1.46-2.21-2.89-3.25-4.32-3.82-4.78-4-.24.14,4.56,5.07,2.65,3.61,2.41,2.36,3.6,3.08,6.48,6.31-2.39-2.34-6-5.18-7-6.73-5-4.34-5.23-2.79-3.08-.53-.25-.8,8.89,8.2,3.1,1.7,3.12,2.41,8.16,7.44,12,10.83l-.24-.09,4.57,4.39c-.73-.53-2.17-1.8-2.4-1.66l6.71,5.7c-3.83-3.15,1.93,2.4,3.37,4.14.95.38,3.59,2.59,1.42.1-2.4-2.82-1.67-1.36-4.07-3.72l3.82,2.92.24.33,2.4,1.66c4.55,4.61-2.86-1.15,3.37,4.37l-.26-1.27c6.73,6.88,14.9,16.18,19.94,20.75-1.62-1-2.66-1.16-1.11.93-2-2.16-6.17-6.3-9.19-9.23-.48-.66,4.31,3.12,7.43,6.46-.74-2.39-8.62-7.63-8.16-8.84-7.94-8.52-6.95-5.33-13.44-12.81-.47.28-2.17-1.8-2.86-1.84,1.46,2.68,9.35,9.32,13.67,14.06a16.06,16.06,0,0,0-1.66-1.36,82.14,82.14,0,0,0,7,6.73l-.24-.33c4.32,3.59,2.17,2.73,4.33,5.22,1,.84,4.09,4.19,3.84,3.39l3.86,4.57.22-.62c2.4,2.35,2.64,3.15,5.05,5.05l.47-.27-5.77-6c3.11,2.87,1.19.47,4.56,3.68-2-1.63-1.45-.93-.34.27.56.6,1.24,1.32,1.79,1.94.27.31.51.59.68.82a1.56,1.56,0,0,1,.2.3,1.32,1.32,0,0,1,.15.28l2,1.93,1.37,1.36a5,5,0,0,1,.5.68l-.41-.55-.54-.49c.16.2.33.4.47.59l.31.58a6.39,6.39,0,0,1,.53,1c.14.34.28.65.4,1s.19.63.29.95a9.75,9.75,0,0,1,.38,2.15c0,.41,0,.86-.09,1.36s-.22,1-.35,1.61a10.27,10.27,0,0,0-.29-7.76,13.85,13.85,0,0,0-2.64-3.41c-.53-.56-1.15-1.23-1.69-1.78-.38-.35-.8-.72-1.25-1.1l1.09.93a3.58,3.58,0,0,1,.33.3l.48.49,1,1,2.09,2.16a9.56,9.56,0,0,1,1.41,2.53,10.87,10.87,0,0,1,.68,5.18,13.12,13.12,0,0,1-.44,2,12.79,12.79,0,0,1-.49,1.31,12.49,12.49,0,0,1-2.57,3.43,34.39,34.39,0,0,1-2.4,2.49c-1.12,1-2.24,2-3.45,3.13,2.21-2.35,1.53-2.24,1.47-2.64,0-.2.1-.53.82-1.37l2.07-2.3,1.84-2c.3-.39.53-.84.83-1.3a17.17,17.17,0,0,0,.65-1.6,5.7,5.7,0,0,1-1,2.31,5.63,5.63,0,0,0,1.4-2.69,8,8,0,0,0,0-4.4,10.6,10.6,0,0,0-.86-2.23,7.84,7.84,0,0,0-1.46-1.84L384.56,247c.23.53-.42,0-.46.11-.15,0,.34.62,2.7,3.32-.35-.46-.22-.45.25-.06.12.1.26.21.41.36l.41.54a6.05,6.05,0,0,1,.47.67l.42.86a8.62,8.62,0,0,1,.61,4.64,8,8,0,0,1-2.42,4.67l0-.65a2.32,2.32,0,0,0,0-.63,10.78,10.78,0,0,1-1,1.13l-2.28,2.39-2.47,2.4.43-.48c-2.21,1.45-5.13,5.27-8.71,8.41-2.21,2.63-11.68,11.76-7.06,8.38-3.38,2.64-5.56,5.75-8.77,9.12l4.34-3.86c-4.43,5.27-3.3,3.6-6.51,8.15-.56.23-1.55,1-.93,0-6.54,6.48-16,15.61-19.35,19.91-4.61,4.57-6,4.6-12.19,11.3-1.27,1.44,1.61-.5-2.82,3.59-.33.24,3.67-4.54-1,.26-2.93,3.83-8.19,7.69-12.2,12.48-2.48,2.15-6.45,6.25-6,5.05,3.76-3.6,8.89-8.88,9.51-9.84-.29.72,2.83-2.41.28.47,5.83-5.29,3.39-3.83,8.56-8.64.2-.48-3,2.17-3.9,3.37-.51-.46,9.6-10.07,4.58-6.22-5.37,5.29-5.94,7.89-11.07,12,1.56-2.15,4.7-4.79,6.54-7.66l-4,3.6-2.4,3.11.09-.23c-7.15,6.25-5.7,6.7-11.45,12.94,3.81-3.14,0,1.65,2.86-.76-3.95,4.08-7,7-7.47,6.5,7.1-7.9-.09-.94,6.36-8.37-1.31,1,.94-2.36-3.25,1.72-4.31,5,1.8-1-2.69,3.82-.31.23-.64.47-.55.24-1.89,2.39-2.59,2.4-4.89,5.26l.51-.71c-3.48,2.89-3.15,3.82-6.22,6.25,1.46-.74-1.54,2.14-3,4.06,2.92-2.64,4.94-3.63,10.4-9.15.38-1-.18-.7,1.94-3.1l-3.53,3.61c.72-.82,1.23-1.48,1.88-2.24l3.57-3.28c-4.14,4.55-1.84,2.86-3.39,5-4.1,3.85-3.2,3.35-5.79,5.76-.17-.67-8.39,6.95-13.23,11.26l2.14-2.11c3.06-3.59-2.64,1.94-2.88,1.95l-2.21,2.63c.43-.48,1-1.21-.14-.24-3.2,3.36-2.59,3.59-5.79,6.94-.48,0,1.94-3.11-.22-1.19-.9.5-3.67,2.2-7.82,6.76a30.36,30.36,0,0,1-2.57,2.92c.17-.2.39-.43.46-.53l-3.15,2.64c2.07-2.86,5.17-4.8,7.25-7.67l-.17-.59a63.53,63.53,0,0,0,5.39-6.1c-3,2.87-3.52,3.59-6.72,7-.7.23,1.44-2.26,1.74-2.62l-.27.7c4.22-3.6,5.49-6.21,10.44-11,.75-.72.33-.24.24,0,3.58-4.31,8-7.68,11.31-12l-1.06,1.45c2.44-2.79,7.19-8.25,11.94-13.71l-.1-.19c-.66.48,1.26-1.43,2.35-2.4h0l6.56-7.5a33.17,33.17,0,0,0-2.6,2.23c-.63,1-5.46,5.52-4.42,5.27-2.41,1.93-5.56,5.76-7.3,7.2,3.15-2.65-1.65,2.39-1.94,3.11-1.22.73-4.28,4.31-4.23,3.6a19.39,19.39,0,0,0,2.68-2.63c2.73-3.35-5.83,5.29-2.34,1.21-4.58,5.05-11,11.28-15.68,16.55l2.91-2.64c-2.26,2.16-7.4,7.45-8,7.68,1.6-1.68,3.52-3.59,5.55-5.75-.27-.48-5,5-5.5,5l-5.47,6.71,2.68-2.64c-1.45,1.9-7.3,7.21-11.49,11.29,1.86-2.88,6.23-6.25,10.37-10.81,3-3.35-2.44,1.46.42-1.65a26.29,26.29,0,0,0-3.66,3.71l-1.27,1.09c2.2-3.13,8.29-9,11.87-13.39a5.73,5.73,0,0,0-.61.92c3.24-2.88,6.35-6,9.22-9.12a22.19,22.19,0,0,0-3.11,3.12c-.22,0,2.55-2.87,3.49-4.07-2.92,2.65-.79.25-2.63,1.93,1.7-1.92,3.2-3.35,5.45-5.51,1.32-1-.7,1.19-.24,1.18,2.14-2.41,3.72-2.9,6.78-6.49-4.52,4.33.67-1.66,2-3.34l-.76.72a11.61,11.61,0,0,1,3.53-3.59c-1.7,1.92-3.53,3.59-2.74,3.35,1.18-1.2,2.36-2.41,3.64-3.85l-1,1.43,5.89-6a38.14,38.14,0,0,0,2.39-4.27,35.09,35.09,0,0,0,4.72-4.81l-.53.73c2.83-2.42,8.49-8.42,8.77-9.13,2.06-1.68-11.88,14.6,1.16,1.16,5-5,2.45-3.81,5.09-6.92,0,0-.09.23.24,0,2.25-2.15,2.21-2.63,3.91-4.55a33.81,33.81,0,0,0-3.86,3.84c.38-.95,4.61-4.57,6.08-6.48-1.75,2.63,4.42-4.09,2.95-2.16a88.59,88.59,0,0,0,11-11.75c3.53-2.42,5.14-5.29,10.22-9.86-.76.73-2,2.15-3.12,3.13-2.4,3.1,5.19-4.81,1.27-.26.85-1-.12-.25-1,.73-1.58,1.67-3,3.35-2.39,3.1l4.24-3.62-1.29,1.46,6.4-5.54c.09-.23-.56.24-.89.48,7.11-6.73,14.78-14.88,20.9-20.89.08-1.06,3.7-4.9,7.84-9.16l3.16-3.23,1.56-1.61.59-.62.34-.37a3.1,3.1,0,0,0,.94-1.47,1.71,1.71,0,0,0-.27-1.33,8.47,8.47,0,0,0,.94.86c.29.19.57.22.77-.11a3.08,3.08,0,0,1-.41,1.92,8.69,8.69,0,0,1-.86,1.13l-.56.61c-.3.3-.6.6-.92.9-.56.24-3.8,3.12-2,1-6.73,7,1.36-.49-.29,1.89,1.82-1.86,3.74-3.9,4.47-4.76a3.26,3.26,0,0,0,.87-3.6c-.44-1.16-1.56-1.72-2.3-2.36l-.15-.12a1.42,1.42,0,0,1-.19-.16l-.48-.41-1-.84-1.88-1.68v-.24l-3.84-3.4c2.89,3,2.19,3.44-1.42-.57l.49.44c-1.94-2.41-6.74-6.65-10.09-10.08l-2.63-2c-3.36-3.43-2.9-4.18-3.65-5.65-5.28-5.36-8.85-8-12.93-11.43-1.45-2-9.36-10-4.81-6.11-5-4.57-5.48-2.19-12.94-11.22l2.39,1.89c-7.93-7.83-19.67-18.56-23-22.45,3.82,2-8.91-10.77-9.42-13.07.18.6-2.84-2.29-3.38-2.62a13.4,13.4,0,0,0-2.86-2.89c2.9,3.25-3.08-1.23,3.15,4.28-3.59-2.36-7.89-5.71-14.37-12.25l.47-.28,5,5.27c-.24-.8,2.39,1.87,3.6,2.83-9.37-9.79,2.13.39-7.71-9.36-1.19-.71-.48-.19-3.12-2.64,1.21,1.18,1.68,1.14-.24-.8l-2.15-1.55c-2.81-4,6.06,5.26,3.58,1.9,4.08,3.49,10.79,9.89,10,8.19-6-6.35-6.45-4.67-12.69-11.34l-.49-.89a29.66,29.66,0,0,0-4.54-3.22c0-.23-.49-.89-1.92-2.39-4.31-3.35-6.95-5.81-11-8.82,9.82,9,7.69,8.41,17.76,17.79-1.67-1.37-8.63-8.1-9.57-8l.47-.28c-3.36-3-6.71-5.94-10.56-10l2.64,2.22c-5.53-5-8.19-9.32-13-12.85q2.16,2.25,3.6,3.53c-2.88-2.54-6.24-6-9.12-9l-6.71-5.47c.24-.13-3.61-4-1.45-2.44-4.1-4.67-6.72-6.18-9.35-8.62-4.09-4.89,4.07,3.71,5,3.64a219.8,219.8,0,0,0-16.55-15.92c1.18,1.34,1.73,2,1.58,2a52.5,52.5,0,0,0-4-4.16l-1.2-.71-.05-.06h0l.13-.13h0l0,0,0-.07s0,0,0,0,0,0,0,0a.35.35,0,0,1,.07-.15s.06-.07.08-.07h.08s0-.06.08,0-.05-.06-.05,0h0s0,0,0,0,0,0-.1,0-.11.12-.14.12v.05h0l.15-.05.13-.1.05-.06s.06-.08,0,0l-.49.41-.25.2h0l.36-.33h-.05l-.13,0s0,0,0-.08,0,0,0-.1h0l-.35.31h0l.1-.09.2-.18.4-.35,0,0v0l0,0a.3.3,0,0,1-.08.08.35.35,0,0,1-.18.06.47.47,0,0,1,.4,0s.07,0,.08.06l0,0s.05,0,.11.1l.17.17,1.26,1.26c.79.78,1.48,1.43,2,1.88-1-1-1.89-1.81-2.67-2.59-.19-.2-.37-.39-.56-.57l-.27-.28s0,0,0,0,0-.06,0-.08,0,0-.07,0,0,0-.06,0,0-.06-.07-.07-.11-.09-.17-.07l-.11-.05a.17.17,0,0,1-.1,0c-.15,0,.06-.06.06-.2V79.6s-.07.05-.1.06l-.25.18-.25.17-.12.09-.07,0,0,0h0c.59-.53.17-.15.3-.26h0a.45.45,0,0,1-.1.09.14.14,0,0,0-.12.09c-.19.12-.23.36-.27.63s0,.33,0,.38a.07.07,0,0,0,0,0h-.07s0,.06.06.08l.31.38.16.2.08.1,0,0c-.11-.12.25.28-.25-.27h0l.05.05c1,1,2.09,2,3.38,3.26,0,.24-1.92-1.23,0,.7,4.56,4.38,1.67.67,3.33,1.79-1.79-1.64-3.05-2.9-4.08-4-.51-.57-1-1.1-1.39-1.64l-.63-.82h0c.14.16-.31-.35.32.35h0v0l0-.06-.06-.11-.14-.22c-.08-.14-.2-.33-.25-.44l.5.4.19.15L205,81h0l-.34-.37h0l0,0,.17.11c0,.24,2.19,2.41,2.73,3.14l1,.16c-.7.19,2.41,4,5.3,6.53-2.43-3.07-1.7-2.31-1.94-3.56,4.29,3.34,3.83,4.78,8.62,8.55-.46-.18-4.31-3.81-1.19-.47,2.66,2.69,2.65,2,4.55,3.67-2.39-1.65-2.14-.85-4.77-2.6-4.8-4.71-1.91-1.92-6.71-6.4L216,94c-4.08-4-3.35-2.5-3.82-2.69,6.5,7.24,5.74,4.61,10.06,9.13,2.39,1.88-4.08-4.19-.48-1.13,4.08,4.19,1.18.71,6,5.19l-.95-.61c1.2,1.64,2.88,2.77,4.55,4.37,1.92,1.7-.76-3.33,6.69,4.07-.46-.26-.66-.33-.71-.28L227,107.92c7.53,7.51,16.11,16.26,24.61,25.18,1.44,2.66-6.72-5.71-6.46-4.91l-3.85-4.1c.48,0,8.4,8.25,5.27,4.21-7.2-6.83-10.08-10.31-17.27-16.44,1.46,2.68,8.87,8.66,12.73,13.46-1.78-1.86-3.38-3.33-5-4.73l12.78,13.3,1.18.89c-3-3.19-5.15-5.39-5.4-5.69,4.08,4.18,7.9,7.33,8.62,7.16l-.72-.75,1.63,1.35C256.13,137.86,257.07,138.85,258,139.85Zm-36.94,269a3.74,3.74,0,0,0,.44-.75C221.43,408.34,221.64,408.22,221.07,408.88Zm1.52-319.1-8.14-8.39-4-4.15-1-1a8,8,0,0,0-.63-.57,5,5,0,0,0-.74-.56,6.84,6.84,0,0,0-3.51-1,6.53,6.53,0,0,1,3,1,5.42,5.42,0,0,1,1.17.94,8.6,8.6,0,0,1,.81.92l2.62,3.21A37.68,37.68,0,0,1,215.09,84c.3.58-.16.33-1.7-1.06-.77-.69-1.81-1.68-3.15-3L208,77.75a6,6,0,0,0-.62-.54l-.32-.26-.38-.2-.38-.2-.42-.12c-.14,0-.28-.1-.43-.13l-.46,0a5,5,0,0,0-1.28.17,4.48,4.48,0,0,1,2.17.18,4.68,4.68,0,0,1,1.14.57l.52.43c.18.16.38.38.57.57,1.58,1.59,3.33,3.32,5.06,5,1.52,1.22,4.78,3.74,7.65,6L224.58,92a11.91,11.91,0,0,0,1.61,1.13c-.73-1.22-2.41-2.36-4.09-4.2ZM225,95.17c3,3.22,2.51,2.31,3.17,2.62l-3.35-3.21C225.22,95,225.37,95.3,225,95.17Zm3.16,2.26a8.86,8.86,0,0,1-.77-.84Zm2.33,16.3-.34-.31,2.21,2.29C232.12,115.39,231.57,114.79,230.52,113.73ZM224.61,107l-1.07-.42,2.08,2.15A4.09,4.09,0,0,0,224.61,107ZM205.28,85.53a13.17,13.17,0,0,1-1.65-1.19l-1-.84-.26-.22-.14-.11-.06,0h0s-.11-.11.1.11h0l0,0-.47-.49a1.43,1.43,0,0,1-.3-.39c-.06-.1-.15-.19-.22-.31a7,7,0,0,1-.34-.77,5.13,5.13,0,0,0-.22-.61.51.51,0,0,0-.18-.33c-.06-.17-.14,0-.21.41,0,.2,0,.44,0,.72a8.55,8.55,0,0,0,.2.89c.07.16.15.3.23.46a1.57,1.57,0,0,0,.28.47l.39.49.1.12s.05.06.07.08l.23.23L203.63,86c.1,0,.42.17.9.54-1.21-1.32-1.94-2.28-1.16-2,2.66,3.86,3.35,2.5,6.71,6.17C211.52,91.51,206.48,86.47,205.28,85.53ZM307.36,335.18c-.13.06-.58.31-1.18.67l2.26-2.7c4.52-4.33,8.7-7.23,12.14-11.77a26.22,26.22,0,0,1,4.48-3.14c-.93.89-1.81,1.72-2.55,2.4C312.14,332.61,315.83,325.61,307.36,335.18ZM359,285.09a2.89,2.89,0,0,0-.52.73c9.07-10.71,17-19.08,22.34-24.38-1.36.71-6.39,5.24-8.8,7.37l1.65-2.38,1.54-1,3.16-3.83c-1.22.73-4,3.6-6.07,5.29-.09.24-5.7,6.71-7.16,8.62l5.08-4.57c-1.41,1.2-7.72,7.69-10.16,10.32.13.23,4.79-3.86,4.94-4.81.79-.25-4.25,4.8-.76,1.91a172.21,172.21,0,0,1-12.67,12.49h-.93c-3.24,2.88-1.52,2.62-5.42,6,4.38-4.56-1.26.25,2.26-3.34-1.31,1-.51-.47-4,3.13-2.35,3.58-4.13,3.37-6.4,6.71-2.06,1.69,1.65-2.38-2.12,1.23-3.9,4.54-3.43,4.53-3.25,5.24,4.08-3.83,3.87-5,7.21-8.15l-5.67,7.19a30.26,30.26,0,0,0,2.89-2.71,36.71,36.71,0,0,0-3,3.64l-1.26,1.71c3.65-3.64,6.9-6.86,7.66-7.25l-.29.72a24.72,24.72,0,0,0,4.25-4.47c3.24-3.29,6.19-6.85,7.19-7.28l-1,1.43C353.56,290.62,354,290.14,359,285.09ZM283.61,150.51c1.64,3.22,3.62,6.6,15.11,17.81l-1-.84c5.22,6.21,11.8,10.49,18.21,18a69.61,69.61,0,0,0-7.87-6l3.84,3.4c-1.43-.58,2.4,2.81,5,5.49l-2.86-1.83a58.78,58.78,0,0,0-5.52-5.69c1,.84-4.82-6.11-8.42-9.42,0,.71,7.45,7.86,3.62,5.17,3.11,2.64,3.12,3.34,6.25,6.22-3.12-2.64-1.19-.24-3.58-2.13l5,4.8c0,.25-7.43-6.91-3.82-2.45,2.15,1.79,7.19,7.29,7.66,7v.23c3.61,3.77,2.15,1.1,6.47,5.84.24-.13-.49-1.13-2.16-2.71a54.82,54.82,0,0,1-4.8-4c-1-1.56,3.38,3.45,1.91,1-.73-1.22-7.68-7.25-5.06-5.73l3.61,3.76c.47-.28,3.11,2.41,3.34,2,2.39,2.11,4.09,4.66,6.72,6.63,1.2.72,0-1.4,3.59,2.6,2.42,3.53,11.29,12.18,14.65,15.39l3.11,2.63c0-.47-5.52-5.46-3.37-3.91l4.56,4.39-.49-.2c1.46,1.52,3.13,2.88,4.57,4.15-1.67-1.12-4.79-4.46-4.54-3.43,2,2.18,2.21,2.64,4.22,4.5-.45-.39-.85-.72-.86-.61,4.09,4.43,4.55,3.68,5.74,4.62,4.79,3.77-3.84-4.78-2.89-4.64l12.71,12.29c-1.2-.95-2.4-1.89-2.15-1.33,2.88,3.24-.23.37,4.09,4.65.22-.83,5.75,5.09,9.1,7.82,1.2,1.64,1.45,2-1.67-1.12,0,.68,4.36,4.77,5.73,6.21.45.37,1.05.9,1.66,1.44a7.56,7.56,0,0,1,.8.91,5.52,5.52,0,0,1,.54.95c-.16-.83-.22-1.08.14-.72a1.89,1.89,0,0,1,.3.41c.09.19.19.43.31.71a6.07,6.07,0,0,1,.22,1,5.74,5.74,0,0,1-.05,1.35l0,.24a5.81,5.81,0,0,0,.14-2.64,6.21,6.21,0,0,0-1.22-2.6c-.66-.75-1.38-1.5-2.08-2.26l-2-2.09a72.52,72.52,0,0,0-6.51-6.29l.95.61c-4.81-5.41-11.74-10.5-13.44-13.51.47,0-1-1.08-.51-1.37l-4.05-3.47,1,.62-6.48-6.32.24.1-8.17-6.49c-.17.16,0,.4-1.16-.49a33.35,33.35,0,0,1-2.54-2.4h0c-1.52-1.62-2.34-2.9-4.17-4.93l6,5.91c.76.21.54-.58-2.18-3.69,1.2,1.18,1.91,1.47.47,0-.23-.09-4.08-3.72-2.87-2.08-5.76-5.55-14.18-15.43-23.29-23.48C320,186.38,309,175.21,316,182c-4.34-5.22-4.55-3.68-9.35-8.62-.26-.57,2.63,2.67,4.06,3.48-7.92-8.28-14.37-12.95-22.07-20.92v-.68C287.07,153.77,285.37,152.18,283.61,150.51Zm-15.93-15.06L263,131c.14.16.28.3.44.46l-4.81-4.25c2.65,2.92,4.1,5.13,0,1.41.47.19-.49-1.12.94.15-2.4-2.82-7.93-8.75-7-6.73,5.51,4.52.51,1.83,4.82,5.4-2.46-1.77-4.4-4-6.55-5.87,2.36,1.8.16-1.12-2.83-4.38-1.44-1.28-5-5-7.44-7.16.49,1.12-1.66-.66,1.94,3.1a64.06,64.06,0,0,1-5.77-5.8c1,.88,2.65,2.46,2.65,2.23-1.22-1.8-3-3.56-3.85-4.66l-2.38-2.28a4.13,4.13,0,0,1,.45.68L230.8,101c3.59,3.3,1.44,1.74,1.21,1.89.47-.28-2.17-2.27-3.36-3.44l2.17,3c-1.44-1-4.09-4.66-3.83-3.62,5.28,5.59,7.43,7.61,12.47,12.41l-1.69-2.3c5.76,5.33,2.89,4,9.13,10.16,2.87,2.3,9.38,9.34,10.07,8.91-1-.61,3.38,4.37,5.77,6.25,2.87,1.84,10.06,8.91,8.14,6.51-1.92-1.93-4.8-4.24-6-6.12l3.84,3.63-2.17-2.73C267.71,136.84,267.86,136.44,267.68,135.45ZM211,101.53l.14.15-.16-.17Z" transform="translate(-119.22 -68.16)"/><path class="cls-1" d="M253.21,391.66c-1,1.2-3.62,3.84-2.83,3.59C250,395,255.08,390.46,253.21,391.66Z" transform="translate(-119.22 -68.16)"/><path class="cls-1" d="M249.74,394.54c-.12.26.13.25-1.05,1.45l3.2-3.36Z" transform="translate(-119.22 -68.16)"/><path class="cls-1" d="M244.35,395.81a45.91,45.91,0,0,1-5.09,5.76c-1.74.26,4.14-4.56,4.66-6.45-4.94,4.8-5.79,6.94-9.74,11C236.48,404.45,244.76,396.52,244.35,395.81Z" transform="translate(-119.22 -68.16)"/><polygon class="cls-1" points="126.36 324.56 123.82 327.44 124.13 327.21 126.67 324.34 126.36 324.56"/><path class="cls-1" d="M310.63,340.45c.48,0,1.94-1.93,2.79-2.89A26.22,26.22,0,0,0,310.63,340.45Z" transform="translate(-119.22 -68.16)"/><path class="cls-1" d="M277.21,343.22,256.78,364.1Z" transform="translate(-119.22 -68.16)"/><path class="cls-1" d="M377.69,270.39c-5.33,5.76-7.4,8.62-12.95,14.37,7.89-7,9.09-10.54,15.81-16.3Z" transform="translate(-119.22 -68.16)"/><path class="cls-1" d="M377.56,274.17c-1.35.49,3.78-4.78,2.65-4.29-3.63,3.84-1.32,2.15-4.76,5.5Z" transform="translate(-119.22 -68.16)"/><polygon class="cls-1" points="226.05 224 227.51 222.09 226.24 223.53 226.05 224"/><polygon class="cls-1" points="258.82 170.91 259.53 171.43 256.89 168.51 258.82 170.91"/><path class="cls-1" d="M379.47,240.1l-.71-.51Z" transform="translate(-119.22 -68.16)"/><polygon class="cls-1" points="227.28 220.91 224.69 223.32 223.65 224.75 227.28 220.91"/><path class="cls-1" d="M370.89,269.33l-2.09,2.37C369.21,271.23,372.45,268.35,370.89,269.33Z" transform="translate(-119.22 -68.16)"/><polygon class="cls-1" points="242.02 153.74 239.13 151.19 239.37 151.51 242.24 154.06 242.02 153.74"/><path class="cls-1" d="M379.48,253.65c.2.53-.42-.05-.9-.5l-.5-.47a3.19,3.19,0,0,0-.37-.31s0,0,.08.18l.27.34.19.24a1.29,1.29,0,0,1,.13.18C379.8,254.63,379.52,254,379.48,253.65Z" transform="translate(-119.22 -68.16)"/><path class="cls-1" d="M349.59,219.24c-.37-.37-.77-.74-1.18-1.08Z" transform="translate(-119.22 -68.16)"/><path class="cls-1" d="M349.59,219.24c1.18,1.19,2.24,2.5,3.15,3.21A22.42,22.42,0,0,0,349.59,219.24Z" transform="translate(-119.22 -68.16)"/><path class="cls-1" d="M335.93,205.74l1.05,1.1c-1.26-.94-.71-.44.4.41,1.15,1.13,1.19,1,1.4,1l.83.57-1.06-.81C336.79,206.26,335.7,205.2,335.93,205.74Z" transform="translate(-119.22 -68.16)"/><path class="cls-1" d="M291.1,149.7c3.85,4.09,4.81,5.18,4.34,5.22,3.68,3.85,3.54,2.82,5.92,5C297.05,155.7,296.29,154.71,291.1,149.7Z" transform="translate(-119.22 -68.16)"/><path class="cls-1" d="M301.36,159.91l1.51,1.47C302.25,160.75,301.78,160.3,301.36,159.91Z" transform="translate(-119.22 -68.16)"/><polygon class="cls-1" points="229.76 156.27 226.89 154.2 227.85 155.05 229.76 156.27"/><path class="cls-1" d="M285.34,143.68c.72.75,1.91,1.92,2.4,2.59C288.21,146.22,284.62,142.93,285.34,143.68Z" transform="translate(-119.22 -68.16)"/><path class="cls-1" d="M295.58,164.05c.25.56,2.88,3,3.86,4.1C298,166.63,297.25,165,295.58,164.05Z" transform="translate(-119.22 -68.16)"/><path class="cls-1" d="M272.89,133.36c.72.75,1.68,2.06,1,1.78C275.06,136.08,277,137.07,272.89,133.36Z" transform="translate(-119.22 -68.16)"/><polygon class="cls-1" points="169.16 88.59 169.63 89.24 172.52 91.79 169.16 88.59"/><path class="cls-1" d="M294.25,170.25c3.36,2.74-4.1-5.59,1.42-.59-6.46-7.11.09,1-4.87-4.1C293.63,168.6,294.67,170.42,294.25,170.25Z" transform="translate(-119.22 -68.16)"/><path class="cls-1" d="M290.8,165.56c-.41-.44-.86-.91-1.36-1.41Z" transform="translate(-119.22 -68.16)"/><path class="cls-1" d="M249.76,120.62c.48.41.82.68,1.13.92C250.52,121.22,250.15,120.92,249.76,120.62Z" transform="translate(-119.22 -68.16)"/><path class="cls-1" d="M274.56,149.83l5,4.11c-3.37-2.75-11-10.46-11-9.52a61.9,61.9,0,0,0,6.95,6.49Z" transform="translate(-119.22 -68.16)"/><path class="cls-1" d="M230.36,88.93l2.16,1.79-2.41-2.52C230.74,89,229.13,88,230.36,88.93Z" transform="translate(-119.22 -68.16)"/><path class="cls-1" d="M229.64,87.71l.47.49A6.05,6.05,0,0,0,229.64,87.71Z" transform="translate(-119.22 -68.16)"/><path class="cls-1" d="M258.64,129.06c1.45,1.51,2.65,2.68,4.08,3.95C262.24,132.36,258.64,128.59,258.64,129.06Z" transform="translate(-119.22 -68.16)"/><polygon class="cls-1" points="96.54 7.51 99.89 10.7 96.29 7.17 96.54 7.51"/><polygon class="cls-1" points="77.64 22.37 78.11 23.02 80.98 25.56 80.5 24.91 77.64 22.37"/><path class="cls-1" d="M212.18,88.64c2.16,2.26,4.3,3.58,3.81,2.91l-4.31-4.27c.73,1.45,1.2,1.18,3.6,3.76Z" transform="translate(-119.22 -68.16)"/><path class="cls-1" d="M310.61,202.93c-1.2-.72-5.76-5.55-5.77-6,.73.53,3.37,3,1.92,1.24L302.45,195c-4.57-5.31,4.53,3,7.18,5.2-4.95-5.11-6.84-6.21-12.19-11.57a37.13,37.13,0,0,1,3.09,3.75c-.24.6-5-4.58-8.64-8.11,2.09,2.45.62,1.29-1.2-.2a6.06,6.06,0,0,0-.7-.57l-.62-.5.43.42c-.08,0,0,.17.19.56,3.12,2.87,5.05,5.5,7,7.44-1.22-2.59,6.72,6.4,9.35,8.61l2.87,2.73,1,1c.14.29-.25.08-2-1.37,1.47,1.19,5.86,5.68,5.66,5.05l10.15,10.12a12.32,12.32,0,0,1,.75,1c.39.3.49.33.47.25Q343.9,237.42,362.48,256l-.14.18.3-.18a1.61,1.61,0,0,0-.25-.69c.56.11.47,0,.23-.3l-.08-.1-.21-.22c-.3-.32-.58-.61-.8-.87-.44-.5-.63-.81-.28-.67.42.34.87.74,1.32,1.16a3.25,3.25,0,0,0,.36.32l.17.18a2.56,2.56,0,0,1,.48.66.32.32,0,0,0,.37-.26c.05-.16.07-.37.29-.41a7.32,7.32,0,0,0-.62-.7c-.06-.06-.81-.77-1.26-1.17-1-.89-1.9-1.59-2.8-2.28a46.54,46.54,0,0,1-6.23-5.54c.48,0,2.38,1.41-1.21-2.12l1,.85c-6-5.41-3.86-5-8.16-7.91l.47-.28c-2.87-2.3-7.91-7.33-10.8-10.12l.24.1c-8.38-7.53-4.56-4.38-13.67-13.14l4.55,3.68c-2.91-3.26-4.07-3.48-6.24-5.75.23.09,0-.7,2.15,1.33l-11.51-10.18C307.24,199.26,310.36,202.37,310.61,202.93Z" transform="translate(-119.22 -68.16)"/><path class="cls-1" d="M297.44,188.65c-.55-.59-1.19-1.25-2-2Z" transform="translate(-119.22 -68.16)"/><path class="cls-1" d="M362,256.5l.31-.32A.87.87,0,0,0,362,256.5Z" transform="translate(-119.22 -68.16)"/><path class="cls-1" d="M281.09,173.93c1.68,2.07-1.68-1.14-2.15-1.33l6.74,6.73c.11-.17.94.33.94.07Z" transform="translate(-119.22 -68.16)"/><path class="cls-1" d="M287.36,181.55a12.89,12.89,0,0,1,2,1.47l-3.69-3.69C285.59,179.46,285.91,180,287.36,181.55Z" transform="translate(-119.22 -68.16)"/><polygon class="cls-1" points="175.09 105.01 176.29 106.19 178.21 107.89 175.09 105.01"/><path class="cls-1" d="M312.32,192.45a43.19,43.19,0,0,0-5-5C310.41,190.53,309,189.26,312.32,192.45Z" transform="translate(-119.22 -68.16)"/><polygon class="cls-1" points="191.59 118.11 194.71 120.99 194.48 120.66 191.59 118.11"/><path class="cls-1" d="M341.43,280,340,281.51C340.66,280.84,341.09,280.39,341.43,280Z" transform="translate(-119.22 -68.16)"/><path class="cls-1" d="M364.15,256.59c-1,.72-1.06.57-1,.31s.43-.7.39-.9a.69.69,0,0,0-.67-.06l.09.06a3,3,0,0,1-.27.6l-.15-.14-.33.38-2.1,2.15c1.22-.73,2-1.45,2-1-6.45,6.24-2.31,1.69-7.29,6l-7,7.14.5-.65a7.31,7.31,0,0,0-1,1.14l-23.73,24c-4.14,4.56,2.87-1.93,0,1.65,5-5,12.8-12.25,12.71-13.19-.09.24-.29.71.8-.25l2.49-3.33-2.92,2.64c2.51-3.35,12.06-12.72,14-14.17-5.24,5.53-2,3.33-9.8,10.55.47-.2,2.07-1.35.45.41,4.32-4.46,8.5-8.6,12.69-12.82,2.09-2.11,4.19-4.24,6.3-6.44L362,259.1l.79-.84.39-.41.12-.14C363.62,257.32,363.91,257,364.15,256.59Z" transform="translate(-119.22 -68.16)"/><path class="cls-1" d="M279,342.26l0-.12C278.87,342.32,278.84,342.39,279,342.26Z" transform="translate(-119.22 -68.16)"/><path class="cls-1" d="M282,339.37l3.78-4.78-6.63,6.71-.14.84a29.5,29.5,0,0,1,3.71-4Z" transform="translate(-119.22 -68.16)"/><path class="cls-1" d="M290.43,329.31c-3.29,3.6-2.69,3.83-.62,2.14-3,3.36-2.12,1.22-3.85,3.84.37.23,4.09-3.85,4.93-4.8Z" transform="translate(-119.22 -68.16)"/><polygon class="cls-1" points="196.86 235.94 196.06 237.08 198.5 234.74 196.86 235.94"/><path class="cls-1" d="M315.29,305.24l-2.42,2.33a2.2,2.2,0,0,0,1.05-.37Z" transform="translate(-119.22 -68.16)"/><path class="cls-1" d="M306.53,313.67c-1,1-2.17,2.05-3.53,3.39Z" transform="translate(-119.22 -68.16)"/><path class="cls-1" d="M309.35,311.06l-.14,0-2.68,2.58Z" transform="translate(-119.22 -68.16)"/><path class="cls-1" d="M312.87,307.57c-.68.09-1.44.23-4.78,3.74l1.12-.22Z" transform="translate(-119.22 -68.16)"/><polygon class="cls-1" points="212.97 140.38 215.85 142.92 215.61 142.59 212.73 140.04 212.97 140.38"/><path class="cls-1" d="M347.57,224.44c.72.62,1.28,1.07,1.8,1.48A16.21,16.21,0,0,0,347.57,224.44Z" transform="translate(-119.22 -68.16)"/><path class="cls-1" d="M361.19,234.07c2.89,3.48-4.79-4,1,2,.24.79-2.88-1.63-5.52-4.54.48,0,2.87,2.54,1.43.57-2.15-1.55-2.65-2.45-2.39-1.42-3.35-2.86-4-2.94-6.33-4.79,3.92,3.58,11.41,11.87,16.67,16.13,3.1,2.16,2.14-.07,2.82-.73C368.63,240.76,361.89,233.88,361.19,234.07Z" transform="translate(-119.22 -68.16)"/><path class="cls-1" d="M356.85,228.38A36.69,36.69,0,0,0,354,225.6C354,226.07,355.64,227.2,356.85,228.38Z" transform="translate(-119.22 -68.16)"/><path class="cls-1" d="M361.56,268.76c-.19.38-2.74,3.16-2,2.75l3.93-4.16A6.71,6.71,0,0,1,361.56,268.76Z" transform="translate(-119.22 -68.16)"/><path class="cls-1" d="M365.21,265.52l-1.72,1.83C363.94,266.91,364.48,266.35,365.21,265.52Z" transform="translate(-119.22 -68.16)"/><path class="cls-1" d="M361.31,268.89l.25-.13C361.59,268.68,361.56,268.67,361.31,268.89Z" transform="translate(-119.22 -68.16)"/><path class="cls-1" d="M296.54,323.32c-.13-.24-1.82,1.67-2.67,2.63C294.62,325.23,295.72,324.26,296.54,323.32Z" transform="translate(-119.22 -68.16)"/><path class="cls-1" d="M229.38,391.94l-1.74,1.44A13.82,13.82,0,0,0,229.38,391.94Z" transform="translate(-119.22 -68.16)"/><path class="cls-1" d="M209.88,421.54a1.38,1.38,0,0,1-.23.42A1,1,0,0,0,209.88,421.54Z" transform="translate(-119.22 -68.16)"/><path class="cls-1" d="M209.65,422c-.93,1.24-4.53,4.36-5.51,5.8l.09-.22-1.06,1.19-.39.44c-.05.07-.13.15-.16.2l-.08.12-.15.23A20.38,20.38,0,0,1,204,428l2.25-2.31A42,42,0,0,0,209.65,422Z" transform="translate(-119.22 -68.16)"/></svg>