<svg id="Calque_1" data-name="Calque 1" xmlns="http://www.w3.org/2000/svg" viewBox="0 0 271.97 371.64"><defs><style>.cls-1{fill:#202020;}</style></defs><title>prev</title><path class="cls-1" d="M358.08,86.31c1.6-1.67,3.24-2.88,2.73-2.16,3.06-3.6,3.43-3.37,3.35-4.32,1.88-2.39,4.51-4.31,2.29-1.67l5.85-6.48-3.77,3.6a19.47,19.47,0,0,1,3.31-3.62l.56-.55.14-.14.07-.07.31-.27.3-.25.29-.24.15-.12.26-.18c.4-.25.8-.48,1.2-.68a7.51,7.51,0,0,1,1-.4c.32-.09.61-.22.89-.27.56-.12,1-.22,1.38-.33l-.68,0a7,7,0,0,0-1.76.35,5.41,5.41,0,0,0-1.2.47c-.23.11-.46.24-.7.38l-.35.22a1.82,1.82,0,0,0-.27.19l-.66.54,0,0-.3.27-.07.07-.16.16-.31.31-3.31,3.36.19-.48a68.53,68.53,0,0,1-5.47,5.53c.09-.24-.12-.25,1-1.44-8.09,8-1.42,2.92-8,9.75C356.8,87.5,357.32,87,358.08,86.31Z" transform="translate(-119.22 -68.16)"/><path class="cls-1" d="M350.19,92.1l-2.27,3.35L343.07,100c.13.24-3.15,3.82-.66,1.66.42-.48,1.27-1.44,2-2.14-.13.92-6.07,6.46-4.27,5.48,3.62-3.83,4.28-4.31,6.24-6.93,3.46-3.38,6-5.78,7.78-7.23.95-1.07.85-1.46,2.09-2.8l-.86.89-.74-.46a43.28,43.28,0,0,1-3.21,3.36l4.81-6.22c-2.34,1.21-7.43,7-9.83,8.9C349.63,92.35,344.55,96.92,350.19,92.1Z" transform="translate(-119.22 -68.16)"/><path class="cls-1" d="M356.26,88.06l.13-.13Z" transform="translate(-119.22 -68.16)"/><path class="cls-1" d="M318.71,364a5.84,5.84,0,0,0-1.91-1.46L330,375.7c-.25-.57-3.86-4.57-1.22-2.12a29.1,29.1,0,0,0-5.28-4.9l1.2.71c-3.35-2.73-4.82-5.41-2.65-3.61l-.26-.26-9.62-7.23C315.21,361.45,315,360.26,318.71,364Z" transform="translate(-119.22 -68.16)"/><path class="cls-1" d="M369.86,90c-1.65,1.76-1.8,2-1.55,1.89C368.88,91.25,369.41,90.61,369.86,90Z" transform="translate(-119.22 -68.16)"/><path class="cls-1" d="M309.93,356.6l-3-2.27A36.43,36.43,0,0,0,309.93,356.6Z" transform="translate(-119.22 -68.16)"/><path class="cls-1" d="M333.89,369.21s.07,0,0-.1l-1.37-1,0,0Z" transform="translate(-119.22 -68.16)"/><path class="cls-1" d="M248.62,298.09l-.89-.84Z" transform="translate(-119.22 -68.16)"/><path class="cls-1" d="M371.78,402.85l-6.22-5.51c.95.61-1.94-2.17-.5-1.13-.47-.42-2.64-2.45-2.15-1.79l1.2,1.18c-3.59-2.6-1.9-.53-7.41-5.29a31.82,31.82,0,0,0,6.47,6.07l1.6,1.47,5.58,4.19Z" transform="translate(-119.22 -68.16)"/><path class="cls-1" d="M290.88,174.61l0,.1C290.9,174.64,290.89,174.62,290.88,174.61Z" transform="translate(-119.22 -68.16)"/><path class="cls-1" d="M290.75,175.13l.1-.42C290.61,175.11,289.48,176.39,290.75,175.13Z" transform="translate(-119.22 -68.16)"/><path class="cls-1" d="M311.22,357.25a3.72,3.72,0,0,1-1.29-.65l2.25,1.69Z" transform="translate(-119.22 -68.16)"/><path class="cls-1" d="M316.78,360.65l5,4.87,2.08,1.57C321.89,365.29,319.61,363.15,316.78,360.65Z" transform="translate(-119.22 -68.16)"/><path class="cls-1" d="M256.14,306.19c-10.31-10.16,3.1,1.94-1.46-2.91-2.92-2.78-4.2-3.5-6.06-5.19,8.36,7.89-2-.19,6.33,7.86-1.66-.67-6.45-5.37-9.1-8.28-2.66-3.63,3.11,2.39,4.29,2.64-3.36-3.21-2.87-2.55-4.54-3.67-5-5.28-11.27-10.09-13.69-13.84-3.84-3.63-3.82-3.16-6.23-5.05-.94.08,5.29,5.83,6.27,7.62-.24-.33-.72-1-.48-.89l3.12,3.34c-2.89-3.25.94-.09,2.62,1.51,1.21,1.18,3.6,3.53,3.13,3.34L238.42,291c2.16,2.49,5.51,4.75,7.68,7.48,0,.25-1-.63-1.18-.7,3.1,2.4,5.73,5.07,10.05,8.89l-2.87-1.84c3.82,2.69,11,10.22,15.84,15.63-.48-.66-1.44-1.74-.73-1.22,3.13,2.88,5,5.49,3.38,4.37,3.36,2.51,10.82,11.53,15.36,15l21,15.77c-.75-.62-1.54-1.3-2.32-2-1.22-2.12-2.18-3,1.17-.46-3.11-2.64-2.37-1.18-6.71-5.47,1.92,1.46,2.87,1.38-1.22-2.81-10.78-9.89-18.91-15.46-29.21-24.46,0-.71-7.69-8.19-11.29-11.95,1.78,1,4.62,3.66,7.53,6.42l-7.07-7.17Z" transform="translate(-119.22 -68.16)"/><path class="cls-1" d="M281.31,329c-.23-.29-.48-.57-.74-.86A8,8,0,0,0,281.31,329Z" transform="translate(-119.22 -68.16)"/><path class="cls-1" d="M265.72,314.44s0,0,.07,0l-.92-.87Z" transform="translate(-119.22 -68.16)"/><path class="cls-1" d="M309.58,354.05c.71.51,1.2.94,1.91,1.45l-1.4-1.22C309.61,353.89,309.35,353.73,309.58,354.05Z" transform="translate(-119.22 -68.16)"/><path class="cls-1" d="M311,356.72l-.47-.19.65.72C311.37,357.24,311.36,357.1,311,356.72Z" transform="translate(-119.22 -68.16)"/><path class="cls-1" d="M220.13,263.92l-1.06-.9A6,6,0,0,0,220.13,263.92Z" transform="translate(-119.22 -68.16)"/><path class="cls-1" d="M245.32,294.2c3.6,3.52.94-.09,6,4.94l-1.45-1.51c3.83,3.4,10.09,9.85,14.4,14.13-.69-.28,2.36,2.86,1.53,2.67a73.42,73.42,0,0,0,7.84,6.88c1.71,1.93,4.76,4.41,6.94,6.86-.78-1.17,3.95,2.63-1.92-2.76.48.43.24.1.72.52-3.36-3.89-5.27-4.89-8.4-8-1.68-2.06,3.36,2.75,1.67.91-4.07-3.72-12-12.47-12.47-11.5a22.68,22.68,0,0,1-3.83-4.31c-5.26-3.73-16.34-17-17.28-16,1.68,1.6,4.33,4.3,6.95,6.49Z" transform="translate(-119.22 -68.16)"/><path class="cls-1" d="M303.55,348.11l-.69-.7Z" transform="translate(-119.22 -68.16)"/><path class="cls-1" d="M345.67,395.9l-2.13-.85c-8.63-8.33-11.52-11.58-19-19-.48-.66.47.19,1,.62-5.29-5.14-13-13.08-17.05-16.58-1.65-1.67-5.8-6.22-4-4.76-.86-.75-1.84-1.62-2.75-2.57,0-.48,2.15,2,2.39,1.88-.72-.75-1-1.09-1.21-1.18,1.44,1-.5-2.07,5.26,3.72,1.7,2.78-4.07-3.94-3.34-2,1.91,1.92,1.92,1.47,2.15,1.56,2.43,2.46,2.22,2.54,2,2.54,1.12.76,3.94,4.08,5.51,5.1,4.79,4.7-.7.18,2.4,3.28l2.39,1.18,5,5.27c7.68,7.25,0-2.1,8.84,6.09-1.43-.81,1.46,3.14,5.31,7.23-2.4-2.35-7.18-6.35-10.07-9.59,3.86,4.79-6-5.9-4.3-3.12a84.35,84.35,0,0,1,8.63,8.33l-1-.86c2.89,3,5.76,4.63,9.6,8.95,2,2,1.49,1.8,1,1.58C344.15,394.34,345.8,395.76,345.67,395.9Zm-4.54-4.29-2.65-2.77A23.76,23.76,0,0,0,341.13,391.61Z" transform="translate(-119.22 -68.16)"/><path class="cls-1" d="M312.36,130.09l.87-.78C313,129.47,312.7,129.77,312.36,130.09Z" transform="translate(-119.22 -68.16)"/><path class="cls-1" d="M316,377.89l-1.55-1.59C315,376.94,315.51,377.44,316,377.89Z" transform="translate(-119.22 -68.16)"/><path class="cls-1" d="M278.75,344.64l-2.43-2.16C277.24,343.38,278,344,278.75,344.64Z" transform="translate(-119.22 -68.16)"/><path class="cls-1" d="M293.6,148.77l-.08.07-.33.39Z" transform="translate(-119.22 -68.16)"/><path class="cls-1" d="M209.49,272.56c-.3-.4-.65-.83-1.15-1.41A6.21,6.21,0,0,0,209.49,272.56Z" transform="translate(-119.22 -68.16)"/><path class="cls-1" d="M279.2,345l-.12-.15-.33-.24Z" transform="translate(-119.22 -68.16)"/><path class="cls-1" d="M329.74,395.16l1.07.95C330.32,395.65,330,395.38,329.74,395.16Z" transform="translate(-119.22 -68.16)"/><path class="cls-1" d="M329.23,391.25c.38.35.74.67,1,.92Z" transform="translate(-119.22 -68.16)"/><path class="cls-1" d="M385.55,419l-2.2-2C384.4,418,385.05,418.61,385.55,419Z" transform="translate(-119.22 -68.16)"/><path class="cls-1" d="M334.43,397.24c.15.09.3.19.41.24C334.53,397.21,334.36,397.11,334.43,397.24Z" transform="translate(-119.22 -68.16)"/><path class="cls-1" d="M327.58,118.44l-.13.13,0,.13Z" transform="translate(-119.22 -68.16)"/><path class="cls-1" d="M331.85,112.43l1.8-1.9C333,111.21,332.31,111.9,331.85,112.43Z" transform="translate(-119.22 -68.16)"/><path class="cls-1" d="M208.56,234.21c.64-.48,2.06-1.68,1.55-1C211.05,232,210.68,231.81,208.56,234.21Z" transform="translate(-119.22 -68.16)"/><path class="cls-1" d="M321,132.5c.25-.42.61-.9,1-1.38C321.31,132,320.69,132.75,321,132.5Z" transform="translate(-119.22 -68.16)"/><path class="cls-1" d="M322,131.12l1-1.28C322.65,130.28,322.31,130.71,322,131.12Z" transform="translate(-119.22 -68.16)"/><path class="cls-1" d="M202,251.82a.8.8,0,0,0-.12.54C202,252.28,202,252.09,202,251.82Z" transform="translate(-119.22 -68.16)"/><path class="cls-1" d="M335.25,109.12c.19-.48,8-8.86,1.09-2.14-.18-.71,4.15-4.57,5.85-6.49-1.42,1.21.37-.94-.19-.7a47.71,47.71,0,0,1-3.3,3.61c-.88.47,1.23-1.92,3.07-3.6-2.41,1.93,2.39-3.1-.85-.21-6.4,6.71-10.87,11.5-14.83,16.76,3.63-3.84,7.67-8.15,10.92-11L336.1,107c-3.8,3.13-5.68,5.52-9.13,8.89l7.86-7.45c3.91-3.26,1.58-.79-1.18,2.11A10.24,10.24,0,0,1,335.25,109.12Z" transform="translate(-119.22 -68.16)"/><path class="cls-1" d="M333.47,117.65l.14-.11a4.52,4.52,0,0,0,.28-.37Z" transform="translate(-119.22 -68.16)"/><path class="cls-1" d="M378.15,427.2l-.8-.51C378,427.17,378.18,427.3,378.15,427.2Z" transform="translate(-119.22 -68.16)"/><path class="cls-1" d="M327,120.36h0Z" transform="translate(-119.22 -68.16)"/><path class="cls-1" d="M373.42,422.14l.12.06A.43.43,0,0,0,373.42,422.14Z" transform="translate(-119.22 -68.16)"/><path class="cls-1" d="M360.75,426.06a.7.7,0,0,0,.06.17C361.18,426.55,361,426.37,360.75,426.06Z" transform="translate(-119.22 -68.16)"/><path class="cls-1" d="M373.37,422.17s0,0,.05,0S373.35,422.13,373.37,422.17Z" transform="translate(-119.22 -68.16)"/><path class="cls-1" d="M292.42,344s.18.31.51.77C293.12,344.93,293,344.74,292.42,344Z" transform="translate(-119.22 -68.16)"/><path class="cls-1" d="M307.55,360.31c.08.11.14.18.24.33Z" transform="translate(-119.22 -68.16)"/><path class="cls-1" d="M203.11,236.19c-.78.77-1.35,1.36-1.83,1.87C201.86,237.5,202.47,236.89,203.11,236.19Z" transform="translate(-119.22 -68.16)"/><path class="cls-1" d="M373.54,422.2a8.62,8.62,0,0,1,.92.65A7.86,7.86,0,0,0,373.54,422.2Z" transform="translate(-119.22 -68.16)"/><path class="cls-1" d="M266.53,322l.53.44-.27-.3Z" transform="translate(-119.22 -68.16)"/><path class="cls-1" d="M258.62,313.56a6.86,6.86,0,0,0,.7.44c-3.09-2.76-8.29-8.31-9.33-8.54,1,1,5.91,6.37,4.79,5.73,2.14,1.94,4.87,5.24,6,6.27-3.12-3.57,0-.71,2.38,1.42,1.94,2.17-.71-.06,1,1.78l4.8,4.71-4.09-4.19,1.65.86-.45-.38C258.88,314.83,266.06,320.48,258.62,313.56Z" transform="translate(-119.22 -68.16)"/><path class="cls-1" d="M259.32,314c.46.41.88.77,1.22,1A7,7,0,0,0,259.32,314Z" transform="translate(-119.22 -68.16)"/><path class="cls-1" d="M231.34,284.73l-1.3-1.18Z" transform="translate(-119.22 -68.16)"/><path class="cls-1" d="M327.33,370.67c0,.24,3.85,4.56,4.08,4.18l-3.57-3.75Z" transform="translate(-119.22 -68.16)"/><path class="cls-1" d="M241,206.06c-.46.45-.92.9-1.37,1.36l-.22.31A17.63,17.63,0,0,0,241,206.06Z" transform="translate(-119.22 -68.16)"/><path class="cls-1" d="M253.38,310.07a9.26,9.26,0,0,0,1.4,1.12A11.17,11.17,0,0,0,253.38,310.07Z" transform="translate(-119.22 -68.16)"/><path class="cls-1" d="M241.93,206.52a9.25,9.25,0,0,1,1.89-1.22c1.18-1.18,1.86-2.17,3-3.43A65.85,65.85,0,0,1,241.93,206.52Z" transform="translate(-119.22 -68.16)"/><path class="cls-1" d="M246.92,201.76l-.09.11Z" transform="translate(-119.22 -68.16)"/><path class="cls-1" d="M325,368.11l-1.15-1,.64.48-2.71-2.9c-.36-.32-.75-.66-1.21-1.1a1.89,1.89,0,0,0,.49.33l-.87-.94c-2.55-1.92-8.34-7.26-10.13-8.68-2.26-2-4.93-4.51-6.54-6.17,1.5,1.52,3.57,3.47,3.14,2.69-2.88-3.25-3.86-5.26-9.6-10.11l3.11,3.1-7.65-6.31c-2.17-2.73,3.82,3.15,5,3.88-5.76-5.11-9.39-10.51-12.49-12.44,0-.7,0-1.87-3.63-5.4,2.17,3-2.39-1.89-.7.64-1.43-1-3.85-4.1-4.32-4.05l.48.19c-5.54-6.63-8.39-7.76-11.27-10.08-7.43-7.15-10.56-10.72-16.56-16.61,0-.46-1-2.72-3.39-5.08-1.42-.79-6.94-6-7.89-6.17,4.09,4.43,3.82,3.15,6.47,5.61,1.7,2.54-.23.61,2.42,3.76-2.18-2.51-10.8-10.36-13-13.32l1,.85c-3.85-4.33-3.64-6.11-11.06-12.33l-3.5-3a1.4,1.4,0,0,0,.38.14c-2.64-2.69-3.48-3.78-4.45-4.89-.24-.28-.48-.55-.78-.87s-.67-.69-1.1-1.12c-.86-.84-2-1.92-3.81-3.54.56.5.31.17.87.67-.71-.8-1.45-1.58-2.23-2.35,1.42-1.43,2.69-2.86,3.94-4.28l1.83-2.08,1.54-1.72c1.88-1.21,0,.7-.76,1.9A180.07,180.07,0,0,0,230.63,229l4-3.6c-2.12,2.39-4.52,5.5-3.63,5a62.35,62.35,0,0,1,4.48-4.8,34.44,34.44,0,0,1-2.45,3.82c6.47-5.76.61-2.13,5.54-5.75,1.93-1.92,2.73-3.35,2.68-3.81l3.82-3.15c.06-.71,4.34-5,7.1-7.89.21-.49-2.61,1.91-3.55,3.11-.05-.47,2.82-3.59,4.75-5.51,1.4,0,12.52-12.71,11.05-9.62,8.43-8.88,20.52-21.11,25.94-27.11,2.08-1.69,5.92-5.52,3.95-2.89,7-7,9.85-11.27,16.95-18,.66-.49-3.12,3.13-2.64,3.11,4.24-4.79,8.51-7.93,15.34-15.12a5.6,5.6,0,0,0-1.46,1.91c-.24,0,2.64-3.11,4.34-5,1.08-1-1.28,1.45-.62,1,13.88-13.21,23.27-24.47,36.77-37.91-3.86,3.84-4.85,5.75-4.71,6L362.06,99c1.22-1.68,4.05-4.51,6.25-7,.37-.2,1.62-1.26.55,0a91.68,91.68,0,0,0,9.53-10l2.22-2.57.28-.33.17-.26a1.89,1.89,0,0,0,.31-.53,3.33,3.33,0,0,0,.31-1.21,3.38,3.38,0,0,0-.14-1.26c-.08-.2-.12-.46-.22-.55a1.47,1.47,0,0,1-.1-.22l0-.06-.09-.1-.17-.21-.34-.41,0,0h0c.24.27.07.07.12.13h0l0,0-.07,0-.14-.11-.27-.23-.32-.16a3,3,0,0,0-.55-.24c0-.06-.26-.08-.46-.1l-.59-.07h.67a1.63,1.63,0,0,1,.32,0l.2,0,.25,0,.33.13a2.41,2.41,0,0,1,.74.39l.09.06.05,0h0s.1.1-.09-.11v0l.23.23c.15.16.31.32.46.49a4.32,4.32,0,0,1,.76,1.87,4.46,4.46,0,0,1-.41,2.25,7.65,7.65,0,0,1-.65,1l-.77.9-1.58,1.87,3.05-2.41-4.43,5.28c3.14-2.69,5.13-5.63,5.74-6a2.72,2.72,0,0,1-.48.81l-.33.44-.33.37c-.43.48-.77.9-.7,1a13.36,13.36,0,0,0,1.76-1.79,3.55,3.55,0,0,0,.53-.88,3.67,3.67,0,0,0,.31-.83c.05-.27.11-.53.17-.8s0-.55,0-.85a4.65,4.65,0,0,0-.1-1,4.74,4.74,0,0,0-.29-1.1,5.33,5.33,0,0,1,.28,3.74,5.66,5.66,0,0,1-1,2c-.12.15-.24.34-.35.46l-.32.36-.66.74c-1.78,2-3.76,4.1-5.77,6.21L365,99.77c-.86,1,.62-1,.71-1.19-2.36,2.4-4,3.61-6.87,6.72-1.56,2.15,1.64-1.2,3.14-2.64.06.46-.7,1.19-2.3,2.87-.7,0-9.13,8.88-11.67,10.58-8.66,8.88,2.3-.51-6.41,7.9l-3,2.16c-4.66,5.28-10.82,12-16.53,17.52l1.18-1.2c.62-1-.79.24-1.46.73-4.42,4.08-7.76,8.38-10.73,10.56-4.42,5.27-12.19,13.66-17.52,19.42-2,1,6.79-7.67,8.77-10.3l-5,5a46.36,46.36,0,0,0,5.72-6.72c-4.52,4.33-5.52,6.24-9.58,10.56.18-.47-.46,0-2.4,1.93l-.2.9a4.21,4.21,0,0,0-.93.77l-7.24,7.67c1.73-1.44,2.11-1.21,4-3.13-.89.48.7-1.19,2.63-3.11-1.46,1.91,2.07-1.69,2.22-1.47-3.87,3.86-8.58,8.66-11,11.28l-1.14.51c-3.76,3.6-7.47,7.67-10.07,10.07l.62-.95c-4.51,4.32-8.66,8.88-12.9,12.49-3.57,4.31-8.23,9.57-11.07,13.17-1.32,2.14-12.09,11.06-16,16.08-.35.25,2.74-3.36,4.1-5-3,2.9-4.86,5.76-6.22,6.25,6.78-6.49-.7,0,2.17-3.1-3.1,3.12-6.3,6.47-7.67,8.15,5-5-1.19,2.38,3.72-2.9-1.71,2.05-3.79,4.38-6,6.74-.71.76-1.44,1.52-2.16,2.28-.53.54-1.08,1.06-1.66,1.59.11.11.2.22.29.32-.37,0-.26.28.55,1.25,0,0,1.1.56,1.08.54.5.55-.1.11-.62-.24s-1-.61.2.65a11.51,11.51,0,0,1,1.47,1.23c.72.66,1.47,1.39,2.24,2.15l4.7,4.74c3.09,3.12,5.92,5.88,7.34,6.45,3.13,3.81-7-6.27-2.13-.62-3.35-2.73-7.2-7.29-8.63-7.86,3.11,2.86.73,1.45,2.65,3.38l3.59,3.06-.72-.75c6,5.18,14.64,14.22,21.84,21.28,6.47,5.6,11.25,9.14,18.44,16.43-2.39-1.88,5.78,6.26.75,2.16,3.13,3.58,6.71,6.62,7,6.5-2.89-3-1-1.09-3.37-3.67a65,65,0,0,1,7.2,7.06c-.72-.75-.49-.43-.72-.52,3.37,3.68,1.91,1.46,4.55,3.92.49,1.12,5.54,5.7,7.7,8.19l3.82,2.91c-2.15-1.55,3.12,3.34,3.38,4.15a83.87,83.87,0,0,1,8.62,7.62c-1.68-1.36,3.13,3.58,2.89,3.95,6,6.59,11.26,9.61,16.79,16-.25-.11-1.65-1.12,0,.7,1.46,1.29,3.83,3.73,5.34,5.17l-.06,0,.09.07c.73.7,1.22,1.12,1.31,1.06,2.81,2.22,4.41,3.22,9.62,7.92,0-.71-4.34-4.75-6.26-6.45l-1.9-1.23c-1-2-4.56-4.37-5.52-5.69,3.58,2.36,12,11.07,17.49,15.83-2.65-3.61-9.38-10.5-15.38-16.38l2.41,2.82-3.11-3.1,2.64,3.38c-2.88-3-5.52-5.46-8.16-8.14,3.12,3.11,3.86,4.8,2.17,3-3.13-3.81-3.84-3.4-6.47-6.07,1.45,1.51,3.36,3.43,1.93,2.39-4.82-5.64-6.5-6.79-10.82-12,0,1.17-6-5.89-7.19-6.13l2.16,2.26-5-4.34c-3.85-4.79,4.31,3.35-1.94-3.56-6-6.12-6.45-5.36-11.27-10.09a78.26,78.26,0,0,1,9.83,8.59l-2.17-2.5c1.43,1,6.72,6.4,9.35,9.08-4.78-4,1.94,2.17,3.63,4.48.7,0-2.18-2.73,1.42.33-3.13-3.11-3.61-3.54-7.45-7.63,8.42,8.73,8.85,6.57,16.06,14.33-3.6-3.3.73,1.68,1,2.25,1.66,1.59,5,4.8,6.47,6.07l-.75-1.7c4.57,4.15,5.07,6.68,10.6,11.22.94.37-4.33-4.52-3.37-3.67,7.18,6.58,8.9,9.83,14.65,16.3.49.21.72-.17,3.11,1.72-1-.39.48,1.34-2.13-.85a77.85,77.85,0,0,0,6.46,6.06c-4.08-4.42,2.16,1.33,3.11,1.95,2.16,2.25-1-.39-2.39-1.66,1.69,1.84,3.37,4.37,4.8,4.94-.23.38-5.74-4.15-9.09-7.35l2.16,2.26a35.37,35.37,0,0,1-4.07-3.94c1.92,2.38,1.45,2.43.73,2.14-.24-.33.23.08,0-.23-1.69-1.84-3.13-3.12-2.88-2.55-2-1.18,2.2,2.71,3.2,4.11l2.78,2.62,10.48,7.88a89.76,89.76,0,0,1,8.28,9l1.16.46c3.37,3.45,6.49,6.79,3.86,5,0-.24-.49-.66-1.21-1.42a2.33,2.33,0,0,1-.59-.38l-.23-.11,6.34,5.95c-6.71-5.7-.94.32-2.59-.1l3.23,3,1.19,1.11.55.51.71.81.2.22.14.19a2.13,2.13,0,0,0,.16.25c.2.31.37.6.5.84.26.48.38.76.37.74a12.51,12.51,0,0,0-.89-1.76l-.2-.31-.1-.14-.17-.24-.25-.38,0,0h0l-.29-.32h0l0-.06-.06-.09c-.07-.1-.05-.12,0-.09l.16.11,0,0h0l.3.33h0l0,0,0,0,.11.11.57.6a13.69,13.69,0,0,1,1.18,2,17.19,17.19,0,0,1,.58,1.81c.09.6.16,1.16.2,1.61a6.58,6.58,0,0,0-.19.88,10.05,10.05,0,0,1-.36,1.7c-.1.34-.21.7-.35,1.07s-.36.74-.57,1.13a5.75,5.75,0,0,1-.75,1.14l-.46.56-.24.28,0,0-.35.32,0,0-.07.07-.61.52a13,13,0,0,1-1.6,1l-.43.21-.37.13-.74.24a6.63,6.63,0,0,1-1.51.3,9.6,9.6,0,0,1-2.9-.11,8.86,8.86,0,0,1-2.35-.85l.43.11a9.09,9.09,0,0,1-1.86-1.19c-.3-.25-.63-.53-.91-.8l-.47-.49-2.1-2.13c-1.47-1.46-3-2.95-4.34-4.17,0,.23-3.83-2.46-5.73-3.69,4.23,4.49,1.5,2,1.64,2.61a12.85,12.85,0,0,0-1.38-1.34c-.72-.52.71,1,.72,1.22,2.4,2.23,4.8,4.53,6.9,6.44,1.05,1,2,1.82,2.88,2.53l.76.62c.45.35.89.67,1.31.95a11.45,11.45,0,0,0,2.42,1.06,16,16,0,0,1-2.64-1.63c-.37-.29-.8-.64-1.09-.89l-.51-.43a13.94,13.94,0,0,1-2.13-2c.66.49,1.33,1.05,2,1.67l.53.48.32.29.61.51a11.42,11.42,0,0,0,2.85,1.71,11,11,0,0,0,7.16.31l.93-.31c.38-.16.76-.36,1.13-.56s.75-.44,1.1-.68l.17-.12.09-.08.18-.15.38-.3,0,0,0,0,.45-.4,0,0,.17-.19.35-.4a8.59,8.59,0,0,0,1.23-1.77l.34-.5a7.12,7.12,0,0,0,.63-1.18c.2-.45.38-.92.51-1.27s.16-.6.16-.6,0-.18,0-.52a10.5,10.5,0,0,0,.05-1.37,17.36,17.36,0,0,0-.25-1.93,15.4,15.4,0,0,0-.71-2.15c-.21-.43-.44-.86-.69-1.27l-.39-.59-.2-.28a.42.42,0,0,0-.1-.13l-.58-.66-.44-.48,0,0-.07-.06-.12-.12-.2-.18-.17-.16.56.44.06,0,0,0h0l.41.45h0l.1.08.19.14.33.24.18.13c.07.07.25.3.39.47a11,11,0,0,1,.95,1.48c.09.15.17.32.26.49l.18.45c.12.31.24.67.36,1.06a11,11,0,0,1-.37,7.15,7.8,7.8,0,0,0,.88-2.8,10.05,10.05,0,0,0,.06-2.48,11.89,11.89,0,0,0-.19-1.41c-.12-.48-.26-1-.43-1.47a12.37,12.37,0,0,0-1.81-3.3l-.47-.54-.57-.64-.13-.12-.27-.25c-.7-.68-1.39-1.36-2-2l-1.65-.89c.7.28-4.58-5.09-.51-1.6l3.24,2.92,1.19,1.07.27.25.14.13.07.06,0,0h0l.49.55,0,0,.44.49.2.21.21.29.23.33c.3.45.54.86.73,1.19a7.78,7.78,0,0,1,.51,1.06,7.22,7.22,0,0,0-.45-1.1c-.16-.34-.36-.73-.59-1.13l-.54-.9c-.16-.26-.31-.53-.43-.73l-.52-.58h0l0,0,0-.06-.07-.09-.06-.09.22.22,0,0,.55.61.06.06.12.15.31.36.08.1.05.06.08.11c.18.25.36.51.54.8a15.93,15.93,0,0,1,1,1.84c.23.57.38,1.07.55,1.64.08.28.15.57.22.85s.09.58.13.87a13,13,0,0,1-.78,6.36,21.13,21.13,0,0,1-1,1.92,3.77,3.77,0,0,1-.45.68l.11-.16a3.23,3.23,0,0,0,.24-.44c.19-.38.43-.88.65-1.4a7.89,7.89,0,0,0,.46-1.44c.1-.4.16-.67.16-.67-.12.45-.26.89-.4,1.31s-.35.79-.53,1.17-.39.73-.59,1.07-.45.63-.67.93-.47.57-.7.83l-.17.2-.09.09,0,0h0l-.57.52,0,0-.16.12-.57.47a12.65,12.65,0,0,1-3.33,1.79,12.19,12.19,0,0,1-2.27.54,10,10,0,0,1-3,0,7.61,7.61,0,0,1-1.76-.45c-.51-.19-1-.4-1.68-.68a17.68,17.68,0,0,1-2.52-1.51l-.8-.66-.44-.38-.22-.2-.11-.1-.88-.86c-.68-.65-1.54-1.44-2.65-2.44-3.1-2.17-6-4.95-11-10.22,3.83,3.63.71.06,2.38,1.19a48.36,48.36,0,0,0-7.43-6.69c-.73-1.22-1.22-2.11,2.15,1.33.94-.09-4.56-4.39-4.34-5.23-11.28-11.25-10.74-7.31-23.25-21.14l.71.28c-8.63-8.1-13.2-13.18-21.11-20.75l-5.55-6.64c1.45,1.28,5.52,4.54,4.07,2.56,2.42,3.52,5.76,6.47,8.66,10,.47.19-.73-1.22-1.21-1.87,1.92,1.93,2.64,3.15,5.29,5.6,0-.24-2.66-3.15-.49-1.13l3.12,3.81c4.8,4.47,3.1,1.47,8.38,7.07a32.15,32.15,0,0,1-6-4.38c2.43,2.55-3.5-3.13-1.41-.68,4,3.13,5.41,5.22,10.46,9.7a15.34,15.34,0,0,1-2.06-1.7l6.72,7.11c-1.45-2,6,5.42,5.75,4.39-7.21-7.53-5.28-5.13-13.45-13.75a57.17,57.17,0,0,0,7.72,6,4.66,4.66,0,0,0,.42.49c1.67.89.47-.52,1.16-1.17-4.31-3.35-6.48-6.31-11.27-10.55-1.22-.48,2.15,3.09,4.49,5.24L325,387.51l1,.62L316,377.9a25,25,0,0,0,4,3.17c-1.29-1.32-2.48-2.71-3.75-4.19-.06.64-.49.71-1.76-.57-6.42-6.59-9.72-10.52-11.71-13.33l-.79-.73c.73,1.45-5.26-4-7.65-5.62.47-.27-3.13-3.57-4.81-5.64-1.43-.57-.69,1.36,1.25,4,4.79,4,2.85,2.07,5.49,3.59l7.42,6.69L301.69,364c3.38,3.67,7.21,6.6,6.51,6.79-2.16-1.56-5.05-4.82-7.2-6.36l2.17,2.49c-4.55-3.68-1.69-2.53-7-7.2,1.46,2.21-.47-.42-2.86-2.3,1.45,2,8.87,8.65,6.73,7.8-2.87-2.31-7.95-9.46-12-12.25l.24.1a67.35,67.35,0,0,0-9.23-8.2c-1.94-2.36-5.2-5-7.55-7.34l.24-.13-3.36-3.21c1.9,1.23,3.84,3.86,6.71,6.64v-.7c2.84,3.66,5.63,5.21,8.46,7.43-4-3.37-10.29-10.45-11.83-10.64l-1.92-2.62-1.22-1c-1.43-2,.72-.64,4.08,2.56.48.66.72,1,.48.89a57.55,57.55,0,0,1,6.95,6.26L278,341.29c4.56,4.62,8.87,8.66,10.78,9.89-6.48-6.78-13-13.32-19.2-19.53-2.62-1-5.24-2.79-6.9-3-4.31-4-10.08-9.6-13.44-13.5l.47.19a66.88,66.88,0,0,0-4.8-4.71c-1.68-2.06,1.66.9.46-.51l-6.22-5.74c.7,0,5.73,5.07,8.14,7.44-.48-.42-1.44-1.28-1.19-.94,2.64,2.91,8.38,7.53,9.12,9.22,1.44,1.27-3.1-2.4,1.46,2.21,2.89,3.25,4.32,3.82,4.78,4,.24-.14-4.56-5.07-2.65-3.61-2.41-2.36-3.6-3.08-6.48-6.31,2.39,2.34,6,5.18,7,6.73,5,4.34,5.23,2.79,3.08.53.25.8-8.89-8.2-3.1-1.7-3.12-2.41-8.16-7.44-12-10.83l.24.09-4.57-4.39c.73.53,2.17,1.8,2.4,1.66l-6.71-5.7c3.83,3.15-1.93-2.4-3.37-4.14-.95-.38-3.59-2.59-1.42-.1,2.4,2.82,1.67,1.36,4.07,3.72l-3.82-2.92-.24-.33-2.4-1.66c-4.55-4.61,2.86,1.15-3.37-4.37l.26,1.27c-6.73-6.88-14.9-16.18-19.94-20.75,1.62,1,2.66,1.16,1.11-.93,2,2.16,6.17,6.3,9.19,9.23.48.66-4.31-3.12-7.43-6.46.74,2.39,8.62,7.63,8.16,8.84,7.94,8.52,6.95,5.33,13.44,12.81.47-.28,2.17,1.8,2.86,1.84-1.46-2.68-9.35-9.32-13.67-14.06a16.06,16.06,0,0,0,1.66,1.36,82.14,82.14,0,0,0-6.95-6.73l.24.33c-4.32-3.59-2.17-2.73-4.33-5.22-1-.84-4.09-4.19-3.84-3.39L205,266.55l-.22.62c-2.4-2.36-2.64-3.15-5-5.05l-.47.27,5.77,6c-3.11-2.87-1.19-.47-4.56-3.68,2,1.63,1.45.93.34-.27-.56-.6-1.24-1.32-1.79-1.94-.27-.31-.51-.59-.68-.82a1.56,1.56,0,0,1-.2-.3,1.32,1.32,0,0,1-.15-.28l-2-1.93-1.37-1.36a5,5,0,0,1-.5-.68l.41.55.54.49c-.16-.21-.33-.4-.47-.59l-.31-.58a6.39,6.39,0,0,1-.53-1c-.14-.34-.28-.65-.4-1s-.19-.63-.29-.95a9.75,9.75,0,0,1-.38-2.15c0-.41,0-.86.09-1.36s.22-1,.35-1.61a10.24,10.24,0,0,0,.29,7.75,13.7,13.7,0,0,0,2.64,3.42c.53.56,1.15,1.23,1.69,1.78.38.35.8.71,1.25,1.1-.33-.28-.69-.6-1.09-.93-.11-.11-.17-.13-.33-.3l-.48-.49-1-1L194,258.12a9.72,9.72,0,0,1-1.41-2.53,10.89,10.89,0,0,1-.68-5.19,13.71,13.71,0,0,1,.44-2,13.41,13.41,0,0,1,.49-1.3,12.49,12.49,0,0,1,2.57-3.43,34.39,34.39,0,0,1,2.4-2.49c1.12-1,2.24-2,3.45-3.14-2.21,2.36-1.53,2.25-1.47,2.65,0,.2-.1.53-.82,1.37l-2.07,2.3-1.84,2c-.3.39-.53.84-.83,1.3a17.17,17.17,0,0,0-.65,1.6,5.7,5.7,0,0,1,1-2.31,5.58,5.58,0,0,0-1.4,2.69,8,8,0,0,0,0,4.4,10.6,10.6,0,0,0,.86,2.23,8.05,8.05,0,0,0,1.46,1.84l2.92,2.81c-.23-.53.42,0,.46-.11s-.34-.62-2.7-3.32c.35.46.22.45-.25.06-.12-.1-.26-.21-.41-.36l-.41-.54a6.05,6.05,0,0,1-.47-.67l-.42-.86a8.62,8.62,0,0,1-.61-4.64,8,8,0,0,1,2.42-4.67l0,.65a2.32,2.32,0,0,0,0,.63,10.78,10.78,0,0,1,1-1.13l2.28-2.39,2.47-2.4-.43.48c2.21-1.46,5.13-5.27,8.71-8.41,2.21-2.63,11.68-11.76,7.06-8.38,3.38-2.64,5.56-5.76,8.77-9.12l-4.34,3.86c4.43-5.27,3.3-3.6,6.51-8.15.56-.23,1.55-1,.93,0,6.54-6.48,16-15.61,19.35-19.91,4.61-4.57,6-4.6,12.19-11.31,1.27-1.43-1.61.51,2.82-3.58.33-.24-3.67,4.54,1-.26,2.92-3.83,8.19-7.69,12.19-12.48,2.49-2.16,6.45-6.25,6-5-3.76,3.6-8.89,8.88-9.51,9.84.29-.72-2.82,2.41-.28-.47-5.83,5.29-3.39,3.83-8.56,8.63-.2.49,3-2.16,3.9-3.36.51.46-9.6,10.07-4.58,6.22,5.37-5.29,5.94-7.89,11.07-12-1.56,2.15-4.7,4.79-6.54,7.65l4-3.6,2.4-3.1-.09.23c7.15-6.25,5.7-6.7,11.45-12.94-3.81,3.13,0-1.65-2.86.76,3.95-4.08,7-7,7.47-6.5-7.1,7.9.09.94-6.36,8.37,1.32-1-.94,2.36,3.25-1.72,4.31-5-1.8,1,2.69-3.82.32-.23.64-.47.55-.24,1.89-2.39,2.59-2.4,4.89-5.26l-.51.71c3.48-2.89,3.15-3.82,6.22-6.25-1.46.74,1.54-2.14,3-4.06-2.92,2.64-4.94,3.63-10.4,9.15-.38.94.18.7-1.94,3.1l3.54-3.61c-.73.82-1.24,1.48-1.89,2.24l-3.57,3.28c4.14-4.55,1.84-2.86,3.39-5,4.1-3.85,3.2-3.36,5.79-5.76.17.67,8.39-6.95,13.23-11.26l-2.14,2.11c-3.06,3.59,2.64-1.94,2.88-1.95l2.21-2.63c-.42.48-1,1.21.14.24,3.2-3.36,2.59-3.59,5.79-6.94.48,0-1.94,3.1.22,1.19.9-.5,3.67-2.2,7.82-6.76a30.36,30.36,0,0,1,2.57-2.92c-.17.2-.39.43-.46.53l3.15-2.64c-2.07,2.86-5.17,4.8-7.25,7.67l.17.58a64.72,64.72,0,0,0-5.39,6.11c3-2.88,3.52-3.59,6.73-7,.69-.23-1.44,2.26-1.75,2.62l.27-.7c-4.22,3.6-5.49,6.21-10.44,11-.75.72-.33.24-.23,0-3.59,4.31-8,7.68-11.32,12l1.06-1.45-11.94,13.71.1.19c.66-.48-1.26,1.43-2.35,2.4h0L285.63,165a30.79,30.79,0,0,0,2.6-2.22c.62-1,5.45-5.52,4.42-5.27,2.4-1.93,5.56-5.76,7.3-7.2-3.15,2.65,1.65-2.39,1.94-3.11,1.22-.73,4.28-4.31,4.23-3.6a19.39,19.39,0,0,0-2.68,2.63c-2.73,3.35,5.83-5.29,2.34-1.21,4.58-5.05,11-11.28,15.68-16.55l-2.91,2.64c2.25-2.16,7.4-7.45,7.95-7.68-1.6,1.68-3.52,3.59-5.55,5.75.27.48,5-5,5.5-5l5.47-6.71-2.68,2.64c1.45-1.9,7.3-7.21,11.49-11.29-1.86,2.88-6.23,6.25-10.37,10.81-3,3.35,2.44-1.46-.43,1.65a25.81,25.81,0,0,0,3.67-3.71l1.27-1.09c-2.2,3.13-8.29,9-11.87,13.39a5.73,5.73,0,0,0,.61-.92,128.11,128.11,0,0,0-9.22,9.12,22.19,22.19,0,0,0,3.11-3.12c.22,0-2.55,2.87-3.49,4.07,2.92-2.65.79-.25,2.63-1.93-1.7,1.92-3.2,3.35-5.45,5.51-1.32,1,.7-1.19.24-1.18-2.14,2.41-3.72,2.9-6.78,6.49,4.52-4.33-.67,1.66-2,3.34l.76-.72a11.61,11.61,0,0,1-3.53,3.59c1.7-1.92,3.53-3.59,2.74-3.35-1.18,1.2-2.37,2.41-3.64,3.85l1-1.43-5.89,6a39.91,39.91,0,0,0-2.4,4.27,35.6,35.6,0,0,0-4.71,4.81l.53-.73c-2.83,2.42-8.49,8.42-8.77,9.13-2.06,1.68,11.88-14.6-1.16-1.16-5,5-2.45,3.81-5.09,6.92,0,0,.09-.23-.24,0C270,184.56,270,185,268.34,187a33.81,33.81,0,0,0,3.86-3.84c-.38.95-4.61,4.57-6.08,6.48,1.75-2.63-4.42,4.09-2.95,2.16a88.59,88.59,0,0,0-11,11.75c-3.53,2.42-5.14,5.29-10.22,9.86.76-.73,2-2.15,3.12-3.13,2.4-3.1-5.19,4.81-1.27.26-.85,1,.12.25,1-.73,1.58-1.67,3-3.35,2.39-3.1L243,210.29l1.29-1.46-6.4,5.54c-.09.23.56-.24.89-.48-7.11,6.73-14.78,14.88-20.9,20.89-.08,1.06-3.7,4.9-7.84,9.16l-3.16,3.23-1.56,1.61-.59.62-.34.37a3.1,3.1,0,0,0-.94,1.47,1.71,1.71,0,0,0,.27,1.33,8.47,8.47,0,0,0-.94-.86c-.29-.19-.57-.22-.77.11a3.08,3.08,0,0,1,.41-1.92,8.69,8.69,0,0,1,.86-1.13l.56-.61c.29-.3.6-.6.92-.9.56-.24,3.8-3.12,2-1,6.73-7-1.36.49.29-1.89-1.82,1.86-3.74,3.9-4.47,4.76a3.26,3.26,0,0,0-.87,3.6c.44,1.16,1.56,1.72,2.3,2.36l.15.12a1.42,1.42,0,0,1,.19.16l.48.41,1,.84,1.88,1.68v.24l3.84,3.4c-2.89-3-2.19-3.44,1.42.57l-.49-.44c1.94,2.41,6.74,6.65,10.09,10.08l2.63,2c3.36,3.43,2.9,4.18,3.65,5.65,5.28,5.36,8.85,7.95,12.93,11.43,1.45,2,9.36,10,4.81,6.11,5,4.57,5.48,2.19,12.94,11.22l-2.39-1.89c7.93,7.83,19.67,18.56,23,22.45-3.82-2,8.92,10.77,9.42,13.07-.18-.6,2.84,2.29,3.38,2.62a13.4,13.4,0,0,0,2.86,2.89c-2.9-3.25,3.08,1.23-3.15-4.28,3.59,2.36,7.89,5.71,14.37,12.25l-.47.28-5-5.27c.24.8-2.39-1.87-3.6-2.83,9.37,9.79-2.13-.39,7.71,9.36,1.19.71.48.19,3.12,2.64-1.21-1.18-1.68-1.14.24.8l2.16,1.55c2.8,4-6.07-5.26-3.59-1.9-4.08-3.49-10.79-9.89-10-8.19,6,6.35,6.45,4.67,12.69,11.34l.49.89a29.66,29.66,0,0,0,4.54,3.22c0,.23.49.89,1.92,2.39,4.31,3.35,7,5.81,11,8.82-9.81-9-7.69-8.41-17.76-17.79,1.67,1.37,8.63,8.1,9.57,8l-.47.28c3.36,3,6.71,5.94,10.56,10l-2.63-2.22c5.52,5,8.18,9.32,12.95,12.85q-2.14-2.25-3.6-3.53c2.88,2.54,6.24,6,9.12,9l6.71,5.47c-.24.13,3.61,4,1.45,2.44,4.1,4.67,6.72,6.18,9.35,8.62,4.1,4.89-4.07-3.71-5-3.64A221.55,221.55,0,0,0,375,424.21c-1.18-1.34-1.73-2-1.58-2a54.35,54.35,0,0,0,4,4.16l1.2.71.05.06h0l-.13.13h0l-.05.07h0s0,0,0,0a.42.42,0,0,1-.07.15s-.06.07-.08.07h-.08s0,.06-.08,0l.05.05h0s0,.05,0,0,0,0,.1,0,.11-.13.14-.13v-.05s0,0,0,0l-.15.05-.13.1,0,.06s-.06.08,0,0l.49-.41.25-.2h0l-.36.33h.05l.13,0s0,0,0,.08,0,0,0,.1h0l.35-.31h0l-.1.09-.2.17-.4.35,0,0v0l0-.05.08-.07a.35.35,0,0,1,.18-.06.43.43,0,0,1-.4,0s-.07,0-.08-.05l-.05,0s-.05,0-.11-.1l-.17-.17c-.44-.45-.87-.87-1.26-1.26-.79-.78-1.48-1.43-2-1.88,1,1,1.89,1.81,2.66,2.59l.57.57.26.28.06,0s0,.06,0,.08.05,0,.07.05,0,0,.06.05,0,.06.07.07.11.09.17.07l.11.05h.1c.15,0-.06.06-.06.2v.05s.07-.05.1-.07l.25-.17.25-.17.12-.09.07-.05,0,0h0c-.59.53-.17.14-.3.26h0a.48.48,0,0,1,.11-.09.19.19,0,0,0,.12-.09.88.88,0,0,0,.27-.63c0-.12-.05-.33,0-.38a.07.07,0,0,0,0,.05h.07l-.06-.07-.31-.39-.16-.19-.08-.1,0,0,.24.27h0l-.05-.05c-1-1-2.09-2-3.38-3.26,0-.24,1.91,1.23,0-.7-4.56-4.38-1.67-.67-3.33-1.79,1.79,1.64,3,2.9,4.08,4,.51.56,1,1.1,1.39,1.64l.63.81h0c-.14-.16.32.35-.31-.35h0v0l0,.06.06.11.14.22c.08.14.2.32.25.43a5.69,5.69,0,0,1-.5-.39l-.19-.15-.09-.07,0,0h0c.16.16-.34-.38.34.37h0l0,0-.17-.11c0-.24-2.19-2.41-2.73-3.15l-1-.15c.7-.19-2.41-4-5.3-6.53,2.43,3.07,1.7,2.31,1.94,3.56-4.29-3.34-3.84-4.78-8.62-8.55.46.18,4.3,3.81,1.18.47-2.65-2.69-2.64-2-4.54-3.68,2.39,1.65,2.14.86,4.77,2.61,4.8,4.7,1.91,1.92,6.71,6.4L367,414c4.08,4,3.35,2.5,3.82,2.69-6.5-7.24-5.74-4.61-10.07-9.13-2.38-1.88,4.09,4.19.49,1.12-4.08-4.18-1.18-.7-6-5.18l.95.61c-1.2-1.64-2.88-2.77-4.56-4.37-1.91-1.7.76,3.32-6.68-4.07.46.26.66.33.7.28L356,400c-7.53-7.51-16.11-16.27-24.61-25.18-1.44-2.66,6.72,5.71,6.46,4.91l3.85,4.09c-.48,0-8.4-8.24-5.27-4.2,7.2,6.83,10.08,10.31,17.27,16.43-1.46-2.67-8.87-8.65-12.73-13.45,1.78,1.86,3.38,3.32,4.95,4.73l-12.78-13.3-1.19-.89c3,3.18,5.16,5.39,5.41,5.69-4.08-4.18-7.9-7.33-8.62-7.16l.72.75-1.63-1.36ZM362,99.08a4,4,0,0,0-.44.75C361.61,99.61,361.4,99.74,362,99.08Zm-1.51,319.1,8.14,8.39,4,4.15,1,1a5.34,5.34,0,0,0,.63.57,4.88,4.88,0,0,0,.73.56,6.81,6.81,0,0,0,3.52,1,6.35,6.35,0,0,1-3-1,5,5,0,0,1-1.16-.93,7.92,7.92,0,0,1-.82-.93l-2.62-3.2A38.14,38.14,0,0,1,368,424c-.31-.58.16-.33,1.7,1.06.77.69,1.8,1.67,3.14,3l2.25,2.21a6,6,0,0,0,.63.54l.32.26.37.19.38.21.42.12c.15,0,.29.09.44.12l.46.05a4.92,4.92,0,0,0,1.27-.17,4.49,4.49,0,0,1-2.17-.19,4.11,4.11,0,0,1-1.13-.56l-.52-.44c-.18-.15-.38-.37-.58-.56-1.57-1.6-3.33-3.33-5.05-5-1.53-1.21-4.78-3.74-7.66-5.94L358.46,416a13.17,13.17,0,0,0-1.61-1.12c.72,1.21,2.4,2.36,4.09,4.2ZM358,412.79c-3-3.22-2.5-2.32-3.16-2.63l3.34,3.22C357.81,412.92,357.67,412.65,358,412.79Zm-3.15-2.26c.34.35.63.66.77.84Zm-2.33-16.31c.14.14.19.19.33.31l-2.21-2.29C350.91,392.57,351.46,393.16,352.52,394.22Zm5.91,6.77,1.06.42-2.07-2.14A3.8,3.8,0,0,0,358.43,401Zm19.32,21.44a11.61,11.61,0,0,1,1.65,1.19c.33.26.67.55,1,.84l.26.22.13.11.07,0h0c-.05,0,.1.12-.1-.11h0l0,0,.47.49a1.43,1.43,0,0,1,.3.38c.06.11.15.19.22.32s.28.52.34.76a4.38,4.38,0,0,0,.22.62.59.59,0,0,0,.17.33c.07.17.15,0,.22-.41,0-.2,0-.45,0-.73a9,9,0,0,0-.2-.88c-.07-.16-.16-.3-.23-.46a1.82,1.82,0,0,0-.28-.47l-.39-.49-.1-.13s-.06-.05-.08-.07l-.22-.23-1.85-1.89c-.11,0-.42-.18-.91-.54,1.21,1.32,1.95,2.28,1.16,2-2.66-3.86-3.34-2.5-6.71-6.17C371.52,416.45,376.56,421.49,377.75,422.43ZM275.67,172.77c.14-.06.58-.3,1.19-.66l-2.26,2.7c-4.52,4.33-8.71,7.23-12.14,11.77a26.4,26.4,0,0,1-4.49,3.14c.93-.89,1.81-1.72,2.56-2.4C270.89,175.35,267.2,182.35,275.67,172.77ZM224,222.86a2.78,2.78,0,0,0,.52-.72c-9.07,10.71-17,19.08-22.33,24.38,1.36-.71,6.39-5.24,8.79-7.38l-1.64,2.39-1.55,1-3.15,3.83c1.22-.73,4-3.6,6.06-5.3.1-.23,5.71-6.7,7.17-8.61L212.8,237c1.4-1.2,7.72-7.69,10.16-10.32-.14-.23-4.79,3.85-4.94,4.81-.8.24,4.24-4.8.76-1.91a170.26,170.26,0,0,1,12.67-12.49h.93c3.24-2.88,1.51-2.62,5.41-6-4.38,4.56,1.26-.25-2.26,3.34,1.31-1,.51.46,4-3.13,2.36-3.58,4.14-3.38,6.4-6.72,2.07-1.68-1.65,2.39,2.12-1.22,3.91-4.55,3.43-4.53,3.25-5.24-4.08,3.83-3.86,5-7.2,8.15l5.67-7.19a26.94,26.94,0,0,0-2.89,2.71,37,37,0,0,0,3-3.65l1.26-1.71c-3.65,3.64-6.9,6.87-7.66,7.25l.29-.72a24.75,24.75,0,0,0-4.25,4.48c-3.24,3.29-6.2,6.85-7.19,7.28l1-1.43C229.48,217.34,229.06,217.81,224,222.86Zm75.41,134.58c-1.64-3.22-3.62-6.59-15.1-17.8l.95.84c-5.22-6.21-11.81-10.49-18.21-18a69,69,0,0,0,7.87,6l-3.84-3.4c1.43.58-2.4-2.81-5-5.49l2.85,1.83a58.51,58.51,0,0,0,5.53,5.69c-1-.85,4.81,6.11,8.42,9.41,0-.7-7.45-7.86-3.63-5.16-3.11-2.64-3.12-3.34-6.24-6.22,3.11,2.64,1.18.24,3.58,2.13l-5-4.81c0-.24,7.42,6.92,3.82,2.46-2.16-1.79-7.2-7.29-7.67-7v-.24c-3.61-3.77-2.15-1.09-6.47-5.84-.24.14.49,1.13,2.15,2.72a53,53,0,0,1,4.8,4c1,1.56-3.37-3.44-1.9-1,.73,1.22,7.67,7.25,5.05,5.74l-3.6-3.76c-.47.28-3.12-2.41-3.34-2-2.39-2.11-4.1-4.66-6.72-6.63-1.2-.72,0,1.4-3.59-2.6-2.42-3.53-11.29-12.19-14.66-15.39l-3.11-2.63c0,.47,5.52,5.45,3.38,3.91l-4.57-4.39.49.2c-1.45-1.52-3.12-2.88-4.56-4.15,1.66,1.12,4.78,4.46,4.53,3.43a60.11,60.11,0,0,0-4.21-4.51c.45.4.85.72.85.62-4.09-4.43-4.54-3.68-5.74-4.62-4.78-3.78,3.85,4.78,2.9,4.64l-12.71-12.29c1.19.94,2.39,1.89,2.15,1.33-2.89-3.24.23-.37-4.09-4.66-.23.84-5.75-5.08-9.1-7.82-1.2-1.63-1.45-2,1.66,1.13,0-.69-4.35-4.78-5.73-6.22-.45-.36-1-.89-1.65-1.43a8.52,8.52,0,0,1-.81-.91,5.42,5.42,0,0,1-.53-1c.15.83.22,1.07-.14.72a1.89,1.89,0,0,1-.3-.41,7.4,7.4,0,0,1-.31-.71,5.2,5.2,0,0,1-.23-1,5.75,5.75,0,0,1,.06-1.35l0-.24a5.68,5.68,0,0,0-.14,2.64,5.89,5.89,0,0,0,1.22,2.59c.66.76,1.37,1.5,2.07,2.27l2,2.09a74,74,0,0,0,6.51,6.29l-1-.61c4.81,5.41,11.73,10.5,13.44,13.51-.48,0,1,1.08.5,1.37l4.06,3.47-.95-.62,6.48,6.32-.24-.1,8.17,6.49c.17-.16,0-.41,1.15.49a30.12,30.12,0,0,1,2.55,2.4h0c1.52,1.62,2.33,2.89,4.17,4.92l-6-5.91c-.76-.2-.54.59,2.18,3.7-1.2-1.19-1.92-1.47-.47,0,.23.09,4.07,3.72,2.87,2.08,5.75,5.55,14.18,15.42,23.28,23.48-6.48-5.85,4.58,5.31-2.38-1.42,4.33,5.22,4.54,3.68,9.35,8.62.25.57-2.64-2.67-4.07-3.48,7.92,8.27,14.38,13,22.08,20.92v.68C296,354.18,297.66,355.78,299.42,357.44Zm15.93,15.07,4.71,4.47-.44-.46,4.81,4.25c-2.65-2.91-4.11-5.13,0-1.41-.47-.18.5,1.13-.94-.14,2.4,2.82,7.93,8.75,7,6.73-5.51-4.52-.51-1.83-4.81-5.41,2.45,1.78,4.39,4,6.54,5.87-2.36-1.79-.16,1.13,2.83,4.39,1.45,1.28,5,5,7.44,7.16-.49-1.13,1.66.66-1.94-3.1a63.74,63.74,0,0,1,5.77,5.79c-1-.87-2.64-2.45-2.65-2.23,1.22,1.81,3,3.56,3.86,4.67.79.76,1.59,1.53,2.38,2.27a4.27,4.27,0,0,1-.46-.67l2.87,2.3c-3.6-3.29-1.45-1.74-1.22-1.88-.46.28,2.17,2.27,3.36,3.44l-2.17-3c1.44,1,4.09,4.66,3.84,3.62-5.28-5.59-7.44-7.62-12.48-12.41l1.69,2.3c-5.76-5.33-2.89-4-9.13-10.16-2.87-2.31-9.38-9.34-10.07-8.91.95.61-3.38-4.37-5.76-6.25-2.87-1.85-10.07-8.91-8.15-6.51,1.92,1.93,4.8,4.24,6,6.12l-3.84-3.63,2.17,2.73C315.33,371.12,315.18,371.52,315.35,372.51ZM372,406.43l-.14-.15.16.16Z" transform="translate(-119.22 -68.16)"/><path class="cls-1" d="M329.82,116.3c.95-1.2,3.63-3.84,2.84-3.59C333,112.94,328,117.5,329.82,116.3Z" transform="translate(-119.22 -68.16)"/><path class="cls-1" d="M333.3,113.41c.11-.26-.13-.24,1.05-1.44l-3.21,3.36Z" transform="translate(-119.22 -68.16)"/><path class="cls-1" d="M338.69,112.14a45,45,0,0,1,5.09-5.75c1.73-.26-4.15,4.56-4.67,6.44,4.94-4.8,5.8-6.93,9.74-11C346.56,103.51,338.27,111.44,338.69,112.14Z" transform="translate(-119.22 -68.16)"/><polygon class="cls-1" points="218.23 47.08 220.77 44.2 220.46 44.42 217.92 47.3 218.23 47.08"/><path class="cls-1" d="M272.41,167.51c-.48,0-1.94,1.93-2.79,2.89A28.19,28.19,0,0,0,272.41,167.51Z" transform="translate(-119.22 -68.16)"/><path class="cls-1" d="M305.82,164.74l20.44-20.88Z" transform="translate(-119.22 -68.16)"/><path class="cls-1" d="M205.35,237.57c5.33-5.76,7.4-8.62,13-14.38-7.9,7-9.1,10.54-15.81,16.31Z" transform="translate(-119.22 -68.16)"/><path class="cls-1" d="M205.47,233.78c1.35-.48-3.77,4.79-2.65,4.3,3.63-3.84,1.33-2.15,4.76-5.51Z" transform="translate(-119.22 -68.16)"/><polygon class="cls-1" points="118.54 147.64 117.08 149.54 118.36 148.11 118.54 147.64"/><polygon class="cls-1" points="85.77 200.72 85.06 200.21 87.7 203.13 85.77 200.72"/><path class="cls-1" d="M203.57,267.85l.71.52Z" transform="translate(-119.22 -68.16)"/><polygon class="cls-1" points="117.31 150.73 119.9 148.32 120.94 146.88 117.31 150.73"/><path class="cls-1" d="M212.14,238.63l2.1-2.37C213.82,236.73,210.58,239.61,212.14,238.63Z" transform="translate(-119.22 -68.16)"/><polygon class="cls-1" points="102.57 217.9 105.46 220.45 105.22 220.13 102.35 217.58 102.57 217.9"/><path class="cls-1" d="M203.55,254.31c-.2-.53.43.05.91.49l.5.48a3.44,3.44,0,0,0,.36.31c.06,0,.05,0-.08-.18l-.26-.34-.2-.24a1.84,1.84,0,0,1-.12-.18C203.24,253.33,203.52,254,203.55,254.31Z" transform="translate(-119.22 -68.16)"/><path class="cls-1" d="M233.45,288.72c.37.36.77.74,1.17,1.08Z" transform="translate(-119.22 -68.16)"/><path class="cls-1" d="M233.45,288.72c-1.19-1.19-2.24-2.5-3.15-3.22A22.54,22.54,0,0,0,233.45,288.72Z" transform="translate(-119.22 -68.16)"/><path class="cls-1" d="M247.1,302.22l-1-1.1c1.26.93.72.44-.39-.41-1.15-1.13-1.19-1-1.4-1l-.83-.57,1,.81C246.25,301.7,247.34,302.76,247.1,302.22Z" transform="translate(-119.22 -68.16)"/><path class="cls-1" d="M291.94,358.26c-3.85-4.09-4.82-5.18-4.34-5.22-3.69-3.85-3.55-2.82-5.92-5C286,352.26,286.74,353.25,291.94,358.26Z" transform="translate(-119.22 -68.16)"/><path class="cls-1" d="M281.68,348.05l-1.51-1.47C280.78,347.21,281.25,347.66,281.68,348.05Z" transform="translate(-119.22 -68.16)"/><polygon class="cls-1" points="114.83 215.37 117.7 217.44 116.74 216.59 114.83 215.37"/><path class="cls-1" d="M297.7,364.28c-.72-.75-1.92-1.92-2.41-2.59C294.82,361.74,298.41,365,297.7,364.28Z" transform="translate(-119.22 -68.16)"/><path class="cls-1" d="M287.45,343.91c-.24-.56-2.88-3-3.85-4.1C285.05,341.33,285.78,343,287.45,343.91Z" transform="translate(-119.22 -68.16)"/><path class="cls-1" d="M310.15,374.6c-.72-.75-1.68-2.06-1-1.78C308,371.87,306.07,370.88,310.15,374.6Z" transform="translate(-119.22 -68.16)"/><polygon class="cls-1" points="175.44 283.05 174.96 282.39 172.07 279.85 175.44 283.05"/><path class="cls-1" d="M288.78,337.71c-3.36-2.75,4.11,5.59-1.42.59,6.47,7.11-.08-1,4.88,4.1C289.41,339.36,288.36,337.54,288.78,337.71Z" transform="translate(-119.22 -68.16)"/><path class="cls-1" d="M292.24,342.4c.41.44.86.91,1.36,1.41C293.05,343.25,292.61,342.79,292.24,342.4Z" transform="translate(-119.22 -68.16)"/><path class="cls-1" d="M333.27,387.34c-.47-.42-.81-.68-1.13-.93C332.52,386.74,332.88,387,333.27,387.34Z" transform="translate(-119.22 -68.16)"/><path class="cls-1" d="M308.48,358.13l-5-4.12c3.36,2.75,11,10.47,11,9.53a63.14,63.14,0,0,0-6.95-6.5Z" transform="translate(-119.22 -68.16)"/><path class="cls-1" d="M352.67,419l-2.16-1.8,2.42,2.53C352.29,419,353.91,419.92,352.67,419Z" transform="translate(-119.22 -68.16)"/><path class="cls-1" d="M353.4,420.24l-.47-.48A4.83,4.83,0,0,0,353.4,420.24Z" transform="translate(-119.22 -68.16)"/><path class="cls-1" d="M324.39,378.9c-1.45-1.51-2.64-2.68-4.07-3.95C320.79,375.6,324.39,379.36,324.39,378.9Z" transform="translate(-119.22 -68.16)"/><polygon class="cls-1" points="248.05 364.13 244.71 360.94 248.3 364.47 248.05 364.13"/><polygon class="cls-1" points="266.95 349.26 266.48 348.62 263.61 346.07 264.09 346.73 266.95 349.26"/><path class="cls-1" d="M370.86,419.32c-2.16-2.26-4.31-3.58-3.81-2.91l4.31,4.27c-.73-1.45-1.2-1.18-3.6-3.76Z" transform="translate(-119.22 -68.16)"/><path class="cls-1" d="M272.43,305c1.2.72,5.75,5.55,5.77,6-.73-.53-3.37-3-1.92-1.24l4.31,3.12c4.57,5.31-4.54-3-7.19-5.2,5,5.11,6.84,6.21,12.19,11.56a38.29,38.29,0,0,1-3.08-3.74c.24-.6,5,4.58,8.64,8.11-2.09-2.45-.62-1.29,1.19.2a9,9,0,0,0,.7.57l.62.5-.42-.43c.07,0,0-.16-.19-.55-3.12-2.87-5.06-5.51-7-7.44,1.23,2.58-6.71-6.4-9.35-8.61l-2.86-2.73-1.05-1.05c-.13-.28.26-.08,2,1.38-1.47-1.19-5.86-5.68-5.67-5.05L259,290.34a11.27,11.27,0,0,1-.75-1c-.4-.31-.49-.33-.48-.25L220.55,252l.15-.18-.31.18a1.66,1.66,0,0,0,.26.69c-.57-.11-.47,0-.23.29l.08.1.21.23c.3.31.58.61.8.86.43.5.63.82.28.68-.42-.34-.87-.74-1.33-1.17-.3-.29-.27-.24-.35-.32l-.18-.17a3,3,0,0,1-.47-.66.31.31,0,0,0-.37.26c-.05.16-.07.36-.29.4a5.53,5.53,0,0,0,.62.71c.06,0,.81.77,1.26,1.17,1,.89,1.9,1.59,2.8,2.28a47.17,47.17,0,0,1,6.23,5.54c-.48,0-2.39-1.41,1.21,2.11l-1-.85c6,5.42,3.86,5,8.16,7.91l-.47.28c2.87,2.31,7.91,7.34,10.79,10.13l-.24-.1c8.39,7.53,4.56,4.38,13.68,13.14l-4.55-3.68c2.9,3.26,4.07,3.48,6.23,5.74-.23-.08,0,.7-2.14-1.32l11.5,10.18C275.79,308.7,272.67,305.59,272.43,305Z" transform="translate(-119.22 -68.16)"/><path class="cls-1" d="M285.59,319.3c.56.6,1.2,1.26,2,2Z" transform="translate(-119.22 -68.16)"/><path class="cls-1" d="M221,251.46l-.31.32A.79.79,0,0,0,221,251.46Z" transform="translate(-119.22 -68.16)"/><path class="cls-1" d="M302,334c-1.69-2.07,1.68,1.14,2.15,1.32l-6.74-6.72c-.12.17-.94-.34-.94-.07Z" transform="translate(-119.22 -68.16)"/><path class="cls-1" d="M295.68,326.41a13.32,13.32,0,0,1-2-1.47l3.7,3.69C297.44,328.5,297.13,328,295.68,326.41Z" transform="translate(-119.22 -68.16)"/><polygon class="cls-1" points="169.5 266.62 168.3 265.44 166.38 263.75 169.5 266.62"/><path class="cls-1" d="M270.71,315.51a43,43,0,0,0,5,5C272.62,317.43,274.05,318.69,270.71,315.51Z" transform="translate(-119.22 -68.16)"/><polygon class="cls-1" points="153 253.53 149.88 250.65 150.12 250.97 153 253.53"/><path class="cls-1" d="M241.6,227.94l1.45-1.5C242.37,227.11,242,227.56,241.6,227.94Z" transform="translate(-119.22 -68.16)"/><path class="cls-1" d="M218.88,251.37c1-.72,1.06-.57,1-.32s-.42.71-.39.91a.75.75,0,0,0,.67.06L220,252a4.76,4.76,0,0,1,.27-.6l.16.13.32-.37c1.05-1.08,2.11-2.15,2.11-2.15-1.22.73-2,1.44-2,1,6.44-6.24,2.31-1.69,7.29-6l7-7.13-.5.65a8,8,0,0,0,1-1.15l23.73-24c4.14-4.55-2.87,1.94-.05-1.64-5,5-12.79,12.25-12.71,13.19.1-.24.29-.72-.79.24l-2.49,3.34,2.91-2.64c-2.5,3.35-12.06,12.72-14,14.17,5.24-5.53,2-3.34,9.8-10.56-.47.21-2.07,1.35-.45-.41-4.32,4.47-8.51,8.61-12.69,12.83-2.1,2.11-4.19,4.23-6.3,6.43L221,248.85l-.8.85-.38.41-.12.14C219.42,250.64,219.13,251,218.88,251.37Z" transform="translate(-119.22 -68.16)"/><path class="cls-1" d="M304.05,165.7l0,.12C304.16,165.63,304.2,165.56,304.05,165.7Z" transform="translate(-119.22 -68.16)"/><path class="cls-1" d="M301,168.59l-3.77,4.78,6.63-6.71.13-.84a28.87,28.87,0,0,1-3.71,4Z" transform="translate(-119.22 -68.16)"/><path class="cls-1" d="M292.6,178.65c3.3-3.6,2.69-3.83.62-2.14,3-3.36,2.12-1.22,3.86-3.84-.37-.23-4.1,3.85-4.94,4.8Z" transform="translate(-119.22 -68.16)"/><polygon class="cls-1" points="147.73 135.7 148.53 134.55 146.09 136.9 147.73 135.7"/><path class="cls-1" d="M267.75,202.71l2.42-2.32a2.23,2.23,0,0,0-1.06.37Z" transform="translate(-119.22 -68.16)"/><path class="cls-1" d="M276.5,194.29c1-1,2.17-2.06,3.53-3.4Z" transform="translate(-119.22 -68.16)"/><path class="cls-1" d="M273.69,196.9l.13,0,2.68-2.58Z" transform="translate(-119.22 -68.16)"/><path class="cls-1" d="M270.17,200.39c.67-.09,1.43-.24,4.78-3.74l-1.13.22Z" transform="translate(-119.22 -68.16)"/><polygon class="cls-1" points="131.62 231.26 128.74 228.72 128.98 229.05 131.86 231.59 131.62 231.26"/><path class="cls-1" d="M235.47,283.52c-.72-.62-1.29-1.08-1.8-1.48A16.43,16.43,0,0,0,235.47,283.52Z" transform="translate(-119.22 -68.16)"/><path class="cls-1" d="M221.85,273.89c-2.9-3.49,4.78,4-1-2-.25-.79,2.87,1.62,5.52,4.54-.48,0-2.88-2.54-1.43-.57,2.14,1.54,2.64,2.45,2.39,1.42,3.35,2.86,4,2.93,6.33,4.79-3.93-3.59-11.41-11.87-16.68-16.14-3.09-2.16-2.13.07-2.82.74C214.41,267.19,221.14,274.08,221.85,273.89Z" transform="translate(-119.22 -68.16)"/><path class="cls-1" d="M226.19,279.58a38.91,38.91,0,0,0,2.88,2.78C229.06,281.88,227.39,280.76,226.19,279.58Z" transform="translate(-119.22 -68.16)"/><path class="cls-1" d="M221.48,239.2c.18-.38,2.73-3.17,2-2.76l-3.92,4.17A6.58,6.58,0,0,1,221.48,239.2Z" transform="translate(-119.22 -68.16)"/><path class="cls-1" d="M217.83,242.44l1.72-1.83C219.1,241.05,218.56,241.61,217.83,242.44Z" transform="translate(-119.22 -68.16)"/><path class="cls-1" d="M221.73,239.07l-.25.13C221.44,239.28,221.47,239.29,221.73,239.07Z" transform="translate(-119.22 -68.16)"/><path class="cls-1" d="M286.49,184.64c.13.24,1.82-1.67,2.67-2.63C288.41,182.73,287.32,183.7,286.49,184.64Z" transform="translate(-119.22 -68.16)"/><path class="cls-1" d="M353.65,116l1.74-1.44A13.82,13.82,0,0,0,353.65,116Z" transform="translate(-119.22 -68.16)"/><path class="cls-1" d="M373.15,86.42a1.28,1.28,0,0,1,.23-.42A1.28,1.28,0,0,0,373.15,86.42Z" transform="translate(-119.22 -68.16)"/><path class="cls-1" d="M373.38,86c.94-1.24,4.54-4.36,5.51-5.81l-.08.23,1.05-1.2c.14-.14.27-.29.39-.43l.17-.2.07-.12.15-.24A19.42,19.42,0,0,1,379,80l-2.26,2.3A43.19,43.19,0,0,0,373.38,86Z" transform="translate(-119.22 -68.16)"/><path class="cls-1" d="M285.46,86.31c1.59-1.67,3.24-2.88,2.72-2.16,3.07-3.6,3.44-3.37,3.35-4.32,1.89-2.39,4.52-4.31,2.3-1.67l5.84-6.48-3.76,3.6a19.69,19.69,0,0,1,3.3-3.62l.57-.55.14-.14.07-.07.3-.27.3-.25.3-.24L301,70l.27-.18c.4-.25.8-.48,1.19-.68a8.15,8.15,0,0,1,1-.4c.31-.09.61-.22.89-.27.56-.12,1-.22,1.38-.33l-.68,0a7,7,0,0,0-1.76.35,5.23,5.23,0,0,0-1.2.47c-.23.11-.47.24-.7.38l-.35.22-.28.19-.65.54-.05,0-.29.27-.08.07-.15.16-.31.31L296,74.57l.19-.48a66.93,66.93,0,0,1-5.46,5.53c.09-.24-.13-.25,1-1.44-8.08,8-1.41,2.92-8,9.75C284.18,87.5,284.7,87,285.46,86.31Z" transform="translate(-119.22 -68.16)"/><path class="cls-1" d="M277.57,92.1l-2.27,3.35L270.45,100c.13.24-3.15,3.82-.66,1.66.42-.48,1.26-1.44,2-2.14-.13.92-6.07,6.46-4.28,5.48,3.62-3.83,4.28-4.31,6.25-6.93,3.45-3.38,6-5.78,7.77-7.23,1-1.07.85-1.46,2.09-2.8-.28.29-.53.56-.86.89l-.74-.46a43.09,43.09,0,0,1-3.2,3.36l4.81-6.22c-2.34,1.21-7.43,7-9.83,8.9C277,92.35,271.92,96.92,277.57,92.1Z" transform="translate(-119.22 -68.16)"/><path class="cls-1" d="M283.63,88.06l.14-.13Z" transform="translate(-119.22 -68.16)"/><path class="cls-1" d="M246.09,364a6,6,0,0,0-1.91-1.46l13.21,13.19c-.26-.57-3.86-4.57-1.23-2.12a29.08,29.08,0,0,0-5.27-4.9l1.2.71c-3.35-2.73-4.82-5.41-2.66-3.61l-.26-.26-9.61-7.23C242.58,361.45,242.35,360.26,246.09,364Z" transform="translate(-119.22 -68.16)"/><path class="cls-1" d="M297.24,90c-1.65,1.76-1.81,2-1.56,1.89C296.25,91.25,296.79,90.61,297.24,90Z" transform="translate(-119.22 -68.16)"/><path class="cls-1" d="M237.31,356.6l-3-2.27A34.82,34.82,0,0,0,237.31,356.6Z" transform="translate(-119.22 -68.16)"/><path class="cls-1" d="M261.26,369.21s.07,0,0-.1l-1.37-1,0,0Z" transform="translate(-119.22 -68.16)"/><path class="cls-1" d="M176,298.09l-.89-.84C175.43,297.56,175.72,297.84,176,298.09Z" transform="translate(-119.22 -68.16)"/><path class="cls-1" d="M299.16,402.85l-6.23-5.51c.95.61-1.93-2.17-.49-1.13-.48-.42-2.64-2.45-2.16-1.79l1.21,1.18c-3.59-2.6-1.91-.53-7.41-5.29a31.56,31.56,0,0,0,6.47,6.07l1.6,1.47,5.57,4.19Z" transform="translate(-119.22 -68.16)"/><path class="cls-1" d="M218.25,174.61l0,.1C218.27,174.64,218.27,174.62,218.25,174.61Z" transform="translate(-119.22 -68.16)"/><path class="cls-1" d="M218.13,175.13l.1-.42C218,175.11,216.86,176.39,218.13,175.13Z" transform="translate(-119.22 -68.16)"/><path class="cls-1" d="M238.6,357.25a3.72,3.72,0,0,1-1.29-.65l2.25,1.69Z" transform="translate(-119.22 -68.16)"/><path class="cls-1" d="M244.16,360.65l5,4.87,2.08,1.57C249.26,365.29,247,363.15,244.16,360.65Z" transform="translate(-119.22 -68.16)"/><path class="cls-1" d="M183.52,306.19c-10.32-10.16,3.1,1.94-1.47-2.91-2.91-2.78-4.19-3.5-6.05-5.19,8.36,7.89-2-.19,6.33,7.86-1.67-.67-6.46-5.37-9.1-8.28-2.67-3.63,3.1,2.39,4.29,2.64-3.37-3.21-2.88-2.55-4.54-3.67-5-5.28-11.27-10.09-13.69-13.84-3.84-3.63-3.83-3.16-6.23-5.05-.94.08,5.29,5.83,6.27,7.62-.25-.33-.72-1-.49-.89l3.13,3.34c-2.89-3.25.94-.09,2.62,1.51,1.2,1.18,3.59,3.53,3.13,3.34L165.8,291c2.16,2.49,5.5,4.75,7.68,7.48,0,.25-1-.63-1.19-.7,3.11,2.4,5.74,5.07,10.06,8.89l-2.87-1.84c3.82,2.69,11,10.22,15.84,15.63-.48-.66-1.44-1.74-.73-1.22,3.12,2.88,5,5.49,3.38,4.37,3.35,2.51,10.81,11.53,15.36,15l21,15.77c-.76-.62-1.55-1.3-2.33-2-1.22-2.12-2.17-3,1.18-.46-3.11-2.64-2.38-1.18-6.71-5.47,1.92,1.46,2.86,1.38-1.22-2.81-10.78-9.89-18.91-15.46-29.22-24.46,0-.71-7.68-8.19-11.28-11.95,1.77,1,4.61,3.66,7.52,6.42l-7.07-7.17Z" transform="translate(-119.22 -68.16)"/><path class="cls-1" d="M208.68,329c-.23-.29-.48-.57-.73-.86A7.51,7.51,0,0,0,208.68,329Z" transform="translate(-119.22 -68.16)"/><path class="cls-1" d="M193.1,314.44c.05,0,0,0,.07,0l-.93-.87Z" transform="translate(-119.22 -68.16)"/><path class="cls-1" d="M237,354.05c.71.51,1.19.94,1.9,1.45l-1.39-1.22C237,353.89,236.73,353.73,237,354.05Z" transform="translate(-119.22 -68.16)"/><path class="cls-1" d="M238.42,356.72l-.47-.19.65.72C238.75,357.24,238.73,357.1,238.42,356.72Z" transform="translate(-119.22 -68.16)"/><path class="cls-1" d="M147.51,263.92l-1.06-.9A5.61,5.61,0,0,0,147.51,263.92Z" transform="translate(-119.22 -68.16)"/><path class="cls-1" d="M172.7,294.2c3.59,3.52.94-.09,6,4.94l-1.45-1.51c3.84,3.4,10.09,9.85,14.41,14.13-.69-.28,2.35,2.86,1.53,2.67a72.53,72.53,0,0,0,7.83,6.88c1.72,1.93,4.77,4.41,6.95,6.86-.79-1.17,3.94,2.63-1.92-2.76.48.43.24.1.71.52-3.35-3.89-5.27-4.89-8.39-8-1.68-2.06,3.36,2.75,1.67.91-4.08-3.72-12-12.47-12.47-11.5a22.93,22.93,0,0,1-3.84-4.31c-5.25-3.73-16.33-17-17.27-16,1.68,1.6,4.33,4.3,6.94,6.49Z" transform="translate(-119.22 -68.16)"/><path class="cls-1" d="M230.92,348.11l-.68-.7Z" transform="translate(-119.22 -68.16)"/><path class="cls-1" d="M273.05,395.9l-2.13-.85c-8.64-8.33-11.52-11.58-19-19-.48-.66.48.19,1,.62-5.28-5.14-12.95-13.08-17-16.58-1.65-1.67-5.81-6.22-4-4.76-.86-.75-1.84-1.62-2.75-2.57,0-.48,2.14,2,2.38,1.88-.72-.75-1-1.09-1.2-1.18,1.44,1-.51-2.07,5.26,3.72,1.7,2.78-4.07-3.94-3.34-2,1.91,1.92,1.91,1.47,2.15,1.56,2.43,2.46,2.22,2.54,1.95,2.54,1.12.76,3.93,4.08,5.5,5.1,4.8,4.7-.7.18,2.41,3.28l2.39,1.18,5,5.27c7.67,7.25,0-2.1,8.84,6.09-1.44-.81,1.46,3.14,5.3,7.23-2.39-2.35-7.18-6.35-10.06-9.59,3.85,4.79-6-5.9-4.31-3.12a83.34,83.34,0,0,1,8.63,8.33l-1-.86c2.89,3,5.75,4.63,9.59,8.95,2,2,1.5,1.8,1,1.58C271.52,394.34,273.17,395.76,273.05,395.9Zm-4.54-4.29-2.65-2.77A22.94,22.94,0,0,0,268.51,391.61Z" transform="translate(-119.22 -68.16)"/><path class="cls-1" d="M239.74,130.09l.87-.78C240.4,129.47,240.08,129.77,239.74,130.09Z" transform="translate(-119.22 -68.16)"/><path class="cls-1" d="M243.35,377.89l-1.55-1.59C242.39,376.94,242.89,377.44,243.35,377.89Z" transform="translate(-119.22 -68.16)"/><path class="cls-1" d="M206.13,344.64l-2.43-2.16A31.76,31.76,0,0,0,206.13,344.64Z" transform="translate(-119.22 -68.16)"/><path class="cls-1" d="M221,148.77l-.08.07-.33.39Z" transform="translate(-119.22 -68.16)"/><path class="cls-1" d="M136.86,272.56c-.3-.4-.64-.83-1.14-1.41A6.34,6.34,0,0,0,136.86,272.56Z" transform="translate(-119.22 -68.16)"/><path class="cls-1" d="M206.58,345l-.13-.15-.32-.24Z" transform="translate(-119.22 -68.16)"/><path class="cls-1" d="M257.12,395.16l1.06.95C257.7,395.65,257.39,395.38,257.12,395.16Z" transform="translate(-119.22 -68.16)"/><path class="cls-1" d="M256.61,391.25c.37.35.74.67,1,.92Z" transform="translate(-119.22 -68.16)"/><path class="cls-1" d="M312.92,419l-2.2-2C311.77,418,312.43,418.61,312.92,419Z" transform="translate(-119.22 -68.16)"/><path class="cls-1" d="M261.81,397.24c.15.09.3.19.41.24C261.9,397.21,261.73,397.11,261.81,397.24Z" transform="translate(-119.22 -68.16)"/><path class="cls-1" d="M255,118.44l-.13.13,0,.13Z" transform="translate(-119.22 -68.16)"/><path class="cls-1" d="M259.22,112.43l1.81-1.9C260.34,111.21,259.68,111.9,259.22,112.43Z" transform="translate(-119.22 -68.16)"/><path class="cls-1" d="M135.93,234.21c.65-.48,2.07-1.68,1.55-1C138.43,232,138.05,231.81,135.93,234.21Z" transform="translate(-119.22 -68.16)"/><path class="cls-1" d="M248.4,132.5c.26-.42.62-.9,1-1.38C248.68,132,248.07,132.75,248.4,132.5Z" transform="translate(-119.22 -68.16)"/><path class="cls-1" d="M249.38,131.12c.34-.43.7-.9,1-1.28C250,130.28,249.68,130.71,249.38,131.12Z" transform="translate(-119.22 -68.16)"/><path class="cls-1" d="M129.36,251.82a.81.81,0,0,0-.11.54C129.39,252.28,129.36,252.09,129.36,251.82Z" transform="translate(-119.22 -68.16)"/><path class="cls-1" d="M262.63,109.12c.19-.48,7.95-8.86,1.09-2.14-.19-.71,4.15-4.57,5.85-6.49-1.42,1.21.37-.94-.19-.7a47.71,47.71,0,0,1-3.3,3.61c-.89.47,1.23-1.92,3.06-3.6-2.4,1.93,2.4-3.1-.85-.21-6.4,6.71-10.87,11.5-14.83,16.76,3.63-3.84,7.68-8.15,10.92-11l-.9,1.67c-3.8,3.13-5.69,5.52-9.13,8.89l7.86-7.45c3.9-3.26,1.58-.79-1.18,2.11A9.79,9.79,0,0,1,262.63,109.12Z" transform="translate(-119.22 -68.16)"/><path class="cls-1" d="M260.84,117.65l.14-.11c.1-.13.23-.28.29-.37Z" transform="translate(-119.22 -68.16)"/><path class="cls-1" d="M305.53,427.2l-.8-.51C305.34,427.17,305.56,427.3,305.53,427.2Z" transform="translate(-119.22 -68.16)"/><path class="cls-1" d="M254.42,120.36h0C254.37,120.41,254.36,120.42,254.42,120.36Z" transform="translate(-119.22 -68.16)"/><path class="cls-1" d="M300.8,422.14l.12.06A.62.62,0,0,0,300.8,422.14Z" transform="translate(-119.22 -68.16)"/><path class="cls-1" d="M288.13,426.06a.31.31,0,0,0,.06.17C288.56,426.55,288.41,426.37,288.13,426.06Z" transform="translate(-119.22 -68.16)"/><path class="cls-1" d="M300.75,422.17s0,0,.05,0S300.73,422.13,300.75,422.17Z" transform="translate(-119.22 -68.16)"/><path class="cls-1" d="M219.79,344s.19.31.52.77C220.5,344.93,220.39,344.74,219.79,344Z" transform="translate(-119.22 -68.16)"/><path class="cls-1" d="M234.93,360.31l.24.33Z" transform="translate(-119.22 -68.16)"/><path class="cls-1" d="M130.49,236.19c-.78.77-1.36,1.36-1.83,1.87C129.23,237.5,129.84,236.89,130.49,236.19Z" transform="translate(-119.22 -68.16)"/><path class="cls-1" d="M300.92,422.2a8.79,8.79,0,0,1,.91.65A8.08,8.08,0,0,0,300.92,422.2Z" transform="translate(-119.22 -68.16)"/><path class="cls-1" d="M193.91,322l.53.44-.27-.3Z" transform="translate(-119.22 -68.16)"/><path class="cls-1" d="M186,313.56a7,7,0,0,0,.69.44c-3.08-2.76-8.28-8.31-9.32-8.54,1,1,5.9,6.37,4.79,5.73,2.14,1.94,4.86,5.24,6,6.27-3.12-3.57,0-.71,2.38,1.42,1.93,2.17-.72-.06,1,1.78l4.8,4.71-4.09-4.19,1.65.86-.46-.38C186.26,314.83,193.43,320.48,186,313.56Z" transform="translate(-119.22 -68.16)"/><path class="cls-1" d="M186.69,314c.47.41.88.77,1.22,1A6.28,6.28,0,0,0,186.69,314Z" transform="translate(-119.22 -68.16)"/><path class="cls-1" d="M158.72,284.73l-1.31-1.18Z" transform="translate(-119.22 -68.16)"/><path class="cls-1" d="M254.7,370.67c0,.24,3.85,4.56,4.08,4.18l-3.56-3.75Z" transform="translate(-119.22 -68.16)"/><path class="cls-1" d="M168.33,206.06,167,207.42l-.21.31A19,19,0,0,0,168.33,206.06Z" transform="translate(-119.22 -68.16)"/><path class="cls-1" d="M180.75,310.07a9.65,9.65,0,0,0,1.41,1.12A10.51,10.51,0,0,0,180.75,310.07Z" transform="translate(-119.22 -68.16)"/><path class="cls-1" d="M169.3,206.52a9.83,9.83,0,0,1,1.89-1.22c1.19-1.18,1.86-2.17,3-3.43A62.12,62.12,0,0,1,169.3,206.52Z" transform="translate(-119.22 -68.16)"/><path class="cls-1" d="M174.3,201.76l-.1.11Z" transform="translate(-119.22 -68.16)"/><path class="cls-1" d="M252.4,368.11l-1.15-1,.65.48-2.72-2.9c-.35-.32-.74-.66-1.2-1.1a1.87,1.87,0,0,0,.48.33l-.86-.94c-2.55-1.92-8.34-7.26-10.13-8.68-2.26-2-4.94-4.51-6.54-6.17,1.5,1.52,3.57,3.47,3.14,2.69-2.89-3.25-3.86-5.26-9.6-10.11l3.11,3.1-7.66-6.31c-2.16-2.73,3.83,3.15,5,3.88-5.77-5.11-9.4-10.51-12.5-12.44,0-.7,0-1.87-3.62-5.4,2.17,3-2.39-1.89-.71.64-1.43-1-3.85-4.1-4.31-4.05l.48.19c-5.54-6.63-8.39-7.76-11.28-10.08-7.43-7.15-10.55-10.72-16.55-16.61,0-.46-1-2.72-3.39-5.08-1.42-.79-7-6-7.9-6.17,4.1,4.43,3.83,3.15,6.47,5.61,1.71,2.54-.22.61,2.43,3.76-2.18-2.51-10.8-10.36-13-13.32l1,.85c-3.85-4.33-3.64-6.11-11.06-12.33l-3.5-3a1.29,1.29,0,0,0,.38.14c-2.64-2.69-3.49-3.78-4.45-4.89-.24-.28-.49-.55-.78-.87s-.67-.69-1.1-1.12c-.86-.84-2-1.92-3.82-3.54.56.5.32.17.87.67-.7-.8-1.45-1.58-2.22-2.35,1.42-1.43,2.69-2.86,3.94-4.28.63-.72,1.24-1.42,1.83-2.08l1.53-1.72c1.88-1.21,0,.7-.75,1.9A180.07,180.07,0,0,0,158,229l4-3.6c-2.12,2.39-4.52,5.5-3.63,5a62.35,62.35,0,0,1,4.48-4.8,34.44,34.44,0,0,1-2.45,3.82c6.47-5.76.61-2.13,5.54-5.75,1.93-1.92,2.73-3.35,2.68-3.81l3.82-3.15c.06-.71,4.34-5,7.1-7.89.2-.49-2.62,1.91-3.56,3.11-.05-.47,2.83-3.59,4.76-5.51,1.4,0,12.51-12.71,11.05-9.62,8.43-8.88,20.52-21.11,25.94-27.11,2.07-1.69,5.92-5.52,3.94-2.89,7-7,9.86-11.27,17-18,.66-.49-3.12,3.13-2.64,3.11,4.24-4.79,8.51-7.93,15.34-15.12a5.6,5.6,0,0,0-1.46,1.91c-.24,0,2.63-3.11,4.34-5,1.07-1-1.28,1.45-.62,1,13.88-13.21,23.26-24.47,36.76-37.91-3.85,3.84-4.85,5.75-4.7,6L289.43,99c1.23-1.68,4.06-4.51,6.25-7,.38-.2,1.62-1.26.56,0a92.65,92.65,0,0,0,9.53-10L308,79.39l.28-.33.17-.26a2.17,2.17,0,0,0,.31-.53,3.54,3.54,0,0,0,.31-1.21,3.38,3.38,0,0,0-.14-1.26,1.93,1.93,0,0,0-.23-.55,1.47,1.47,0,0,1-.1-.22l0-.06-.08-.1-.17-.21-.34-.41-.05,0h0c.24.27.06.07.11.13h0l0,0-.07,0-.14-.11-.27-.23a3.18,3.18,0,0,1-.32-.16,3,3,0,0,0-.56-.24c0-.06-.25-.08-.45-.1l-.6-.07h.68a1.63,1.63,0,0,1,.32,0,1,1,0,0,0,.2,0l.25,0,.33.13a2.37,2.37,0,0,1,.73.39l.1.06,0,0h0s.1.1-.09-.11v0l.23.23.47.49a4.32,4.32,0,0,1,.75,1.87,4.46,4.46,0,0,1-.41,2.25,7.65,7.65,0,0,1-.65,1l-.76.9-1.58,1.87,3.05-2.41-4.44,5.28c3.14-2.69,5.13-5.63,5.74-6a2.47,2.47,0,0,1-.47.81l-.34.44-.33.37c-.42.48-.76.9-.69,1a13.24,13.24,0,0,0,1.75-1.79,3.27,3.27,0,0,0,.53-.88,2.91,2.91,0,0,0,.31-.83c.06-.27.11-.53.17-.8s0-.55,0-.85a4,4,0,0,0-.1-1,4.24,4.24,0,0,0-.28-1.1,5.28,5.28,0,0,1,.27,3.74,5.49,5.49,0,0,1-1,2c-.11.15-.24.34-.35.46l-.32.36-.66.74c-1.78,2-3.76,4.1-5.77,6.21L292.41,99.77c-.86,1,.61-1,.7-1.19-2.35,2.4-4,3.61-6.86,6.72-1.56,2.15,1.63-1.2,3.14-2.64.05.46-.7,1.19-2.31,2.87-.7,0-9.13,8.88-11.66,10.58-8.67,8.88,2.29-.51-6.42,7.9l-2.95,2.16c-4.67,5.28-10.82,12-16.53,17.52l1.17-1.2c.62-1-.79.24-1.45.73-4.42,4.08-7.76,8.38-10.73,10.56-4.43,5.27-12.2,13.66-17.52,19.42-2,1,6.78-7.67,8.77-10.3l-5,5a45.72,45.72,0,0,0,5.72-6.72c-4.52,4.33-5.52,6.24-9.57,10.56.18-.47-.47,0-2.4,1.93l-.21.9a4.67,4.67,0,0,0-.92.77l-7.25,7.67c1.73-1.44,2.11-1.21,4-3.13-.89.48.71-1.19,2.64-3.11-1.46,1.91,2.07-1.69,2.22-1.47-3.88,3.86-8.58,8.66-11,11.28l-1.14.51c-3.77,3.6-7.48,7.67-10.07,10.07l.62-.95c-4.52,4.32-8.66,8.88-12.9,12.49-3.58,4.31-8.24,9.57-11.08,13.17-1.31,2.14-12.08,11.06-15.95,16.08-.34.25,2.75-3.36,4.11-5-3,2.9-4.86,5.76-6.22,6.25,6.78-6.49-.7,0,2.16-3.1-3.1,3.12-6.29,6.47-7.66,8.15,5-5-1.19,2.38,3.71-2.9-1.7,2.05-3.78,4.38-6,6.74l-2.17,2.28c-.53.54-1.07,1.06-1.65,1.59.1.11.19.22.29.32-.37,0-.26.28.54,1.25,0,0,1.1.56,1.08.54.5.55-.09.11-.62-.24s-1-.61.2.65a10.71,10.71,0,0,1,1.48,1.23c.71.66,1.47,1.39,2.24,2.15l4.7,4.74c3.09,3.12,5.91,5.88,7.34,6.45,3.13,3.81-7-6.27-2.13-.62-3.36-2.73-7.2-7.29-8.63-7.86,3.1,2.86.73,1.45,2.65,3.38l3.59,3.06-.72-.75c6,5.18,14.64,14.22,21.83,21.28C184,293.14,188.8,296.68,196,304c-2.39-1.88,5.77,6.26.75,2.16,3.13,3.58,6.7,6.62,6.95,6.5-2.88-3-1-1.09-3.37-3.67a64.17,64.17,0,0,1,7.2,7.06c-.72-.75-.48-.43-.71-.52,3.37,3.68,1.91,1.46,4.55,3.92.49,1.12,5.53,5.7,7.69,8.19l3.82,2.91c-2.14-1.55,3.12,3.34,3.38,4.15a82.83,82.83,0,0,1,8.62,7.62c-1.67-1.36,3.13,3.58,2.9,3.95,6,6.59,11.25,9.61,16.79,16-.26-.11-1.66-1.12,0,.7,1.46,1.29,3.83,3.73,5.33,5.17l-.05,0,.08.07c.74.7,1.23,1.12,1.32,1.06,2.81,2.22,4.41,3.22,9.61,7.92,0-.71-4.33-4.75-6.25-6.45l-1.91-1.23c-1-2-4.55-4.37-5.52-5.69,3.58,2.36,12,11.07,17.5,15.83-2.65-3.61-9.38-10.5-15.38-16.38l2.41,2.82-3.12-3.1,2.64,3.38c-2.87-3-5.51-5.46-8.15-8.14,3.12,3.11,3.86,4.8,2.17,3-3.13-3.81-3.84-3.4-6.47-6.07,1.44,1.51,3.36,3.43,1.92,2.39-4.81-5.64-6.5-6.79-10.81-12,0,1.17-6-5.89-7.19-6.13l2.16,2.26-5-4.34c-3.85-4.79,4.3,3.35-1.94-3.56-6-6.12-6.46-5.36-11.27-10.09a77.64,77.64,0,0,1,9.82,8.59l-2.16-2.5c1.43,1,6.71,6.4,9.35,9.08-4.78-4,1.93,2.17,3.63,4.48.69,0-2.18-2.73,1.41.33-3.12-3.11-3.6-3.54-7.45-7.63,8.43,8.73,8.86,6.57,16.07,14.33-3.6-3.3.72,1.68,1,2.25,1.66,1.59,5,4.8,6.47,6.07l-.75-1.7c4.57,4.15,5.07,6.68,10.6,11.22.94.37-4.33-4.52-3.37-3.67,7.18,6.58,8.89,9.83,14.65,16.3.49.21.72-.17,3.11,1.72-1-.39.48,1.34-2.14-.85a79.53,79.53,0,0,0,6.47,6.06c-4.08-4.42,2.15,1.33,3.11,1.95,2.16,2.25-1-.39-2.4-1.66,1.7,1.84,3.38,4.37,4.81,4.94-.23.38-5.74-4.15-9.1-7.35l2.17,2.26a35.37,35.37,0,0,1-4.07-3.94c1.91,2.38,1.44,2.43.73,2.14-.24-.33.23.08,0-.23-1.69-1.84-3.13-3.12-2.88-2.55-2-1.18,2.2,2.71,3.2,4.11l2.78,2.62,10.48,7.88a91,91,0,0,1,8.28,9l1.16.46c3.37,3.45,6.49,6.79,3.86,5,0-.24-.49-.66-1.21-1.42a2.54,2.54,0,0,1-.6-.38l-.23-.11,6.35,5.95c-6.71-5.7-.94.32-2.59-.1l3.23,3,1.19,1.11.55.51.71.81.2.22.14.19a2.13,2.13,0,0,0,.16.25c.2.31.37.6.5.84a5,5,0,0,1,.36.74,11.53,11.53,0,0,0-.88-1.76l-.2-.31-.1-.14-.17-.24-.25-.38,0,0h0l-.29-.32h0l0-.06-.06-.09c-.07-.1-.05-.12,0-.09l.15.11,0,0h0l.3.33h0l0,0a1.14,1.14,0,0,1,.11.11,6.94,6.94,0,0,1,.57.6,12,12,0,0,1,1.18,2,15.27,15.27,0,0,1,.58,1.82c.1.6.16,1.15.2,1.61a5.62,5.62,0,0,0-.18.88,10.05,10.05,0,0,1-.36,1.7c-.11.33-.22.69-.35,1.07s-.36.74-.57,1.13a6.28,6.28,0,0,1-.76,1.14l-.45.56-.24.27,0,0-.35.32,0,0-.08.06-.61.53a11.28,11.28,0,0,1-1.6,1l-.43.22-.37.13-.74.24a6.6,6.6,0,0,1-1.51.29,9.24,9.24,0,0,1-2.89-.1,8.93,8.93,0,0,1-2.36-.85l.43.11a9.74,9.74,0,0,1-1.86-1.2c-.3-.24-.62-.53-.91-.79l-.47-.5-2.09-2.12c-1.47-1.46-3-2.95-4.35-4.18,0,.24-3.82-2.45-5.73-3.68,4.23,4.49,1.5,2,1.64,2.61a12,12,0,0,0-1.38-1.34c-.72-.52.72,1,.72,1.22,2.4,2.23,4.8,4.53,6.9,6.44,1.05,1,2,1.82,2.88,2.53.27.21.52.42.76.62.45.35.89.67,1.32.95a11,11,0,0,0,2.42,1.06,15.71,15.71,0,0,1-2.65-1.63c-.37-.29-.8-.64-1.09-.89l-.51-.43a13.94,13.94,0,0,1-2.13-2c.66.49,1.33,1.05,2,1.67l.53.48.32.29.62.51a11.36,11.36,0,0,0,2.84,1.71,11,11,0,0,0,7.16.3l.93-.3q.57-.25,1.14-.57A12.26,12.26,0,0,0,312,436l.17-.12.09-.08.19-.15.37-.3,0,0,0,0,.45-.4,0,0,.18-.19.34-.4a9.17,9.17,0,0,0,1.23-1.77l.34-.5a7.12,7.12,0,0,0,.63-1.18c.2-.45.38-.92.51-1.27a4,4,0,0,0,.16-.6s0-.19.05-.52a10.88,10.88,0,0,0,0-1.37,17.17,17.17,0,0,0-.24-1.93,17,17,0,0,0-.72-2.15c-.21-.43-.44-.86-.69-1.27-.13-.2-.25-.4-.39-.59l-.19-.29a1.06,1.06,0,0,0-.11-.13l-.58-.65-.44-.48,0,0-.07-.06-.12-.12-.2-.18-.17-.16.56.44.06,0,0,0h0l.41.45h0l.1.08.19.14.34.24.17.12a4.09,4.09,0,0,1,.39.48,12,12,0,0,1,1,1.48l.25.49.18.45c.12.31.24.66.37,1.06a11.11,11.11,0,0,1-.38,7.15,7.87,7.87,0,0,0,.88-2.8,9.6,9.6,0,0,0,.06-2.48,12,12,0,0,0-.19-1.42c-.12-.47-.26-1-.43-1.46a12,12,0,0,0-1.81-3.3l-.47-.54-.57-.64-.13-.12-.27-.25c-.7-.68-1.39-1.36-2-2l-1.65-.89c.7.27-4.58-5.09-.51-1.6l3.24,2.92,1.19,1.07.28.25.13.12.07.06,0,0h0l.5.55v0l.44.48.2.22.21.28.23.34c.3.45.54.85.73,1.19a9.08,9.08,0,0,1,.51,1,7.76,7.76,0,0,0-.45-1.1c-.16-.33-.36-.72-.59-1.13l-.54-.89-.43-.73-.52-.58h0v0l0,0-.05-.06-.07-.09-.06-.09.23.22,0,0,.55.6.06.07.13.15.3.36.08.1.05.05.08.11c.18.26.36.52.54.8a17,17,0,0,1,1,1.85,13.16,13.16,0,0,1,.55,1.64c.08.28.15.56.23.85s.08.58.12.87a13.12,13.12,0,0,1-.77,6.36c-.36.81-.72,1.47-1,1.92a4.2,4.2,0,0,1-.44.68,1.43,1.43,0,0,1,.1-.16,4.56,4.56,0,0,0,.25-.44c.19-.38.43-.89.64-1.4a8.52,8.52,0,0,0,.47-1.44l.15-.67c-.12.45-.25.89-.4,1.3a12.75,12.75,0,0,1-.53,1.18c-.19.37-.39.73-.59,1.07s-.45.63-.67.93-.46.57-.7.83l-.17.2-.08.09,0,0h0l-.57.52h0l-.16.13-.57.47a13,13,0,0,1-3.33,1.79,12.19,12.19,0,0,1-2.27.54,10,10,0,0,1-3,0,8.15,8.15,0,0,1-1.76-.45c-.51-.19-1-.4-1.68-.68a18.68,18.68,0,0,1-2.52-1.51l-.8-.66-.44-.38-.22-.2-.11-.11-.88-.86c-.67-.64-1.54-1.44-2.64-2.43-3.11-2.17-6-4.95-11-10.22,3.84,3.63.71.05,2.39,1.19a49.56,49.56,0,0,0-7.44-6.7c-.73-1.21-1.21-2.1,2.15,1.33.94-.09-4.56-4.38-4.34-5.22-11.28-11.25-10.74-7.31-23.25-21.14l.71.28c-8.63-8.1-13.19-13.18-21.1-20.75l-5.56-6.64c1.45,1.28,5.52,4.54,4.07,2.56,2.42,3.52,5.76,6.47,8.66,10,.47.19-.73-1.22-1.21-1.87,1.93,1.93,2.65,3.14,5.29,5.6,0-.24-2.65-3.16-.49-1.13l3.12,3.8c4.8,4.48,3.1,1.47,8.39,7.07a31.24,31.24,0,0,1-6-4.37c2.42,2.55-3.5-3.13-1.41-.68,4,3.13,5.4,5.22,10.45,9.7a16,16,0,0,1-2.06-1.7l6.73,7.1c-1.45-2,6,5.43,5.74,4.4-7.21-7.53-5.28-5.13-13.45-13.75a56.57,56.57,0,0,0,7.73,6,3.41,3.41,0,0,0,.41.48c1.67.9.47-.51,1.17-1.16-4.32-3.35-6.48-6.31-11.28-10.56-1.22-.48,2.15,3.1,4.49,5.25l-4.22-3.74,1,.62-10-10.24a23.44,23.44,0,0,0,4,3.17c-1.29-1.31-2.49-2.7-3.75-4.18-.07.64-.5.7-1.76-.58-6.43-6.58-9.72-10.52-11.72-13.32l-.78-.73c.72,1.45-5.27-4-7.66-5.62.48-.27-3.12-3.57-4.81-5.64-1.43-.57-.69,1.35,1.25,4,4.79,4,2.86,2.07,5.49,3.59l7.43,6.68L229.08,364c3.37,3.67,7.2,6.6,6.5,6.79-2.16-1.57-5.05-4.82-7.19-6.37l2.16,2.5c-4.54-3.68-1.68-2.53-7-7.2,1.45,2.21-.48-.43-2.87-2.3,1.45,2,8.87,8.65,6.73,7.8-2.86-2.31-7.95-9.46-12-12.25l.24.1a66.63,66.63,0,0,0-9.23-8.2c-1.94-2.36-5.2-5-7.55-7.34l.24-.13-3.36-3.21c1.9,1.22,3.84,3.86,6.71,6.63v-.69c2.84,3.66,5.64,5.21,8.46,7.43-4-3.37-10.29-10.46-11.83-10.64l-1.92-2.62-1.21-1c-1.43-2,.71-.64,4.07,2.56.48.66.72,1,.48.89a56.77,56.77,0,0,1,7,6.26l-2.15-1.78c4.56,4.61,8.87,8.65,10.79,9.88-6.49-6.77-13-13.31-19.21-19.52-2.62-1-5.24-2.79-6.9-3-4.31-4-10.08-9.61-13.44-13.5l.48.19a66.79,66.79,0,0,0-4.81-4.71c-1.68-2.06,1.66.89.46-.51l-6.22-5.74c.7,0,5.73,5.07,8.15,7.44-.48-.43-1.45-1.28-1.2-.95,2.64,2.92,8.38,7.54,9.12,9.23,1.44,1.27-3.1-2.4,1.46,2.21,2.89,3.25,4.32,3.82,4.78,4,.24-.14-4.56-5.08-2.65-3.61-2.41-2.37-3.6-3.08-6.48-6.31,2.39,2.34,6,5.18,7,6.73,5,4.34,5.24,2.79,3.08.53.25.8-8.89-8.2-3.1-1.7-3.11-2.41-8.16-7.45-12-10.83l.24.09-4.57-4.39c.73.53,2.17,1.8,2.4,1.66L166,302.77c3.83,3.16-1.93-2.39-3.37-4.13-1-.38-3.58-2.6-1.42-.11,2.4,2.83,1.67,1.37,4.07,3.73l-3.81-2.92-.25-.33-2.39-1.66c-4.56-4.61,2.86,1.15-3.38-4.37l.26,1.27c-6.73-6.88-14.9-16.18-19.93-20.75,1.61,1,2.65,1.16,1.1-.93,2,2.16,6.17,6.3,9.19,9.23.48.66-4.31-3.12-7.43-6.46.74,2.39,8.62,7.63,8.17,8.84,7.93,8.52,6.94,5.33,13.43,12.81.47-.28,2.17,1.8,2.86,1.84-1.46-2.68-9.35-9.32-13.67-14.06a17.51,17.51,0,0,0,1.66,1.36,82.14,82.14,0,0,0-6.95-6.73l.24.33c-4.32-3.59-2.17-2.73-4.33-5.22-1-.85-4.09-4.19-3.84-3.4l-3.86-4.56-.21.62c-2.41-2.36-2.65-3.15-5.06-5.05l-.47.27,5.77,6c-3.11-2.87-1.19-.48-4.55-3.69,2,1.64,1.44.94.33-.26-.56-.6-1.24-1.32-1.79-1.94-.27-.31-.51-.59-.68-.82a3.11,3.11,0,0,1-.2-.3,1.62,1.62,0,0,1-.15-.28l-2-1.94L122,257.84a6.48,6.48,0,0,1-.5-.68l.41.55.54.49c-.16-.21-.33-.4-.47-.59l-.31-.58a6.82,6.82,0,0,1-.53-1c-.14-.34-.27-.66-.4-1s-.19-.63-.29-.95a9.89,9.89,0,0,1-.37-2.15c0-.41,0-.86.08-1.36s.22-1,.36-1.62a10.22,10.22,0,0,0,.28,7.76,13.32,13.32,0,0,0,2.65,3.41c.52.57,1.14,1.24,1.68,1.78.39.36.8.72,1.25,1.11-.33-.28-.69-.6-1.09-.93-.11-.11-.17-.14-.33-.3l-.48-.49-1-1-2.09-2.15a9.72,9.72,0,0,1-1.41-2.53,10.91,10.91,0,0,1-.68-5.19,13.41,13.41,0,0,1,.44-2c.2-.54.33-1,.49-1.31a12.59,12.59,0,0,1,2.57-3.42,33,33,0,0,1,2.4-2.5c1.12-1,2.24-2,3.45-3.13-2.21,2.36-1.53,2.24-1.47,2.65,0,.2-.1.53-.82,1.37l-2.07,2.3-1.84,2c-.3.39-.53.84-.83,1.3a17.17,17.17,0,0,0-.65,1.6,5.7,5.7,0,0,1,1-2.31,5.58,5.58,0,0,0-1.4,2.69,8,8,0,0,0,0,4.4,10.86,10.86,0,0,0,.86,2.22,8.45,8.45,0,0,0,1.46,1.85l2.92,2.81c-.23-.53.42,0,.46-.11s-.34-.62-2.7-3.32c.35.46.22.44-.25.06-.12-.1-.26-.21-.41-.36l-.41-.54a6.21,6.21,0,0,1-.47-.68l-.42-.85a8.54,8.54,0,0,1-.6-4.64,7.88,7.88,0,0,1,2.41-4.67l0,.65a2.32,2.32,0,0,0,0,.63,12.42,12.42,0,0,1,1-1.13l2.28-2.39,2.47-2.4-.43.48c2.21-1.46,5.13-5.28,8.71-8.41,2.21-2.63,11.68-11.77,7.06-8.38,3.38-2.65,5.56-5.76,8.77-9.12L149,219.6c4.43-5.27,3.3-3.6,6.51-8.15.56-.23,1.55-1,.93,0,6.54-6.48,16-15.61,19.35-19.91,4.61-4.56,6-4.59,12.19-11.3,1.27-1.44-1.61.51,2.82-3.58.33-.25-3.67,4.54,1-.26,2.93-3.83,8.18-7.69,12.19-12.48,2.49-2.16,6.45-6.25,6-5a135.81,135.81,0,0,0-9.51,9.84c.29-.73-2.82,2.41-.28-.47-5.83,5.29-3.39,3.83-8.56,8.63-.2.49,3-2.17,3.9-3.36.51.46-9.6,10.07-4.58,6.22,5.37-5.29,5.94-7.89,11.07-12-1.56,2.14-4.7,4.79-6.54,7.65l4-3.6,2.4-3.1-.09.23c7.15-6.26,5.7-6.7,11.45-12.94-3.81,3.13,0-1.65-2.86.75,3.95-4.07,7-6.95,7.47-6.49-7.1,7.9.09.94-6.36,8.37,1.32-1-.93,2.36,3.25-1.72,4.31-5-1.8,1,2.69-3.82.32-.23.65-.47.56-.24,1.88-2.39,2.58-2.4,4.89-5.26l-.52.71c3.48-2.9,3.15-3.83,6.22-6.25-1.46.74,1.54-2.14,3-4.07-2.92,2.65-4.94,3.64-10.4,9.15-.38,1,.18.71-1.94,3.1l3.54-3.6c-.73.82-1.24,1.48-1.89,2.24l-3.57,3.28c4.14-4.55,1.84-2.86,3.39-5,4.1-3.85,3.2-3.36,5.79-5.77.17.68,8.39-6.94,13.23-11.25l-2.14,2.11c-3.06,3.59,2.64-1.94,2.88-1.95l2.21-2.63c-.42.48-1,1.21.14.24,3.2-3.36,2.59-3.59,5.79-6.94.48,0-1.94,3.1.22,1.19.9-.5,3.67-2.2,7.82-6.76a29.14,29.14,0,0,1,2.57-2.92c-.17.19-.39.43-.46.53l3.15-2.64c-2.07,2.86-5.17,4.8-7.25,7.67l.17.58a64.72,64.72,0,0,0-5.39,6.11c3-2.88,3.52-3.59,6.73-7,.69-.22-1.44,2.27-1.75,2.63l.27-.7c-4.22,3.6-5.49,6.21-10.44,11-.75.72-.33.24-.23,0-3.59,4.31-8,7.68-11.32,12l1.06-1.45-11.94,13.71.1.18c.66-.47-1.26,1.44-2.35,2.4h0L213,165a30.79,30.79,0,0,0,2.6-2.22c.63-1,5.46-5.52,4.43-5.27,2.4-1.93,5.55-5.76,7.29-7.2-3.15,2.65,1.65-2.39,1.94-3.11,1.23-.73,4.28-4.32,4.23-3.61a20.91,20.91,0,0,0-2.68,2.64c-2.72,3.34,5.84-5.29,2.35-1.21,4.57-5.05,11-11.29,15.67-16.55l-2.91,2.64c2.26-2.16,7.4-7.45,7.95-7.68-1.6,1.67-3.52,3.59-5.55,5.75.27.47,5-5,5.5-5l5.48-6.7-2.69,2.64c1.45-1.9,7.3-7.21,11.49-11.29-1.86,2.88-6.22,6.25-10.37,10.8-3,3.36,2.44-1.45-.42,1.66a26.29,26.29,0,0,0,3.66-3.71l1.27-1.09c-2.2,3.13-8.28,9-11.87,13.39a5.1,5.1,0,0,0,.61-.92c-3.24,2.88-6.35,6-9.22,9.11a22.24,22.24,0,0,0,3.11-3.11c.23,0-2.55,2.87-3.49,4.06,2.92-2.64.8-.24,2.63-1.92-1.7,1.92-3.2,3.35-5.45,5.51-1.32,1,.7-1.19.24-1.18-2.13,2.41-3.72,2.89-6.78,6.48,4.52-4.32-.67,1.67-2,3.35l.76-.73a11.66,11.66,0,0,1-3.53,3.6c1.7-1.92,3.53-3.6,2.74-3.36-1.18,1.21-2.36,2.42-3.64,3.85l1-1.43-5.89,6a39.16,39.16,0,0,0-2.39,4.28,35.09,35.09,0,0,0-4.72,4.81l.53-.73c-2.83,2.42-8.49,8.42-8.77,9.13-2.06,1.68,11.88-14.6-1.16-1.17-5,5-2.45,3.82-5.09,6.93,0,0,.09-.23-.24,0-2.25,2.15-2.21,2.63-3.91,4.55a33.81,33.81,0,0,0,3.86-3.84c-.38.95-4.61,4.56-6.08,6.48,1.75-2.63-4.42,4.09-2.95,2.16a89.28,89.28,0,0,0-11,11.75c-3.53,2.42-5.14,5.29-10.22,9.86.76-.73,2-2.16,3.12-3.13,2.4-3.11-5.19,4.81-1.27.26-.85,1,.12.25,1-.74,1.59-1.66,3-3.34,2.39-3.09l-4.24,3.62,1.29-1.46-6.39,5.54c-.1.23.55-.24.88-.48-7.11,6.73-14.78,14.88-20.9,20.88-.07,1.07-3.7,4.9-7.84,9.16l-3.16,3.24-1.56,1.61c-.2.21-.4.41-.59.62l-.34.37a3.1,3.1,0,0,0-.94,1.47,1.71,1.71,0,0,0,.27,1.33,9.84,9.84,0,0,0-.94-.87c-.28-.19-.57-.21-.77.12a3.14,3.14,0,0,1,.41-1.92,8.82,8.82,0,0,1,.87-1.13c.17-.2.34-.39.55-.61s.6-.6.92-.9c.56-.24,3.8-3.12,2-1,6.73-7-1.36.49.29-1.9-1.82,1.87-3.74,3.9-4.47,4.77a3.25,3.25,0,0,0-.87,3.59c.44,1.17,1.56,1.73,2.3,2.37l.15.12.19.15.48.42,1,.84,1.89,1.68v.24l3.84,3.39c-2.89-3-2.19-3.43,1.43.57l-.49-.43c1.93,2.4,6.73,6.65,10.09,10.08l2.62,2c3.36,3.44,2.9,4.19,3.65,5.65,5.28,5.37,8.85,7.95,12.93,11.44,1.45,2,9.36,10,4.82,6.11,5,4.57,5.47,2.19,12.93,11.21l-2.39-1.88c7.93,7.82,19.67,18.55,23,22.45-3.81-2,8.92,10.77,9.42,13.06-.18-.59,2.85,2.3,3.39,2.62a12.89,12.89,0,0,0,2.85,2.9c-2.89-3.25,3.09,1.23-3.15-4.28,3.59,2.36,7.9,5.71,14.38,12.25l-.48.28-5-5.27c.24.8-2.39-1.88-3.6-2.84,9.37,9.8-2.13-.38,7.72,9.37,1.18.71.47.19,3.11,2.64-1.21-1.18-1.68-1.14.25.79l2.15,1.56c2.8,4-6.07-5.26-3.59-1.9-4.07-3.49-10.78-9.89-10-8.19,6,6.35,6.45,4.66,12.69,11.34l.49.89a31.18,31.18,0,0,0,4.54,3.22c0,.23.49.89,1.92,2.38,4.31,3.36,7,5.81,11,8.83-9.81-9-7.69-8.42-17.76-17.79,1.68,1.37,8.63,8.1,9.57,8l-.47.28c3.36,3,6.71,5.93,10.56,10l-2.64-2.22c5.53,5,8.19,9.32,13,12.85-1.43-1.5-2.64-2.68-3.6-3.53,2.88,2.54,6.24,6,9.12,9l6.71,5.47c-.24.13,3.61,4,1.45,2.44,4.1,4.67,6.72,6.18,9.35,8.62,4.09,4.89-4.07-3.71-5-3.64a219.8,219.8,0,0,0,16.55,15.92c-1.18-1.34-1.73-2-1.58-2a56.49,56.49,0,0,0,4,4.16l1.2.71.05.06h0l-.13.13h0l-.05.07h0s0,0,0,0a.42.42,0,0,1-.07.15s-.06.07-.08.07h-.08s0,.06-.08,0l.05.05h0s0,.05,0,0,.05,0,.1,0,.12-.13.14-.13v-.05s0,0,0,0l-.15.05-.13.1,0,.06s-.06.08,0,0l.49-.41.25-.2h0l-.36.33h.05l.13,0s0,0,0,.08,0,0,0,.1h0l.35-.31h0l-.1.09-.2.17-.4.35,0,0v0l0-.05.08-.07a.35.35,0,0,1,.18-.06.43.43,0,0,1-.4,0s-.07,0-.08-.05a.06.06,0,0,0-.05,0s-.05,0-.11-.1l-.17-.17q-.66-.68-1.26-1.26c-.79-.78-1.48-1.43-2-1.88,1,1,1.89,1.81,2.67,2.59l.56.57.27.28.05,0s0,.06.05.08,0,0,.06.05,0,0,.06.05,0,.06.07.07.11.09.18.07l.1.05h.1c.16,0-.06.06-.06.2v.05s.07-.05.1-.07l.25-.17.25-.17.13-.09.06-.05,0,0h0c-.59.53-.16.14-.3.26h0s.06-.06.1-.09.1,0,.12-.09c.19-.12.23-.37.27-.63s0-.33,0-.38a.1.1,0,0,0,0,.05h.07s0-.05-.05-.07l-.32-.39-.16-.19-.08-.1,0,0c.11.13-.25-.28.25.27h0l-.05-.05c-1-1-2.09-2-3.38-3.26,0-.24,1.92,1.23,0-.7-4.56-4.38-1.67-.67-3.33-1.79,1.79,1.64,3.06,2.9,4.08,4,.51.56,1,1.1,1.39,1.64l.64.81h0c-.14-.16.31.35-.32-.35h0v0l0,.06.07.11.13.22c.08.14.2.32.25.43a5.69,5.69,0,0,1-.5-.39l-.19-.15-.08-.07,0,0h0l.34.37h0l-.05,0-.17-.11c0-.24-2.19-2.41-2.73-3.15l-1-.15c.7-.19-2.41-4-5.29-6.53,2.42,3.07,1.69,2.31,1.94,3.56-4.3-3.34-3.84-4.78-8.63-8.55.46.18,4.31,3.81,1.19.47-2.66-2.69-2.65-2-4.55-3.68,2.39,1.65,2.15.86,4.77,2.61,4.8,4.7,1.91,1.92,6.72,6.4L294.37,414c4.08,4,3.35,2.5,3.82,2.69-6.49-7.24-5.74-4.61-10.06-9.13-2.39-1.88,4.08,4.19.49,1.12-4.09-4.18-1.19-.7-6-5.18l.95.61c-1.2-1.64-2.87-2.77-4.55-4.37-1.92-1.7.76,3.32-6.69-4.07.47.26.66.33.71.28L283.39,400c-7.53-7.51-16.11-16.27-24.61-25.18-1.44-2.66,6.72,5.71,6.46,4.91l3.85,4.09c-.48,0-8.4-8.24-5.27-4.2,7.2,6.83,10.08,10.31,17.27,16.43-1.46-2.67-8.87-8.65-12.73-13.45,1.78,1.86,3.38,3.32,5,4.73l-12.79-13.3-1.18-.89c3,3.18,5.15,5.39,5.41,5.69-4.08-4.18-7.91-7.33-8.63-7.16l.72.75-1.63-1.36Zm36.94-269a3.48,3.48,0,0,0-.44.75C289,99.61,288.77,99.74,289.34,99.08Zm-1.51,319.1,8.14,8.39,4,4.15,1,1a6.28,6.28,0,0,0,.63.57,5,5,0,0,0,.74.56,6.75,6.75,0,0,0,3.52,1,6.31,6.31,0,0,1-3-1,5.33,5.33,0,0,1-1.17-.93,8.76,8.76,0,0,1-.81-.93l-2.62-3.2a40.61,40.61,0,0,1-2.92-3.89c-.3-.58.17-.33,1.7,1.06.77.69,1.81,1.67,3.15,3l2.25,2.21a7.23,7.23,0,0,0,.62.54l.32.26.38.19.38.21.42.12.43.12.46.05a5,5,0,0,0,1.28-.17,4.49,4.49,0,0,1-2.17-.19,4.31,4.31,0,0,1-1.14-.56l-.52-.44c-.18-.15-.38-.37-.57-.56-1.58-1.6-3.33-3.33-5.06-5-1.52-1.21-4.78-3.74-7.65-5.94L285.83,416a12.29,12.29,0,0,0-1.61-1.12c.73,1.21,2.41,2.36,4.1,4.2Zm-2.45-5.39c-3-3.22-2.51-2.32-3.17-2.63l3.35,3.22C285.19,412.92,285.05,412.65,285.38,412.79Zm-3.16-2.26a8.86,8.86,0,0,1,.77.84Zm-2.32-16.31c.14.14.19.19.33.31L278,392.24C278.29,392.57,278.84,393.16,279.9,394.22Zm5.91,6.77,1.06.42-2.07-2.14A3.8,3.8,0,0,0,285.81,401Zm19.32,21.44a11.61,11.61,0,0,1,1.65,1.19l1,.84.26.22.13.11.06,0h0s.11.12-.09-.11h0l0,0,.48.49a1.56,1.56,0,0,1,.29.38c.07.11.16.19.23.32s.28.52.33.76.16.45.22.62a.66.66,0,0,0,.18.33c.06.17.14,0,.21-.41,0-.2,0-.45,0-.73s-.14-.57-.21-.88-.15-.3-.23-.46a1.76,1.76,0,0,0-.27-.47l-.4-.49-.1-.13-.07-.07-.22-.23-1.85-1.89c-.11,0-.43-.18-.91-.54,1.21,1.32,1.95,2.28,1.16,2-2.66-3.86-3.34-2.5-6.71-6.17C298.89,416.45,303.94,421.49,305.13,422.43ZM203.05,172.77c.13-.06.58-.3,1.19-.66l-2.27,2.7c-4.52,4.33-8.7,7.23-12.13,11.77a27.22,27.22,0,0,1-4.49,3.14c.93-.89,1.81-1.72,2.56-2.4C198.27,175.35,194.58,182.35,203.05,172.77Zm-51.66,50.09a2.78,2.78,0,0,0,.52-.72c-9.07,10.71-17,19.08-22.33,24.38,1.35-.71,6.38-5.24,8.79-7.38l-1.64,2.39-1.55,1L132,246.32c1.23-.73,4-3.6,6.07-5.3.09-.23,5.7-6.7,7.16-8.61L140.17,237c1.41-1.2,7.72-7.69,10.17-10.32-.14-.23-4.8,3.85-5,4.81-.79.24,4.25-4.8.77-1.91a172.23,172.23,0,0,1,12.66-12.49h.93c3.24-2.88,1.52-2.62,5.42-6-4.38,4.56,1.26-.25-2.26,3.34,1.31-1,.51.46,4-3.13,2.35-3.58,4.13-3.38,6.4-6.72,2.06-1.68-1.65,2.39,2.12-1.22,3.9-4.55,3.43-4.53,3.25-5.24-4.08,3.83-3.87,5-7.21,8.15l5.67-7.19a27.68,27.68,0,0,0-2.88,2.71,36.73,36.73,0,0,0,3-3.65c.46-.61.87-1.18,1.26-1.71-3.65,3.64-6.89,6.87-7.65,7.25l.28-.72a25.11,25.11,0,0,0-4.25,4.48c-3.23,3.29-6.19,6.85-7.19,7.28l1.05-1.43C156.85,217.34,156.43,217.81,151.39,222.86ZM226.8,357.44c-1.64-3.22-3.62-6.59-15.1-17.8l.94.84c-5.22-6.21-11.8-10.49-18.2-18a69,69,0,0,0,7.87,6l-3.85-3.4c1.44.58-2.4-2.81-5-5.49l2.86,1.83a60,60,0,0,0,5.52,5.69c-1-.85,4.82,6.11,8.42,9.41,0-.7-7.45-7.86-3.62-5.16-3.11-2.64-3.12-3.34-6.25-6.22,3.12,2.64,1.19.24,3.58,2.13l-5-4.81c0-.24,7.43,6.92,3.82,2.46-2.15-1.79-7.19-7.29-7.66-7v-.24c-3.61-3.77-2.15-1.09-6.47-5.84-.24.14.5,1.13,2.16,2.72a56,56,0,0,1,4.8,4c1,1.56-3.37-3.44-1.9-1,.72,1.22,7.67,7.25,5.05,5.74l-3.61-3.76c-.46.28-3.11-2.41-3.34-2-2.39-2.11-4.09-4.66-6.72-6.63-1.19-.72,0,1.4-3.59-2.6-2.42-3.53-11.29-12.19-14.65-15.39l-3.11-2.63c0,.47,5.52,5.45,3.38,3.91l-4.57-4.39.49.2c-1.46-1.52-3.13-2.88-4.57-4.15,1.67,1.12,4.79,4.46,4.54,3.43-2-2.18-2.21-2.65-4.22-4.51.45.4.86.72.86.62-4.09-4.43-4.55-3.68-5.74-4.62-4.79-3.78,3.84,4.78,2.89,4.64L144,273.07c1.2.94,2.4,1.89,2.15,1.33-2.88-3.24.23-.37-4.09-4.66-.22.84-5.75-5.08-9.1-7.82-1.2-1.63-1.45-2,1.67,1.13,0-.69-4.35-4.78-5.73-6.22-.45-.36-1-.89-1.66-1.43a8.41,8.41,0,0,1-.8-.91,5.52,5.52,0,0,1-.54-1c.16.83.22,1.07-.14.72a2.3,2.3,0,0,1-.3-.41c-.09-.19-.19-.43-.31-.71a6.07,6.07,0,0,1-.22-1,6.3,6.3,0,0,1,0-1.35l0-.24a5.67,5.67,0,0,0-.15,2.64,6.12,6.12,0,0,0,1.22,2.59c.66.76,1.38,1.5,2.08,2.27l2,2.09a72.45,72.45,0,0,0,6.52,6.29l-1-.61c4.81,5.41,11.74,10.5,13.44,13.51-.47,0,1,1.08.51,1.37l4,3.47-.95-.62,6.48,6.32-.23-.1,8.16,6.49c.17-.16,0-.41,1.16.49a30.12,30.12,0,0,1,2.55,2.4h0c1.52,1.62,2.34,2.89,4.17,4.92l-6-5.91c-.76-.2-.54.59,2.19,3.7-1.21-1.19-1.92-1.47-.48,0,.24.09,4.08,3.72,2.87,2.08,5.76,5.55,14.18,15.42,23.29,23.48-6.48-5.85,4.57,5.31-2.39-1.42,4.34,5.22,4.55,3.68,9.35,8.62.26.57-2.63-2.67-4.06-3.48,7.92,8.27,14.37,13,22.07,20.92v.68Zm15.93,15.07,4.71,4.47-.44-.46,4.8,4.25c-2.65-2.91-4.1-5.13,0-1.41-.47-.18.5,1.13-.94-.14,2.4,2.82,7.93,8.75,7,6.73-5.51-4.52-.51-1.83-4.82-5.41,2.46,1.78,4.4,4,6.55,5.87-2.36-1.79-.16,1.13,2.83,4.39,1.44,1.28,5,5,7.44,7.16-.49-1.13,1.66.66-1.94-3.1a63.74,63.74,0,0,1,5.77,5.79c-1-.87-2.65-2.45-2.65-2.23,1.22,1.81,3,3.56,3.85,4.67l2.38,2.27a4.11,4.11,0,0,1-.45-.67l2.87,2.3c-3.6-3.29-1.45-1.74-1.22-1.88-.47.28,2.17,2.27,3.36,3.44l-2.17-3c1.44,1,4.09,4.66,3.84,3.62-5.29-5.59-7.44-7.62-12.48-12.41l1.69,2.3c-5.76-5.33-2.89-4-9.13-10.16-2.87-2.31-9.38-9.34-10.07-8.91.95.61-3.38-4.37-5.77-6.25-2.86-1.85-10.06-8.91-8.14-6.51,1.92,1.93,4.8,4.24,6,6.12l-3.84-3.63,2.17,2.73C242.7,371.12,242.55,371.52,242.73,372.51Zm56.69,33.92-.14-.15.16.16Z" transform="translate(-119.22 -68.16)"/><path class="cls-1" d="M257.2,116.3c.95-1.2,3.63-3.84,2.83-3.59C260.4,112.94,255.33,117.5,257.2,116.3Z" transform="translate(-119.22 -68.16)"/><path class="cls-1" d="M260.67,113.41c.12-.26-.13-.24,1.05-1.44l-3.2,3.36Z" transform="translate(-119.22 -68.16)"/><path class="cls-1" d="M266.06,112.14a46.67,46.67,0,0,1,5.09-5.75c1.74-.26-4.14,4.56-4.66,6.44,4.94-4.8,5.79-6.93,9.74-11C273.94,103.51,265.65,111.44,266.06,112.14Z" transform="translate(-119.22 -68.16)"/><polygon class="cls-1" points="145.61 47.08 148.15 44.2 147.84 44.42 145.29 47.3 145.61 47.08"/><path class="cls-1" d="M199.78,167.51c-.47,0-1.93,1.93-2.78,2.89A27.19,27.19,0,0,0,199.78,167.51Z" transform="translate(-119.22 -68.16)"/><path class="cls-1" d="M233.2,164.74l20.44-20.88Z" transform="translate(-119.22 -68.16)"/><path class="cls-1" d="M132.72,237.57c5.33-5.76,7.4-8.62,12.95-14.38-7.89,7-9.09,10.54-15.81,16.31Z" transform="translate(-119.22 -68.16)"/><path class="cls-1" d="M132.85,233.78c1.35-.48-3.78,4.79-2.65,4.3,3.63-3.84,1.33-2.15,4.76-5.51Z" transform="translate(-119.22 -68.16)"/><polygon class="cls-1" points="45.91 147.64 44.46 149.54 45.73 148.11 45.91 147.64"/><polygon class="cls-1" points="13.14 200.72 12.43 200.21 15.08 203.13 13.14 200.72"/><path class="cls-1" d="M130.94,267.85l.72.52Z" transform="translate(-119.22 -68.16)"/><polygon class="cls-1" points="44.68 150.73 47.27 148.32 48.31 146.88 44.68 150.73"/><path class="cls-1" d="M139.52,238.63l2.09-2.37C141.2,236.73,138,239.61,139.52,238.63Z" transform="translate(-119.22 -68.16)"/><polygon class="cls-1" points="29.95 217.9 32.84 220.45 32.6 220.13 29.72 217.58 29.95 217.9"/><path class="cls-1" d="M130.93,254.31c-.2-.53.42.05.9.49.19.18.37.34.5.48a3.19,3.19,0,0,0,.37.31c.06,0,0,0-.08-.18l-.26-.34-.2-.24-.13-.18C130.61,253.33,130.89,254,130.93,254.31Z" transform="translate(-119.22 -68.16)"/><path class="cls-1" d="M160.83,288.72c.36.36.76.74,1.17,1.08Z" transform="translate(-119.22 -68.16)"/><path class="cls-1" d="M160.83,288.72c-1.19-1.19-2.25-2.5-3.16-3.22A23.1,23.1,0,0,0,160.83,288.72Z" transform="translate(-119.22 -68.16)"/><path class="cls-1" d="M174.48,302.22l-1-1.1c1.26.93.72.44-.4-.41-1.15-1.13-1.19-1-1.39-1l-.83-.57,1.05.81C173.62,301.7,174.71,302.76,174.48,302.22Z" transform="translate(-119.22 -68.16)"/><path class="cls-1" d="M219.31,358.26c-3.84-4.09-4.81-5.18-4.34-5.22-3.68-3.85-3.54-2.82-5.92-5C213.37,352.26,214.12,353.25,219.31,358.26Z" transform="translate(-119.22 -68.16)"/><path class="cls-1" d="M209.05,348.05l-1.5-1.47C208.16,347.21,208.63,347.66,209.05,348.05Z" transform="translate(-119.22 -68.16)"/><polygon class="cls-1" points="42.21 215.37 45.07 217.44 44.11 216.59 42.21 215.37"/><path class="cls-1" d="M225.07,364.28c-.72-.75-1.91-1.92-2.4-2.59C222.2,361.74,225.79,365,225.07,364.28Z" transform="translate(-119.22 -68.16)"/><path class="cls-1" d="M214.83,343.91c-.25-.56-2.88-3-3.85-4.1C212.43,341.33,213.16,343,214.83,343.91Z" transform="translate(-119.22 -68.16)"/><path class="cls-1" d="M237.52,374.6c-.72-.75-1.68-2.06-1-1.78C235.35,371.87,233.45,370.88,237.52,374.6Z" transform="translate(-119.22 -68.16)"/><polygon class="cls-1" points="102.81 283.05 102.33 282.39 99.45 279.85 102.81 283.05"/><path class="cls-1" d="M216.16,337.71c-3.36-2.75,4.1,5.59-1.42.59,6.46,7.11-.08-1,4.87,4.1C216.78,339.36,215.74,337.54,216.16,337.71Z" transform="translate(-119.22 -68.16)"/><path class="cls-1" d="M219.61,342.4c.41.44.86.91,1.36,1.41Z" transform="translate(-119.22 -68.16)"/><path class="cls-1" d="M260.65,387.34c-.48-.42-.81-.68-1.13-.93C259.89,386.74,260.26,387,260.65,387.34Z" transform="translate(-119.22 -68.16)"/><path class="cls-1" d="M235.85,358.13l-5-4.12c3.37,2.75,11,10.47,11,9.53a63.21,63.21,0,0,0-6.94-6.5Z" transform="translate(-119.22 -68.16)"/><path class="cls-1" d="M280.05,419l-2.16-1.8,2.41,2.53C279.67,419,281.28,419.92,280.05,419Z" transform="translate(-119.22 -68.16)"/><path class="cls-1" d="M280.77,420.24l-.46-.48A5.78,5.78,0,0,0,280.77,420.24Z" transform="translate(-119.22 -68.16)"/><path class="cls-1" d="M251.77,378.9c-1.45-1.51-2.65-2.68-4.08-3.95C248.17,375.6,251.77,379.36,251.77,378.9Z" transform="translate(-119.22 -68.16)"/><polygon class="cls-1" points="175.43 364.13 172.08 360.94 175.68 364.47 175.43 364.13"/><polygon class="cls-1" points="194.33 349.26 193.85 348.62 190.98 346.07 191.47 346.73 194.33 349.26"/><path class="cls-1" d="M298.24,419.32c-2.17-2.26-4.31-3.58-3.82-2.91l4.31,4.27c-.73-1.45-1.2-1.18-3.6-3.76Z" transform="translate(-119.22 -68.16)"/><path class="cls-1" d="M199.8,305c1.2.72,5.76,5.55,5.78,6-.73-.53-3.38-3-1.92-1.24l4.3,3.12c4.57,5.31-4.53-3-7.18-5.2,5,5.11,6.84,6.21,12.19,11.56a35.52,35.52,0,0,1-3.08-3.74c.23-.6,5,4.58,8.63,8.11-2.09-2.45-.62-1.29,1.2.2a7.39,7.39,0,0,0,.7.57l.62.5-.43-.43c.08,0,0-.16-.19-.55-3.11-2.87-5-5.51-7-7.44,1.22,2.58-6.72-6.4-9.35-8.61l-2.86-2.73-1.05-1.05c-.14-.28.25-.08,2,1.38-1.46-1.19-5.85-5.68-5.66-5.05l-10.14-10.12c-.29-.35-.57-.7-.76-1-.39-.31-.48-.33-.47-.25Q166.51,270.54,147.93,252l.14-.18c-.08.06-.19.11-.3.18a1.76,1.76,0,0,0,.25.69c-.56-.11-.47,0-.23.29l.08.1.21.23c.3.31.58.61.8.86.44.5.64.82.28.68-.42-.34-.86-.74-1.32-1.17l-.35-.32-.18-.17a2.41,2.41,0,0,1-.47-.66.31.31,0,0,0-.37.26c-.06.16-.08.36-.29.4a5.49,5.49,0,0,0,.61.71c.06,0,.81.77,1.26,1.17,1,.89,1.9,1.59,2.8,2.28a46.54,46.54,0,0,1,6.23,5.54c-.47,0-2.38-1.41,1.22,2.11l-1-.85c6,5.42,3.86,5,8.16,7.91l-.46.28c2.86,2.31,7.9,7.34,10.79,10.13l-.24-.1c8.38,7.53,4.56,4.38,13.67,13.14l-4.55-3.68c2.91,3.26,4.07,3.48,6.24,5.74-.23-.08,0,.7-2.15-1.32l11.51,10.18C203.17,308.7,200.05,305.59,199.8,305Z" transform="translate(-119.22 -68.16)"/><path class="cls-1" d="M213,319.3c.55.6,1.2,1.26,2,2Z" transform="translate(-119.22 -68.16)"/><path class="cls-1" d="M148.39,251.46l-.31.32A1,1,0,0,0,148.39,251.46Z" transform="translate(-119.22 -68.16)"/><path class="cls-1" d="M229.33,334c-1.69-2.07,1.67,1.14,2.14,1.32l-6.74-6.72c-.11.17-.94-.34-.93-.07Z" transform="translate(-119.22 -68.16)"/><path class="cls-1" d="M223.05,326.41a13.4,13.4,0,0,1-2-1.47l3.69,3.69C224.82,328.5,224.5,328,223.05,326.41Z" transform="translate(-119.22 -68.16)"/><polygon class="cls-1" points="96.88 266.62 95.67 265.44 93.76 263.75 96.88 266.62"/><path class="cls-1" d="M198.09,315.51a42.25,42.25,0,0,0,5,5C200,317.43,201.43,318.69,198.09,315.51Z" transform="translate(-119.22 -68.16)"/><polygon class="cls-1" points="80.38 253.53 77.25 250.65 77.49 250.97 80.38 253.53"/><path class="cls-1" d="M169,227.94l1.44-1.5C169.75,227.11,169.32,227.56,169,227.94Z" transform="translate(-119.22 -68.16)"/><path class="cls-1" d="M146.26,251.37c1-.72,1.06-.57,1-.32s-.42.71-.39.91a.75.75,0,0,0,.67.06l-.09-.06a4.76,4.76,0,0,1,.27-.6l.15.13s.17-.18.33-.37l2.1-2.15c-1.22.73-2,1.44-2,1,6.44-6.24,2.3-1.69,7.28-6l7-7.13-.49.65a7.05,7.05,0,0,0,1-1.15l23.73-24c4.14-4.55-2.87,1.94,0-1.64-5,5-12.8,12.25-12.71,13.19.1-.24.29-.72-.79.24l-2.49,3.34,2.91-2.64c-2.51,3.35-12.06,12.72-14,14.17,5.24-5.53,2-3.34,9.8-10.56-.46.21-2.07,1.35-.45-.41-4.32,4.47-8.5,8.61-12.69,12.83-2.09,2.11-4.19,4.23-6.3,6.43-.52.55-1.05,1.11-1.59,1.66l-.79.85-.39.41-.12.14C146.79,250.64,146.5,251,146.26,251.37Z" transform="translate(-119.22 -68.16)"/><path class="cls-1" d="M231.43,165.7l0,.12C231.54,165.63,231.57,165.56,231.43,165.7Z" transform="translate(-119.22 -68.16)"/><path class="cls-1" d="M228.42,168.59l-3.78,4.78,6.64-6.71.13-.84a28.87,28.87,0,0,1-3.71,4Z" transform="translate(-119.22 -68.16)"/><path class="cls-1" d="M220,178.65c3.29-3.6,2.69-3.83.62-2.14,3-3.36,2.12-1.22,3.85-3.84-.37-.23-4.09,3.85-4.93,4.8Z" transform="translate(-119.22 -68.16)"/><polygon class="cls-1" points="75.11 135.7 75.9 134.55 73.47 136.9 75.11 135.7"/><path class="cls-1" d="M195.12,202.71l2.42-2.32a2.2,2.2,0,0,0-1,.37Z" transform="translate(-119.22 -68.16)"/><path class="cls-1" d="M203.88,194.29c1-1,2.17-2.06,3.53-3.4Z" transform="translate(-119.22 -68.16)"/><path class="cls-1" d="M201.06,196.9l.14,0,2.68-2.58Z" transform="translate(-119.22 -68.16)"/><path class="cls-1" d="M197.54,200.39c.68-.09,1.44-.24,4.78-3.74l-1.12.22Z" transform="translate(-119.22 -68.16)"/><polygon class="cls-1" points="58.99 231.26 56.12 228.72 56.36 229.05 59.23 231.59 58.99 231.26"/><path class="cls-1" d="M162.84,283.52c-.72-.62-1.28-1.08-1.8-1.48A17.44,17.44,0,0,0,162.84,283.52Z" transform="translate(-119.22 -68.16)"/><path class="cls-1" d="M149.22,273.89c-2.89-3.49,4.79,4-1-2-.25-.79,2.87,1.62,5.51,4.54-.48,0-2.87-2.54-1.42-.57,2.14,1.54,2.64,2.45,2.38,1.42,3.35,2.86,4,2.93,6.33,4.79-3.92-3.59-11.41-11.87-16.67-16.14-3.09-2.16-2.14.07-2.82.74C141.78,267.19,148.52,274.08,149.22,273.89Z" transform="translate(-119.22 -68.16)"/><path class="cls-1" d="M153.57,279.58a38.91,38.91,0,0,0,2.88,2.78C156.43,281.88,154.77,280.76,153.57,279.58Z" transform="translate(-119.22 -68.16)"/><path class="cls-1" d="M148.85,239.2c.19-.38,2.74-3.17,2-2.76l-3.93,4.17A6.71,6.71,0,0,1,148.85,239.2Z" transform="translate(-119.22 -68.16)"/><path class="cls-1" d="M145.2,242.44l1.73-1.83C146.47,241.05,145.94,241.61,145.2,242.44Z" transform="translate(-119.22 -68.16)"/><path class="cls-1" d="M149.11,239.07l-.26.13C148.82,239.28,148.85,239.29,149.11,239.07Z" transform="translate(-119.22 -68.16)"/><path class="cls-1" d="M213.87,184.64c.13.24,1.82-1.67,2.67-2.63C215.79,182.73,214.69,183.7,213.87,184.64Z" transform="translate(-119.22 -68.16)"/><path class="cls-1" d="M281,116l1.74-1.44A13.82,13.82,0,0,0,281,116Z" transform="translate(-119.22 -68.16)"/><path class="cls-1" d="M300.53,86.42a1.28,1.28,0,0,1,.23-.42A1,1,0,0,0,300.53,86.42Z" transform="translate(-119.22 -68.16)"/><path class="cls-1" d="M300.76,86c.93-1.24,4.53-4.36,5.51-5.81l-.08.23,1.05-1.2.39-.43.17-.2.07-.12.15-.24A21.09,21.09,0,0,1,306.38,80l-2.26,2.3A43.19,43.19,0,0,0,300.76,86Z" transform="translate(-119.22 -68.16)"/></svg>